<svg xmlns="http://www.w3.org/2000/svg" viewBox="0 0 35.834 41">
  <defs>
    <style>
      .cls-1 {
        fill: #fe264a;
        stroke: #fff;
      }
    </style>
  </defs>
  <path id="account-order-icon" class="cls-1" d="M-2420.243,273a2.76,2.76,0,0,1-2.757-2.757V244.9a1.987,1.987,0,0,1,.123-.69,1.178,1.178,0,0,1,.114-.275l5.656-9.811a2.256,2.256,0,0,1,1.949-1.126h19.152a2.257,2.257,0,0,1,1.948,1.123l5.565,9.621a1.873,1.873,0,0,1,.141.244l.03.051a1.169,1.169,0,0,1,.155.669c0,.034,0,.067,0,.1v25.434a2.76,2.76,0,0,1-2.756,2.757Zm-.412-2.757a.413.413,0,0,0,.412.412h29.321a.413.413,0,0,0,.412-.412V245.258h-30.145Zm16.285-27.331h12.686l-4.377-7.568h-8.309Zm-15.1,0h12.751v-7.568h-8.388Zm11.483,18.9-2.842-2.842a1.172,1.172,0,0,1,0-1.658,1.173,1.173,0,0,1,1.658,0l2.013,2.013,5.235-5.235a1.173,1.173,0,0,1,1.658,0,1.172,1.172,0,0,1,0,1.658l-6.063,6.063a1.17,1.17,0,0,1-.829.343A1.169,1.169,0,0,1-2407.982,261.817Z" transform="translate(2423.499 -232.5)"/>
</svg>
