<svg xmlns="http://www.w3.org/2000/svg" viewBox="0 0 77.051 77.051">
  <defs>
    <style>
      .cls-1 {
        fill: #fe264a;
      }

      .cls-2 {
        fill: #fff;
      }
    </style>
  </defs>
  <g id="account-address-icon-active" transform="translate(-876 -545)">
    <g id="Group_6" data-name="Group 6" transform="translate(876 545)">
      <circle id="Oval_5_Copy_4" data-name="Oval 5 Copy 4" class="cls-1" cx="38.525" cy="38.525" r="38.525"/>
    </g>
    <g id="placeholder" transform="translate(880.8 557.599)">
      <g id="Group_2979" data-name="Group 2979" transform="translate(18.2 6.4)">
        <path id="Path_1447" data-name="Path 1447" class="cls-2" d="M34.152,6.4A15.99,15.99,0,0,0,18.2,22.386a16.209,16.209,0,0,0,.31,3.17c0,.069.034.138.034.241C20.3,33.687,32.67,45.539,33.187,46.021a1.323,1.323,0,0,0,.965.379,1.481,1.481,0,0,0,.965-.379c.517-.517,12.817-12.334,14.574-20.052,0-.069.034-.138.034-.207A16.054,16.054,0,0,0,34.152,6.4ZM46.968,25.246v.1C45.659,31.068,37.08,40.1,34.152,43.024,31.223,40.1,22.61,31.068,21.3,25.211a.311.311,0,0,0-.034-.172,14.227,14.227,0,0,1-.276-2.687,13.144,13.144,0,1,1,25.978,2.894Z" transform="translate(-18.2 -6.4)"/>
        <path id="Path_1448" data-name="Path 1448" class="cls-2" d="M54.34,32.5a5.34,5.34,0,1,0,5.34,5.34A5.345,5.345,0,0,0,54.34,32.5Zm0,7.89a2.55,2.55,0,1,1,2.55-2.55A2.544,2.544,0,0,1,54.34,40.39Z" transform="translate(-38.388 -23.508)"/>
      </g>
    </g>
  </g>
</svg>
