<?xml version="1.0" encoding="utf-8"?>
<!-- Generator: Adobe Illustrator 23.0.2, SVG Export Plug-In . SVG Version: 6.00 Build 0)  -->
<svg version="1.1" id="Layer_1" xmlns="http://www.w3.org/2000/svg" xmlns:xlink="http://www.w3.org/1999/xlink" x="0px" y="0px"
	 viewBox="0 0 289.9 287.6" style="enable-background:new 0 0 289.9 287.6;" xml:space="preserve">
<style type="text/css">
	.st0{fill:url(#SVGID_1_);}
	.st1{fill:#FFFFFF;}
</style>
<radialGradient id="SVGID_1_" cx="-94.9933" cy="507.2468" r="264.5765" gradientTransform="matrix(1 0 0 -1 149.0522 559.0852)" gradientUnits="userSpaceOnUse">
	<stop  offset="0" style="stop-color:#FDE2E0"/>
	<stop  offset="0.5442" style="stop-color:#8E8F8F"/>
	<stop  offset="0.9982" style="stop-color:#8A8A8A"/>
</radialGradient>
<path class="st0" d="M286.3,2.4H4.3v283h281.9V192c1.1-1.6,1.7-3.7,1.7-6.2c0-2.9-0.6-4.7-1.7-6.2"/>
<path class="st1" d="M29.7,124.8l-5.4-13.2l-5.4,13.2 M149.2,119.6c-1.1,0.7-2.4,0.7-3.9,0.7h-9.6v-7.4h9.8c1.4,0,2.8,0.1,3.8,0.6
	c1,0.5,1.7,1.5,1.7,2.9C150.8,117.9,150.2,119,149.2,119.6z M217.9,124.8l-5.5-13.2l-5.5,13.2H217.9z M89.9,139.2h-8.1l0-26
	l-11.5,26h-7l-11.5-26v26H35.6l-3-7.4H16.1l-3.1,7.4H4.4L18.6,106h11.8l13.5,31.4V106h12.9l10.4,22.5l9.5-22.5h13.2L89.9,139.2
	L89.9,139.2z M122.3,139.2H95.8V106h26.5v6.9h-18.5v6h18.1v6.8h-18.1v6.6h18.5V139.2z M159.6,114.9c0,5.3-3.5,8-5.6,8.8
	c1.7,0.7,3.2,1.8,3.9,2.8c1.1,1.6,1.3,3.1,1.3,6.1v6.5h-8l0-4.2c0-2,0.2-4.9-1.3-6.5c-1.2-1.2-2.9-1.4-5.8-1.4h-8.5v12.1h-7.9V106
	H146c4,0,7,0.1,9.6,1.6C158.1,109.1,159.6,111.2,159.6,114.9z M172.3,139.2h-8.1V106h8.1V139.2z M266.1,139.2h-11.2l-15-24.9v24.9
	h-16.1l-3.1-7.4h-16.5l-3,7.4h-9.3c-3.9,0-8.7-0.9-11.5-3.7c-2.8-2.8-4.2-6.6-4.2-12.7c0-4.9,0.9-9.4,4.3-13c2.6-2.6,6.6-3.9,12-3.9
	h7.7v7.1h-7.5c-2.9,0-4.5,0.4-6.1,2c-1.4,1.4-2.3,4-2.3,7.5c0,3.6,0.7,6.1,2.2,7.8c1.2,1.3,3.4,1.7,5.5,1.7h3.6l11.2-26.1h11.9
	l13.4,31.4V106H244l13.9,23.1V106h8.1V139.2L266.1,139.2z M4.3,145.7h13.5l3.1-7.4h6.8l3,7.4h26.6V140l2.4,5.7h13.8L76,140v5.7h66.2
	l0-12.1h1.3c0.9,0,1.2,0.1,1.2,1.6v10.5h34.2v-2.8c2.8,1.5,7.1,2.8,12.7,2.8H206l3.1-7.4h6.8l3,7.4h27.8v-7l4.2,7h22.2V99.4h-22v5.5
	l-3.1-5.5h-22.6v5.5l-2.8-5.5h-30.5c-5.1,0-9.6,0.7-13.2,2.7v-2.7h-21.1v2.7c-2.3-2-5.5-2.7-9-2.7H71.9l-5.2,11.9l-5.3-11.9H37.2
	v5.5l-2.7-5.5H13.9l-9.6,22L4.3,145.7L4.3,145.7z"/>
<path class="st1" d="M286.3,170.1h-14.4c-1.4,0-2.4,0.1-3.2,0.6c-0.8,0.5-1.2,1.3-1.2,2.4c0,1.3,0.7,2.1,1.7,2.5
	c0.8,0.3,1.7,0.4,3.1,0.4l4.3,0.1c4.3,0.1,7.2,0.9,9,2.7c0.3,0.3,0.5,0.5,0.7,0.8 M286.3,192c-1.9,2.8-5.7,4.2-10.8,4.2h-15.3v-7.1
	h15.2c1.5,0,2.6-0.2,3.2-0.8c0.6-0.5,0.9-1.3,0.9-2.2c0-1-0.4-1.7-1-2.2c-0.6-0.5-1.4-0.7-2.8-0.7c-7.4-0.3-16.7,0.2-16.7-10.3
	c0-4.8,3.1-9.9,11.4-9.9h15.8v-6.6h-14.7c-4.4,0-7.6,1.1-9.9,2.7v-2.7H240c-3.5,0-7.5,0.9-9.5,2.7v-2.7h-38.7v2.7
	c-3.1-2.2-8.3-2.7-10.7-2.7h-25.6v2.7c-2.4-2.4-7.9-2.7-11.2-2.7h-28.6l-6.5,7.1l-6.1-7.1H60.4v46.3h41.9l6.7-7.2l6.4,7.2l25.8,0
	v-10.9h2.5c3.4,0.1,7.5-0.1,11-1.6v12.5h21.3v-12.1h1c1.3,0,1.4,0.1,1.4,1.4v10.7h64.7c4.1,0,8.4-1.1,10.8-3v3h20.5
	c4.3,0,8.4-0.6,11.6-2.1V192L286.3,192z M254.6,178.7c1.5,1.6,2.4,3.6,2.4,7c0,7.1-4.5,10.5-12.4,10.5h-15.4v-7.1h15.4
	c1.5,0,2.6-0.2,3.2-0.8c0.5-0.5,0.9-1.3,0.9-2.2c0-1-0.4-1.7-1-2.2c-0.6-0.5-1.4-0.7-2.8-0.7c-7.4-0.3-16.7,0.2-16.7-10.3
	c0-4.8,3-9.9,11.3-9.9h15.9v7.1h-14.5c-1.4,0-2.4,0.1-3.2,0.6c-0.9,0.5-1.2,1.3-1.2,2.4c0,1.3,0.7,2.1,1.7,2.5
	c0.8,0.3,1.7,0.4,3.1,0.4l4.3,0.1C249.9,176.2,252.9,176.9,254.6,178.7z M183.1,176.7c-1.1,0.6-2.4,0.7-3.9,0.7h-9.6v-7.4h9.8
	c1.4,0,2.8,0,3.8,0.6c1,0.5,1.6,1.6,1.6,3C184.8,174.9,184.2,176.1,183.1,176.7z M187.9,180.8c1.8,0.7,3.2,1.8,3.9,2.8
	c1.1,1.6,1.3,3.1,1.3,6.1v6.6h-8v-4.1c0-2,0.2-4.9-1.3-6.5c-1.2-1.2-2.9-1.5-5.8-1.5h-8.5v12.1h-8v-33.2h18.3c4,0,6.9,0.2,9.5,1.6
	c2.5,1.5,4.1,3.6,4.1,7.4C193.5,177.3,190,180,187.9,180.8z M197.9,163.1h26.4v6.9h-18.6v6h18.1v6.8h-18.1v6.6l18.6,0v6.9h-26.4
	V163.1z M144.5,178.4h-10.2v-8.4h10.3c2.9,0,4.8,1.2,4.8,4.1C149.4,176.9,147.5,178.4,144.5,178.4z M126.3,193.2l-12.2-13.5
	l12.2-13.1V193.2z M94.9,189.3H75.4v-6.6h17.4V176H75.4v-6h19.9l8.7,9.7L94.9,189.3z M157.9,174c0,9.2-6.9,11.1-13.8,11.1h-9.9v11.1
	h-15.4l-9.8-11l-10.1,11H67.5v-33.2h31.9l9.8,10.9l10.1-10.9h25.3C150.8,163.1,157.9,164.8,157.9,174z"/>
</svg>
