<svg xmlns="http://www.w3.org/2000/svg" viewBox="0 0 67.076 54.359">
  <defs>
    <style>
      .cls-1 {
        fill: #0063a7;
      }

      .cls-2 {
        fill: #00923d;
      }

      .cls-3 {
        fill: #fbd002;
      }
    </style>
  </defs>
  <g id="anvisa" transform="translate(-972 -5496.347)">
    <circle id="Ellipse_12" data-name="Ellipse 12" class="cls-1" cx="4.583" cy="4.583" r="4.583" transform="translate(1001.949 5519.072)"/>
    <path id="Union_14" data-name="Union 14" class="cls-2" d="M15.759,54.359V37.783H0v-3.3H19.056V54.359Zm21.182-.4V34.906H56.814V38.18h-16.6V53.962Zm.819-34.089V0h3.272V16.6H56.814v3.273Zm-18.7-.421H0V16.18H16.577V.421h3.3V19.452Z" transform="translate(977.119 5496.347)"/>
    <path id="Union_15" data-name="Union 15" class="cls-3" d="M39.628,33.929C15.921,28.365,20.012,16.137,20.012,16.137c2.712,4.418,14.216,15.455,32.639,15.641,12.368.14,14.356-11.924,14.356-11.924.6,3.6-2.472,15.273-17.974,15.272A41.328,41.328,0,0,1,39.628,33.929ZM14.424,3.347C2.056,3.208.068,15.271.068,15.271-.632,11.04,3.739-4.367,27.447,1.2S47.063,18.99,47.063,18.99C44.352,14.571,32.848,3.535,14.424,3.347Z" transform="translate(972 5505.647)"/>
  </g>
</svg>
