<?xml version="1.0" encoding="utf-8"?>
<!-- Generator: Adobe Illustrator 23.0.3, SVG Export Plug-In . SVG Version: 6.00 Build 0)  -->
<svg version="1.1" id="Layer_1" xmlns="http://www.w3.org/2000/svg" xmlns:xlink="http://www.w3.org/1999/xlink" x="0px" y="0px"
	 viewBox="0 0 362.3 470" style="enable-background:new 0 0 362.3 470;" xml:space="preserve">
<path d="M15.5,470h331c8.6,0,15.7-7.1,15.7-15.7V111.7c0-8.6-7.1-15.7-15.7-15.7h-76.2v-6.7c0-49.1-40.1-89.2-89.2-89.2
	S91.9,40.1,91.9,89.2v6.7H15.7C7.1,95.9,0,103.1,0,111.7v342.6C-0.2,463.1,6.7,470,15.5,470z M123.2,89.4
	c0-31.9,25.8-57.7,57.7-57.7s57.7,25.8,57.7,57.7v6.7H123.2V89.4z M31.3,127.4h60.5v26.2c0,8.6,7.1,15.7,15.7,15.7
	s15.7-7.1,15.7-15.7v-26.2h115.5v26.2c0,8.6,7.1,15.7,15.7,15.7s15.7-7.1,15.7-15.7v-26.2h60.5v311.1H31.3V127.4L31.3,127.4z"/>
</svg>
