<?xml version="1.0" encoding="utf-8"?>
<!-- Generator: Adobe Illustrator 23.0.2, SVG Export Plug-In . SVG Version: 6.00 Build 0)  -->
<svg version="1.1" id="Layer_1" xmlns="http://www.w3.org/2000/svg" xmlns:xlink="http://www.w3.org/1999/xlink" x="0px" y="0px"
	 viewBox="0 0 28.3 28.3" style="enable-background:new 0 0 28.3 28.3;" xml:space="preserve">
<path d="M24.6,15.1l-0.8-2.8c-0.5-1.7-1.7-3-3.2-3.6V4.5c0-2.4-2-4.4-4.4-4.4h-3.8c-2.4,0-4.4,2-4.4,4.4v4.1
	c-1.6,0.6-2.8,1.8-3.3,3.5l-0.9,2.7c-0.5,1.6-0.8,3.4-0.8,5.1v8.3h22.1v-8.6C25.2,18.1,25,16.6,24.6,15.1z M12.5,2.2h3.8
	c1.3,0,2.3,1,2.3,2.3v3.8h-8.4V4.5C10.2,3.3,11.2,2.2,12.5,2.2z M23.1,26.1H5.2v-6.2c0-1.5,0.2-3,0.7-4.5l0.9-2.7
	c0.2-0.8,0.7-1.4,1.3-1.8v1.6c0,0.6,0.5,1,1,1c0.6,0,1-0.5,1-1v-2.2h8.4v2.2c0,0.6,0.5,1,1,1c0.6,0,1-0.5,1-1V11
	c0.6,0.4,1.1,1.1,1.3,1.8l0.8,2.8c0.3,1.3,0.5,2.6,0.5,3.9V26.1z"/>
</svg>
