<?xml version="1.0" encoding="utf-8"?>
<!-- Generator: Adobe Illustrator 23.0.2, SVG Export Plug-In . SVG Version: 6.00 Build 0)  -->
<svg version="1.1" id="Capa_1" xmlns="http://www.w3.org/2000/svg" xmlns:xlink="http://www.w3.org/1999/xlink" x="0px" y="0px"
	 viewBox="0 0 490.1 329.3" style="enable-background:new 0 0 490.1 329.3;" xml:space="preserve">
<style type="text/css">
	.st0{fill:#8E8E8E;}
</style>
<g>
	<g>
		<g>
			<path class="st0" d="M56,1.6H11.8C6.1,1.6,1.5,6.2,1.5,11.9v304.4c0,5.7,4.6,10.3,10.3,10.3H56c5.7,0,10.3-4.6,10.3-10.3V11.9
				C66.3,6.2,61.7,1.6,56,1.6z"/>
			<path class="st0" d="M477.2,1.6h-44.2c-5.7,0-10.3,4.6-10.3,10.3v304.4c0,5.7,4.6,10.3,10.3,10.3h44.2c5.7,0,10.3-4.6,10.3-10.3
				V11.9C487.5,6.2,482.9,1.6,477.2,1.6z"/>
			<path class="st0" d="M139.2,11.9c0-5.7-4.6-10.3-10.3-10.3h-28c-5.7,0-10.3,4.6-10.3,10.3v217c0,5.7,4.6,10.3,10.3,10.3h28
				c5.7,0,10.3-4.6,10.3-10.3V11.9z"/>
			<path class="st0" d="M165.7,239.2h28c5.7,0,10.3-4.6,10.3-10.3v-217c0-5.7-4.6-10.3-10.3-10.3h-28c-5.7,0-10.3,4.6-10.3,10.3v217
				C155.4,234.6,160,239.2,165.7,239.2z"/>
			<path class="st0" d="M230.5,239.2h28c5.7,0,10.3-4.6,10.3-10.3v-217c0-5.7-4.6-10.3-10.3-10.3h-28c-5.7,0-10.3,4.6-10.3,10.3v217
				C220.2,234.6,224.8,239.2,230.5,239.2z"/>
			<path class="st0" d="M333.6,228.9v-217c0-5.7-4.6-10.3-10.3-10.3h-28c-5.7,0-10.3,4.6-10.3,10.3v217c0,5.7,4.6,10.3,10.3,10.3h28
				C329,239.2,333.6,234.6,333.6,228.9z"/>
			<path class="st0" d="M398.4,228.9v-217c0-5.7-4.6-10.3-10.3-10.3h-28c-5.7,0-10.3,4.6-10.3,10.3v217c0,5.7,4.6,10.3,10.3,10.3h28
				C393.8,239.2,398.4,234.6,398.4,228.9z"/>
			<path class="st0" d="M120.2,291v-0.3c6.4-3.2,9.3-8.6,9.3-14.2c0-7.8-6.2-16.6-21.3-16.6c-12.9,0-22.7,7.2-22.7,18.2
				c0,5.6,3.1,10.9,9.3,14.1v0.3c-7,3.1-11.5,8.4-11.5,16.2c0,8.7,7.5,18,23.9,18c15,0,24.8-7.8,24.8-19.6
				C132,298.7,126.5,293.4,120.2,291z M107.5,270.1c5.5,0,7.8,4,7.8,7.9c0,4.1-3.1,7.2-6.5,8.2c-5.2-1.6-9.1-4.3-9.1-8.7
				C99.7,273.5,102.4,270.1,107.5,270.1z M107.8,316.2c-5.7,0-9.2-4.4-9.1-9c0-4.7,2.9-8.2,7.8-9.6c6,1.6,10.1,5,10.1,10.6
				C116.6,312.7,113.1,316.2,107.8,316.2z"/>
			<path class="st0" d="M162.9,259.9c-16.7,0-24.6,14.8-24.6,33.4c0.1,18.2,7.4,33.2,24.1,33.2c16.5,0,24.5-13.7,24.5-33.6
				C186.9,275.3,180.2,259.9,162.9,259.9z M162.8,315.2c-5.9,0-9.4-7-9.3-21.8c-0.1-15,3.7-22,9.2-22c6.1,0,9.1,7.5,9.1,21.8
				C171.9,307.8,168.7,315.2,162.8,315.2z"/>
			<path class="st0" d="M217.5,259.9c-14.2,0-24.3,10.6-24.3,23.2c0,12.5,9.2,20.2,20.2,20.2c5.9,0,10-1.7,12.9-4.7l0.3,0.1
				c-1.2,4.9-4,9-8.1,11.9c-3.5,2.4-8.1,3.7-12.7,4c-0.3,0-0.6,0-0.9,0.1c-3.2,0.2-5.6,2.8-5.6,6v0.8c0,1.4,0.6,2.7,1.6,3.7
				c1,1,2.3,1.5,3.7,1.4c0.5,0,1,0,1.6-0.1c10-0.4,18.4-3.5,24.6-9c7-6.5,11.3-16.3,11.3-29.7C241.9,272.6,234,259.9,217.5,259.9z
				 M225.7,288.3c-1.4,2.3-4.3,4.3-8.3,4.3c-6.2,0-9.1-4.8-9.1-10.3c-0.1-6.7,3.7-11.3,8.8-11.3c6.8,0,9.4,6.8,9.4,13.6
				C226.5,286.4,226.2,287.4,225.7,288.3z"/>
			<path class="st0" d="M275.9,261h-3.6c-1.1,0-2.1,0.2-3.1,0.7l-11.5,5.4c-2.4,1.1-3.7,3.7-3.1,6.3c0.4,1.7,1.5,3.1,3,3.8
				c1.6,0.8,3.4,0.8,4.9,0l5.9-2.8h0.2v43.8c0,4,3.3,7.3,7.3,7.3c4,0,7.3-3.3,7.3-7.3v-49.9C283.2,264.3,280,261,275.9,261z"/>
			<path class="st0" d="M328,259.9c-16.7,0-24.6,14.8-24.6,33.4c0.1,18.2,7.5,33.2,24.1,33.2c16.4,0,24.5-13.7,24.5-33.6
				C352,275.3,345.3,259.9,328,259.9z M327.9,315.2c-5.9,0-9.4-7-9.3-21.8c-0.1-15,3.6-22,9.2-22c6.1,0,9.1,7.5,9.1,21.8
				C337,307.8,333.8,315.2,327.9,315.2z"/>
			<path class="st0" d="M398.6,261h-32.3c-3.4,0-6.2,2.8-6.2,6.2c0,3.4,2.8,6.2,6.2,6.2h23.4c0,0.1,0,0.3-0.1,0.4l-21.2,41.4
				c-1.1,2.2-1,4.8,0.2,6.9c1.3,2.1,3.6,3.4,6,3.4c2.7,0,5.2-1.6,6.4-4L405,272c0.5-0.9,0.7-2,0.7-3.1v-0.9
				C405.7,264.2,402.5,261,398.6,261z"/>
		</g>
	</g>
</g>
</svg>
