<svg xmlns="http://www.w3.org/2000/svg" viewBox="0 0 29.641 18.001">
  <defs>
    <style>
      .cls-1 {
        fill: #37474f;
      }
    </style>
  </defs>
  <path id="Shape_16" data-name="Shape 16" class="cls-1" d="M0,0H.448V17.981C.28,17.988.14,17.994,0,18ZM26.946,17.97V0H27.4q0,8.744-.007,17.488c0,.186.135.5-.247.5A1.139,1.139,0,0,1,26.946,17.97Zm-1.123,0V0h.449q0,8.744-.007,17.488c0,.186.135.5-.247.5A1.138,1.138,0,0,1,25.823,17.97Zm-1.123,0V0h.449q0,8.744-.006,17.488c0,.186.136.5-.246.5A1.143,1.143,0,0,1,24.7,17.97Zm-6.737,0V0h.449q0,8.744-.006,17.488c0,.186.136.5-.246.5A1.143,1.143,0,0,1,17.963,17.97Zm-2.245,0V0h.449q0,8.744-.006,17.488c0,.186.135.5-.247.5A1.137,1.137,0,0,1,15.718,17.97Zm-8.982,0V0h.448q0,8.744,0,17.488c0,.186.135.5-.247.5A1.137,1.137,0,0,1,6.737,17.97Zm5.613,0V0H12.8q0,8.744-.007,17.488c0,.182.142.5-.236.5A1.132,1.132,0,0,1,12.35,17.966Zm-6.737,0V0h.449q0,8.744-.007,17.488c0,.182.141.5-.236.5A1.132,1.132,0,0,1,5.613,17.966Zm-1.123,0V0h.449q0,8.744-.007,17.488c0,.182.142.5-.236.5A1.132,1.132,0,0,1,4.49,17.966Zm23.578,0V0h1.573V17.966Zm-6.737,0V0H22.9V17.966Zm-2.245,0V0h1.573V17.966Zm-5.613,0V0h1.571V17.966Zm-3.368,0V0h1.571V17.966Zm-2.247,0V0H9.431V17.966Zm-6.737,0V0H2.694V17.966Z"/>
</svg>
