<svg xmlns="http://www.w3.org/2000/svg" viewBox="0 0 104.5 27.618">
  <defs>
    <style>
      .cls-1, .cls-3 {
        fill: #fff;
      }

      
      .cls-2 {
        fill: none;
        stroke-linecap: round;
        stroke-dasharray: 2;
      }

      .cls-2, .cls-3 {
        stroke: #fff;
      }
    </style>
  </defs>
  <g id="button-homem" transform="translate(-565.5 -473.882)">
    <g id="Group_2056" data-name="Group 2056" transform="translate(-21 -17)">
      <text id="homem" class="cls-1" transform="translate(627 507.882)"><tspan x="0" y="0">homem</tspan></text>
      <line id="Line_34" data-name="Line 34" class="cls-2" x2="62" transform="translate(628.5 517.5)"/>
    </g>
    <g id="mars" transform="translate(566 481)">
      <g id="Group_2061" data-name="Group 2061" transform="translate(0 4.691)">
        <g id="Group_2060" data-name="Group 2060">
          <path id="Path_1040" data-name="Path 1040" class="cls-3" d="M7.654,120.1a7.654,7.654,0,1,0,7.654,7.654A7.663,7.663,0,0,0,7.654,120.1Zm0,13.827a6.173,6.173,0,1,1,6.173-6.173A6.18,6.18,0,0,1,7.654,133.926Z" transform="translate(0 -120.099)"/>
        </g>
      </g>
      <g id="Group_2063" data-name="Group 2063" transform="translate(11.969 0.215)">
        <g id="Group_2062" data-name="Group 2062">
          <rect id="Rectangle_151" data-name="Rectangle 151" class="cls-3" width="9.568" height="1.481" transform="translate(0 6.765) rotate(-45)"/>
        </g>
      </g>
      <g id="Group_2065" data-name="Group 2065" transform="translate(11.877)">
        <g id="Group_2064" data-name="Group 2064">
          <path id="Path_1041" data-name="Path 1041" class="cls-3" d="M311.422,0H304.78a.741.741,0,1,0,0,1.481h5.9v5.9a.741.741,0,1,0,1.481,0V.741A.741.741,0,0,0,311.422,0Z" transform="translate(-304.039)"/>
        </g>
      </g>
    </g>
  </g>
</svg>
