<svg xmlns="http://www.w3.org/2000/svg" viewBox="0 0 38.312 38.459">
  <defs>
    <style>
      .cls-1 {
        fill: #fe264a;
      }
    </style>
  </defs>
  <path id="cadastrar" class="cls-1" d="M206.436,165.13a11.483,11.483,0,0,1-6.165-13.459,11.3,11.3,0,0,1,21.793.036,11.481,11.481,0,0,1-6.238,13.455c.3.1.544.182.8.256a18.865,18.865,0,0,1,5.747,2.862.894.894,0,0,1,.272,1.129.837.837,0,0,1-1.14.08,17.168,17.168,0,0,0-8.862-3.346,17.765,17.765,0,0,0-18.955,13.939c-.079.359-.125.726-.207,1.084a.793.793,0,0,1-.935.677c-.332-.056-.538-.323-.516-.9,1.471-7.947,6.084-13.121,13.741-15.622.092-.03.188-.047.281-.074.11-.032.218-.067.39-.12Zm4.713-.525a9.861,9.861,0,1,0-9.809-9.832,9.793,9.793,0,0,0,9.809,9.832Zm13.644,11.649c0,1.623,0,3.156,0,4.689,0,.745-.4.9-.712.9-.284,0-.682-.154-.682-.875,0-1.549,0-3.1,0-4.715h-2.705c-.671,0-1.341-.012-2.011.009a.875.875,0,0,1-.568-.138.8.8,0,0,1-.263-.4.754.754,0,0,1-.037-.2.733.733,0,0,1,.442-.62,1.389,1.389,0,0,1,.466-.045h.5l1,0q1.591,0,3.181,0v-.579q0-2.039,0-4.078c0-.626.413-.913.721-.885a.747.747,0,0,1,.683.848c-.026,1.533-.009,3.067-.009,4.694h.57c1.417,0,2.835.016,4.252-.008a.7.7,0,1,1,.005,1.409c-1.378-.017-2.757-.006-4.136-.006Z" transform="translate(-192.022 -143.397)"/>
</svg>
