
<?xml version="1.0" encoding="utf-8"?>
<!-- Generator: Adobe Illustrator 22.0.0, SVG Export Plug-In . SVG Version: 6.00 Build 0)  -->
<svg version="1.1" id="Layer_1" xmlns="http://www.w3.org/2000/svg" xmlns:xlink="http://www.w3.org/1999/xlink" x="0px" y="0px"
	 viewBox="0 0 595.3 595.3" style="enable-background:new 0 0 595.3 595.3;" xml:space="preserve">
<style type="text/css">
	.st0{fill:#727272;}
</style>
<g>
	<path class="st0" d="M583.1,238.7c-14.5,3.9-29.2,5.5-44.1,4c-11.1-1.2-21.8-4.2-32.6-7.2c-10-2.8-20.1-5.4-30.6-3.7c0,0,0,0,0,0
		c0,0,0,0,0,0c-9.6,0.9-17.9,5.2-26,10.1c-0.5,0.3-1-0.3-0.7-0.7c3.8-6.2,6.6-12.8,7.9-19.9c0.9-5.1,1.5-10.2,2.2-15.4
		c0.9-6.8,4.5-11.4,10.9-13.9c0.7-0.3,1.5-0.4,2.1-1.1c0.3-0.3,0-0.8-0.4-0.9c-29.9-0.9-51.6,12.9-68.3,36.3
		c-0.3,0.4-0.8,0.3-0.9-0.2c-1.5-5.2-3-10.4-4.6-15.5c-2.3-7.1-4.4-14.4-8.7-20.6c0,0,0,0,0,0c0,0,0,0,0,0c-0.9-1.5-1.8-3.1-2.8-4.6
		c-8.7-12.9-20.9-21.4-34.8-27.8c-11.7-5.4-23.9-9.6-35.9-14.2c-27.2-10.5-51.2-25.8-70.3-48c-3.3-3.9-6.5-7.9-9.7-12.1
		c-0.3-0.4-1-0.2-0.9,0.4c0.8,6.4,5,28.4,19.6,46.7c12.5,17.1,28.3,30.4,46.2,41.6c0.5,0.3,1.1,0.6,1.7,1c0.5,0.3,0.1,1.1-0.4,0.9
		c-4.3-1.2-8-2.9-11.7-4.6c-13.3-6.2-25.4-14.3-36.9-23.4c-0.4-0.4-0.9-1.1-1.4-0.8c-0.6,0.3-0.5,1.1-0.4,1.9c0.4,2.3,1.1,4.5,2,6.7
		c4.5,10.7,12,18.9,21,25.8c11.9,9.2,25.4,15.3,39.4,20.3c5.5,1.6,8.7,9.7-26-4c-0.7-0.3-1.6-1.1-2.3-0.2c-0.8,1,0.1,2.4,0.6,3.1
		c4.7,5.5,9.6,9.3,15.8,12.5c8.3,4.2,16,6,25.3,7.2c1.9,0.3,2.2,0.9-2.7,2.1c-7,1.7-14.2,2.4-21.5,2.1c-0.6,0-1.3-0.2-1.6,0.5
		c-0.4,0.9,0.4,1.2,0.9,1.6c1.1,0.9,2.3,1.8,3.5,2.6c10.3,6.9,22.1,8.9,34.2,8.1c1.6,0,2.8,0.1,0.2,1c-5.9,1.7-12,2.1-18,3.1
		c-0.6,0.1-1.5,0.1-1.5,0.8c0,0.5,0.6,1,1,1.3c11.9,9,24.8,17.1,38.1,23.8c0.3,0.1,0.4,0.5,0.2,0.8c-0.9,1.2-2.7,3.6-4,4.9
		c-22.6,24.5-50.1,40.3-83.2,45.9c-0.6,0.1-1.4,0-1.6,0.9c0.1,0.5,0.5,0.5,0.8,0.6c8.3,1.5,16.8,2.3,25.2,2.6
		c15.1,0.5,30-0.4,44.9-3c29.8-5.2,57.3-15.9,82.1-33.3c0.9-0.7,1.8-1.3,3.1-1.1c1.6,0.2,3.2,0.5,4.9,0.6c15.1,1.6,30.2,1.5,45.3,0
		c3.5-0.4,7-1,10.5-1.4c0.7-0.1,1.6-0.1,2-0.4c0.6-0.6-0.2-0.9-1.4-1.8c-0.7-0.5-1.5-1.1-2.2-1.6c-0.4-0.4-0.1-1.1,0.5-0.9
		c2.9,0.8,5.7,1.5,8.5,2.3c4.2,1.1,15,1.4,10.7-0.6c-3.8-2.2-6.4-4.3-9.3-6.8c-0.4-0.4,0-1.1,0.5-0.9c4.3,1.3,8.5,2.5,13,2.8
		c4.3,0.3,8.6,0.5,12.9-1.1c1-0.4,1-1.8-0.1-2.1c-4.8-1.3-9.3-2.8-13.5-4.9c1.2,0.2,1.7,0.3,2.4,0.4c7,1,12.9,1.6,19.5,1.7
		c9.1,0.1,17.9-1,26.1-5.3c1.4-0.7,2.7-1.5,4-2.7c0.4-0.3,0.1-0.9-0.4-0.9c-6.4,0.2-12.3,0.6-18.3,0.2c-4.8-0.3-9.7-0.7-14.4-1.6
		c-0.6-0.1-0.5-1,0.1-1c8.4,0,16.8-0.7,25.1-2.3c13.9-2.7,26.2-7.1,37.2-16.2c0.6-0.5,2-1.7,2.3-2.2c0.2-0.4-0.2-0.8-0.6-0.7
		C589.5,236.8,586.3,237.8,583.1,238.7z"/>
	<path class="st0" d="M297.1,448c-4.5-0.1-9.9-0.6-15.2-1.6c-1.9-0.4-3.3-1.1-3.3-3.5c0-5.9,0.3-6.1,6.3-5.4
		c7.1,0.8,14.1,1.6,21.2,0.9c5.6-0.6,8.6-3.7,8.5-9c0-2.3-1.1-4.1-2.7-5.7c-2.3-2.2-5.1-3.8-7.8-5.5c-6.1-3.8-12.8-7-18.4-11.6
		c-5.2-4.3-7.7-9.8-7.1-16.7c0.6-6.6,4.7-11.5,11.7-13.5c5.7-1.6,11.5-1.6,17.3-1.3c4.3,0.3,8.6,0.8,12.9,1.3
		c3.7,0.4,4.1,0.9,4.1,4.7c0,0.6,0,1.3,0,1.9c0.1,2.1-0.9,2.9-2.9,2.8c-5.4-0.3-10.8-0.6-16.2-1c-3-0.2-5.9-0.1-8.8,0.3
		c-2.8,0.3-5.4,1.3-6.3,4.3c-0.9,3-0.4,5.8,2,8.1c1.8,1.7,3.8,2.9,5.8,4.2c4.6,2.8,9.3,5.5,14,8.3c2.4,1.4,4.7,3,6.8,4.8
		c6.3,5.4,8.3,12.1,6.3,20c-1.9,7.7-7.7,11-14.8,12.4C306.4,448.2,302.2,448.4,297.1,448z"/>
	<path class="st0" d="M13.4,411c0,5.3-0.2,10.2,1,15c2,7.9,7.1,12.1,15.3,12.1c4.7,0,9.4-0.2,14.1-0.8c4.1-0.5,4.6,0,4.6,4.1
		c0,4.8,0,4.8-4.7,5.6c-6.5,1-13,1.8-19.5,0.7C13.8,446,6.8,439.9,4,429.9c-3.4-12-3.3-24.4-0.1-36.4c3.2-11.6,12.3-18.2,24.4-18.5
		c5.8-0.1,11.6,0.5,17.4,1.4c1.7,0.3,2.6,1.2,2.7,3c0.3,6.5,0.3,6.5-6.2,6.1c-3.9-0.3-7.8-0.6-11.7-0.5c-9.6,0.1-15.1,4.8-16.6,14.3
		C13.3,403.4,13.5,407.5,13.4,411z"/>
	<path class="st0" d="M424,398.6c0,14.9,0,29.7,0,44.6c0,3.5-0.5,4.1-3.9,4.1c-7.2,0-7.5,1.1-7.5-7.4c0.1-28.5,0-57,0-85.6
		c0-4.2,0.4-4.6,4.6-4.7c7.7-0.1,6.8,0.1,6.8,6.8C424,370.5,424,384.6,424,398.6z"/>
	<path class="st0" d="M75.6,398.7c0,14.8,0,29.6,0,44.3c0,3.8-0.5,4.2-4.3,4.3c-7.5,0.1-7,0.3-7-7c0-28.8,0-57.5,0-86.3
		c0-4,0.4-4.3,4.4-4.4c7.5-0.1,6.9-0.3,6.9,6.8C75.5,370.6,75.6,384.6,75.6,398.7z"/>
	<path class="st0" d="M235,413.1c0-10.1,0.1-20.1,0-30.2c0-2.4,1-3.7,3.1-4.5c6.3-2.5,12.9-2.9,19.5-3.3c2.2-0.1,4.5,0,6.7-0.1
		c2.1-0.1,3.2,0.6,3,2.9c-0.1,1.3,0,2.6,0,3.8c0,3.1-0.2,3.3-3.2,3.3c-4,0-8,0.1-12,0.4c-5.5,0.5-5.5,0.4-5.5,5.8
		c0,17.3,0,34.5,0,51.8c0,3.7-0.6,4.2-4.3,4.3c-7.5,0.1-7.2,0.4-7.2-7.2C235,431.1,235,422.1,235,413.1z"/>
	<path class="st0" d="M393.7,411.4c0-10,0-20,0-29.9c0-1.9-0.7-3-2.5-3.4c-8.7-2-17.4-3.4-26.3-3c-13.1,0.6-21.8,7.4-24.6,20.1
		c-2.4,10.9-2.4,22.1,0,33c2.8,12.3,10.8,18.8,23.5,19.8c9.2,0.7,18.3-0.8,27.2-2.8c2.2-0.5,2.7-1.8,2.7-3.8
		C393.7,431.3,393.7,421.4,393.7,411.4z M380.4,437.6c-5.2,0.5-10.3,1.4-15.5,0.8c-7.5-0.8-11.8-4.4-13.3-11.9
		c-2-10-2-20.2,0.1-30.2c1.5-7.4,6.5-11.2,14.1-11.7c5-0.3,10,0.4,15,1c1.6,0.2,1.6,1.1,1.6,2.3c0,7.9,0,15.8,0,23.7
		c0,7.8,0,15.6,0,23.5C382.3,436.6,382,437.4,380.4,437.6z"/>
	<path class="st0" d="M497.8,400.9c-1.8-14.2-10.2-23.9-24-25.7c-15.3-1.9-28,6.3-31.6,21.3c-2.1,8.7-1.8,17.6-0.8,26.4
		c1.5,13.7,9.4,22.1,22.6,24.5c8.8,1.6,17.5,0.5,26.2-1c6-1,5.9-1.1,5.9-7c0-2.1-0.8-2.9-2.9-2.7c-0.7,0.1-1.4,0.1-2.1,0.2
		c-6.5,1-13,1.5-19.6,1.5c-7.7,0-14.1-2.6-17.3-10.3c-1.4-3.4-1.7-6.9-2-10.5c-0.1-1.9,0.3-2.6,2.4-2.6c6.6,0.2,13.3,0.1,19.9,0.1
		c6.6,0,13.3,0,19.9,0c3,0,3.7-0.7,3.8-3.8C498.3,407.9,498.2,404.4,497.8,400.9z M484.5,406.6c-0.1,0-0.2,0-0.2,0
		c-4.9,0-9.9,0-14.8,0c-5.1,0-10.2-0.1-15.3,0c-1.5,0-2-0.4-1.8-1.9c0.2-3.2,0.6-6.3,1.8-9.4c2.8-7.4,8.9-10.9,17.8-10.3
		c7.3,0.5,12.4,5,14,12.6c0.5,2.2,0.6,4.4,0.9,6.6C486.9,406,486.4,406.9,484.5,406.6z"/>
	<path class="st0" d="M149.2,400.3c-1.8-13-9.5-23.4-24.1-25c-14.4-1.6-27.2,5.2-31.1,20.3c-2.6,10.2-2.3,20.6-0.4,30.9
		c2.1,11.1,8.9,18.2,20,20.7c10.7,2.4,21.4,0.7,32.1-1.3c1.2-0.2,2-1.2,2-2.4c-0.1-2.1,0.8-4.3-0.7-6.2c-0.2-0.3-0.9-0.4-1.3-0.4
		c-1,0-2.1,0.1-3.1,0.3c-6.5,0.9-13,1.5-19.6,1.5c-9.4,0-15.2-4-17.7-11.8c-1-3.1-1.1-6.3-1.4-9.4c-0.2-1.7,0.3-2.2,2.1-2.2
		c6.8,0.1,13.6,0,20.4,0c6.7,0,13.4,0,20.1,0c2.5,0,3.4-0.8,3.4-3.2C149.7,408.1,149.8,404.2,149.2,400.3z M131.7,406.6
		c-3.6,0-7.2,0-10.8,0c-5,0-10.1-0.1-15.1,0c-1.8,0-2.1-0.5-2-2.2c0.4-4.6,1-9,3.7-12.9c3.9-5.5,11.2-7.8,18.9-5.9
		c6.1,1.5,10.3,6.6,11.2,14C138.6,406.6,138.6,406.6,131.7,406.6z"/>
	<path class="st0" d="M217.4,411.6c0-10,0-20,0-29.9c0-1.9-0.5-3.2-2.5-3.7c-8.6-1.9-17.3-3.3-26.1-3c-12.9,0.5-21.8,7.3-24.7,19.4
		c-2.6,11-2.6,22.2-0.2,33.2c2.8,12.7,10.7,19.2,23.6,20.3c9.3,0.7,18.4-0.8,27.5-2.9c2-0.5,2.4-1.7,2.4-3.5
		C217.4,431.6,217.4,421.6,217.4,411.6z M206.1,411.7c0,7.7,0,15.5,0,23.2c0,1.6-0.3,2.5-2.1,2.7c-4.5,0.5-9.1,1.1-13.6,0.9
		c-9-0.3-14-4.3-15.5-13.5c-1.5-9.3-1.6-18.8,0.2-28.1c1.6-8,6.8-12.2,15-12.3c4.6-0.1,9.2,0.5,13.8,0.9c1.6,0.2,2.1,0.8,2.1,2.4
		C206,395.9,206.1,403.8,206.1,411.7z"/>
</g>
</svg>
