<?xml version="1.0" encoding="utf-8"?>
<!-- Generator: Adobe Illustrator 23.0.3, SVG Export Plug-In . SVG Version: 6.00 Build 0)  -->
<svg version="1.1" id="Layer_1" xmlns="http://www.w3.org/2000/svg" xmlns:xlink="http://www.w3.org/1999/xlink" x="0px" y="0px"
	 viewBox="0 0 365.9 156.1" style="enable-background:new 0 0 365.9 156.1;" xml:space="preserve">
<style type="text/css">
	.st0{fill:#FFFFFF;}
</style>
<g>
	<g>
		<path d="M18.8,11.7c0.1-2.1-0.1-4.1-1.1-5.3c-1-1.2-3.1-1.6-4.1-1.6c-3.8,0-5.3,2.3-5.5,2.8C8.1,8.1,7.2,9,7.2,15.2v9.7
			c0,8.9,2.9,9.9,6.5,9.9c1.4,0,5.7-0.5,5.7-7.6h4.8c0.2,11.4-7.9,11.4-10.2,11.4c-4.5,0-11.4-0.3-11.4-14.3V14.1
			C2.5,3.9,7,1,14.1,1c7.2,0,9.9,3.7,9.5,10.7H18.8z"/>
	</g>
	<g>
		<path d="M30.6,24.7V12.8C30.6,5.6,34.3,1,41.9,1s11.4,4.6,11.4,11.8v11.9c0,10-3.7,14-11.4,14S30.6,34.7,30.6,24.7z M48.6,24.9
			V12.7c0-7.6-5.2-7.8-6.7-7.8s-6.7,0.3-6.7,7.8v12.2c0,7.9,2.3,9.9,6.7,9.9S48.6,32.8,48.6,24.9z"/>
	</g>
	<g>
		<path d="M65.7,37.9h-4.3V1.8h7.5l9.1,30.3H78l9.2-30.3h7.6v36.1h-4.6V5.8h-0.1L80,37.9h-4.4L65.8,5.8h-0.1V37.9z"/>
	</g>
	<g>
		<path d="M103.6,37.9V1.8h10.7c4.9,0,10.1,1.8,10.1,10.3c0,8.2-6.4,9.9-10.1,9.9h-6.1v15.9H103.6z M108.2,18h5.1
			c1.9,0,6.4-0.5,6.4-6.2c0-5.5-4.1-6.1-5.1-6.1h-6.4V18z"/>
	</g>
	<g>
		<path d="M135.3,21.3v16.6h-4.6V1.8h12.5c6.4,0,8.7,4.5,8.7,9c0,4.3-2.4,7.5-6.6,8.3v0.1c4.2,0.7,5.7,2.1,5.9,9.3
			c0,1.6,0.6,7.2,1.3,9.5h-4.8c-1.3-2.5-1-7.2-1.4-12c-0.4-4.4-3.9-4.6-5.5-4.6H135.3z M135.3,17.3h6.9c3.3,0,4.9-2.9,4.9-6
			c0-2.6-1.3-5.5-4.9-5.5h-7V17.3z"/>
	</g>
	<g>
		<path d="M158.7,37.9V1.8h18.6v4h-14v11.6h13v4h-13v12.5h14.3v4H158.7z"/>
	</g>
</g>
<g>
	<g>
		<path class="st0" d="M15.4,123.2c0.3,8.4-0.8,21.1,11.4,21.1c12.7,0,13.5-10.9,13.5-22.4V58.5h12v70.6c0,5.1-0.1,25.2-25.9,25.2
			c-5.2,0-15.2-1.8-19.8-9.2c-3.8-6.2-3.8-14.3-3.8-21.8H15.4z"/>
		<path d="M26.4,154.8c-1.5,0-14.5-0.3-20.2-9.5C2.4,139,2.4,131,2.4,123.2v-0.5h13.5l0,0.5c0,0.8,0,1.6,0,2.4
			c0.1,8.1,0.3,18.1,10.9,18.1c12,0,13-9.9,13-21.9V58h13v71.1C52.8,140.8,48.2,154.8,26.4,154.8z M3.4,123.7
			c0,7.4,0.1,15.1,3.7,21.1c5.4,8.7,17.9,9,19.3,9c11.6,0,25.4-4.3,25.4-24.7V59h-11v62.9c0,12-1.1,22.9-14,22.9
			c-11.6,0-11.8-11-11.9-19.1c0-0.7,0-1.3,0-1.9H3.4z"/>
	</g>
	<g>
		<path class="st0" d="M74.1,58.5h12v60c0,20.5,6.2,25.7,17.5,25.7s17.5-5.2,17.5-25.7v-60h12v59.5c0,26-9.6,36.3-29.5,36.3
			S74.1,144,74.1,118.1V58.5z"/>
		<path d="M103.6,154.8c-20.7,0-30-11.3-30-36.8V58h13v60.5c0,21,6.5,25.2,17,25.2c14.2,0,17-9.7,17-25.2V58h13v60
			C133.6,143.5,124.4,154.8,103.6,154.8z M74.6,59v59c0,25.1,8.7,35.8,29,35.8s29-10.7,29-35.8V59h-11v59.5c0,21.8-7.2,26.2-18,26.2
			s-18-4.5-18-26.2V59H74.6z"/>
	</g>
	<g>
		<path class="st0" d="M218.9,58.5v93.8h-16.4l-37-81.3h-0.3v81.3h-10.7V58.5h16.9l36.5,80.3h0.3V58.5H218.9z"/>
		<path d="M219.4,152.9h-17.2l-36.5-80.1v80.1h-11.7V58h17.7l36,79.1V58h11.7V152.9z M202.8,151.9h15.6V59h-9.7v80.3h-1.1L171.1,59
			h-16.1v92.8h9.7V70.5h1.1L202.8,151.9z"/>
	</g>
	<g>
		<path class="st0" d="M293.2,58.5v10.4h-24.7v83.4h-12V68.9h-24.7V58.5H293.2z"/>
		<path d="M269,152.9h-13V69.4h-24.7V58h62.3v11.4H269V152.9z M257.1,151.9h11V68.4h24.7V59h-60.3v9.4h24.7V151.9z"/>
	</g>
	<g>
		<path class="st0" d="M305.2,118.1V87.3c0-18.7,9.6-30.7,29.5-30.7c19.9,0,29.5,12,29.5,30.7v30.8c0,26-9.6,36.3-29.5,36.3
			C314.8,154.3,305.2,144,305.2,118.1z M351.9,118.6V86.9c0-19.6-13.5-20.3-17.3-20.3s-17.3,0.6-17.3,20.3v31.7
			c0,20.5,6,25.7,17.3,25.7S351.9,139.1,351.9,118.6z"/>
		<path d="M334.7,154.8c-20.7,0-30-11.3-30-36.8V87.3c0-20.1,10.7-31.2,30-31.2s30,11.1,30,31.2v30.8
			C364.7,143.5,355.4,154.8,334.7,154.8z M334.7,57.1c-18.7,0-29,10.7-29,30.2v30.8c0,25.1,8.7,35.8,29,35.8s29-10.7,29-35.8V87.3
			C363.7,67.8,353.4,57.1,334.7,57.1z M334.7,144.8c-13,0-17.8-7.1-17.8-26.2V86.9c0-18.1,11.1-20.8,17.8-20.8s17.8,2.7,17.8,20.8
			v31.7C352.4,137.7,347.6,144.8,334.7,144.8z M334.7,67.1c-6.3,0-16.8,2.6-16.8,19.8v31.7c0,21,6.4,25.2,16.8,25.2
			s16.8-4.2,16.8-25.2V86.9C351.4,69.7,340.9,67.1,334.7,67.1z"/>
	</g>
</g>
</svg>
