<svg xmlns="http://www.w3.org/2000/svg" viewBox="0 0 24.904 22">
  <defs>
    <style>
      .cls-1 {
        fill: #fff;
      }
    </style>
  </defs>
  <g id="curti" transform="translate(-929.5 -857.25)">
    <path id="Path_1287" data-name="Path 1287" class="cls-1" d="M8.219,10.887V26.355H5.758A1.739,1.739,0,0,1,4,24.637V12.605a1.739,1.739,0,0,1,1.758-1.719Zm17.873,0H20.875l.816-3.262a2.63,2.63,0,0,0-1.72-3.133h0a2.628,2.628,0,0,0-3.02,1.036l-1.7,2.547-4.219,4.219V24.949L15.9,26.355H22.96a4.868,4.868,0,0,0,4.83-4.264l1.089-8.013a2.812,2.812,0,0,0-2.787-3.191Z" transform="translate(925.5 852.894)"/>
  </g>
</svg>
