<svg xmlns="http://www.w3.org/2000/svg" viewBox="0 0 172.224 79">
  <defs>
    <style>
      .cls-1 {
        fill: #ed7112;
      }

      .cls-2 {
        fill: #fff;
      }

      .cls-3 {
        fill: #117854;
      }
    </style>
  </defs>
  <g id="Group_2" data-name="Group 2" transform="translate(-630.816 -493.135)">
    <path id="Path_1" data-name="Path 1" class="cls-1" d="M631.308,493.135h170.76l.971,54.109-43.91,6.83-52.2,4.391L630.816,569.2Z"/>
    <g id="Group_1" data-name="Group 1">
      <path id="Path_2" data-name="Path 2" class="cls-2" d="M669.81,510.824a37.173,37.173,0,0,0-7.319.162c-4.065.488-4.065,4.717-3.577,7.969s2.114,9.758,2.114,9.758-14.637,1.138-14.962,9.758,13.5,14.311,17.727,13.335,4.065-4.228,4.39-8.782S670.135,514.4,669.81,510.824Zm-7.156,33.5c-.163,4.066-6.993-.162-9.92-2.439s1.626-4.716,5.692-7.156S662,537.495,662,537.495A27.672,27.672,0,0,1,662.654,544.325Z"/>
      <path id="Path_3" data-name="Path 3" class="cls-2" d="M679.893,542.862s8.944-7.644,8.782-12.848-12.2-2.44-13.986-1.3-6.18,4.391-4.066,10.408S680.869,554.408,689,544A15.937,15.937,0,0,1,679.893,542.862Zm-2.114-1.789s-.488.65-3.253-3.741c-2.14-3.4,7.318-6.18,7.318-3.9C681.844,537.226,677.779,541.073,677.779,541.073Z"/>
      <path id="Path_4" data-name="Path 4" class="cls-2" d="M689.65,527.087l.651,20.491s5.692-.325,5.529-4.229-.325-11.709-.325-11.709,6.017-3.252,6.343,2.114.162,12.36.162,12.36,5.53.651,5.855-3.74a109.154,109.154,0,0,0-.163-11.71s5.692-3.252,6.018.814.325,13.66.325,13.66,5.2-.325,5.529-2.927a100.423,100.423,0,0,0,0-13.986c-.325-2.439-6.017-6.993-13.661-2.114,0,0-4.391-3.09-11.709.65C694.2,526.761,691.114,525.46,689.65,527.087Z"/>
      <path id="Path_5" data-name="Path 5" class="cls-2" d="M730.622,537.17s8.961-7.624,8.81-12.829-12.192-2.465-13.984-1.33-6.189,4.377-4.088,10.4,10.213,15.309,18.367,4.918A15.939,15.939,0,0,1,730.622,537.17Zm-2.11-1.793s-.489.649-3.245-3.747c-2.133-3.4,7.332-6.165,7.327-3.888C732.586,531.539,728.512,535.377,728.512,535.377Z"/>
      <path id="Path_6" data-name="Path 6" class="cls-2" d="M760.408,533.6s9.166-7.376,9.157-12.582-12.119-2.8-13.941-1.714-6.307,4.206-4.372,10.284,9.79,15.583,18.225,5.419A15.938,15.938,0,0,1,760.408,533.6Zm-2.061-1.85s-.507.635-3.14-3.835c-2.039-3.461,7.5-5.961,7.43-3.685C762.525,528.025,758.347,531.75,758.347,531.75Z"/>
      <path id="Path_7" data-name="Path 7" class="cls-2" d="M741.854,522.533l-2.764-.488s-.326-4.391,3.09-4.553c0,0-.163-4.879.813-5.692a12.4,12.4,0,0,1,4.716-1.789V517l3.9-.163s1.952,4.066-3.9,4.879l.163,17.564s-1.464,2.6-5.53,2.6Z"/>
      <path id="Path_8" data-name="Path 8" class="cls-2" d="M770.314,517a51.465,51.465,0,0,1,.976,7.481c.269,3.893.325,13.5.325,13.5s5.042-.163,5.2-3.253-.162-11.709-.162-11.709,6.668-.813,5.529-6.505c0,0-1.626-2.6-7.969,1.3A3.264,3.264,0,0,0,770.314,517Z"/>
      <path id="Path_9" data-name="Path 9" class="cls-3" d="M798.124,543.837l-24.394,5.855s-.814.651-10.409,1.3-38.217,2.277-42.446,2.765-48.626,6.505-48.626,6.505-2.764.162-12.2.813-21.467.488-21.467.488v10.571s25.37-2.44,29.436-2.765,17.889-3.09,17.889-3.09,15.124-3.415,20.816-3.74,39.519-3.9,39.519-3.9,15.938-1.3,18.865-1.789,32.526-4.554,32.526-4.554Z"/>
    </g>
  </g>
</svg>
