<?xml version="1.0" encoding="utf-8"?>
<!-- Generator: Adobe Illustrator 23.0.2, SVG Export Plug-In . SVG Version: 6.00 Build 0)  -->
<svg version="1.1" id="Layer_1" xmlns="http://www.w3.org/2000/svg" xmlns:xlink="http://www.w3.org/1999/xlink" x="0px" y="0px"
	 viewBox="0 0 358 259" style="enable-background:new 0 0 358 259;" xml:space="preserve">
<style type="text/css">
	.st0{fill:#4C4C4D;}
	.st1{fill:#B7B7B7;}
</style>
<g>
	<path class="st0" d="M227.8,257.2c69.9,0,126.5-56.7,126.5-126.5c0-69.9-56.7-126.5-126.5-126.5h-97.5C60.3,4.1,3.7,60.7,3.7,130.6
		c0,69.9,56.6,126.5,126.5,126.5H227.8z"/>
	<path class="st1" d="M250,130.6c0,66.2-53.6,119.8-119.8,119.8c-66.2,0-119.8-53.6-119.8-119.8c0-66.2,53.6-119.8,119.8-119.8
		C196.4,10.8,250,64.5,250,130.6z"/>
	<path class="st0" d="M52.7,130.6c0,33,20.6,61.1,49.6,72.3V58.4C73.3,69.6,52.7,97.7,52.7,130.6z"/>
	<path class="st0" d="M207.8,130.6c0-33-20.6-61-49.6-72.3v144.5C187.2,191.7,207.8,163.6,207.8,130.6z"/>
</g>
</svg>
