<?xml version="1.0" encoding="utf-8"?>
<!-- Generator: Adobe Illustrator 23.0.2, SVG Export Plug-In . SVG Version: 6.00 Build 0)  -->
<svg version="1.1" id="Layer_1" xmlns="http://www.w3.org/2000/svg" xmlns:xlink="http://www.w3.org/1999/xlink" x="0px" y="0px"
	 viewBox="0 0 422.1 302.3" style="enable-background:new 0 0 422.1 302.3;" xml:space="preserve">
<style type="text/css">
	.st0{fill:#474747;}
	.st1{fill:#808080;}
	.st2{fill:#C4C4C4;}
</style>
<g id="surface1">
	<path class="st0" d="M421,261.1c0,22-18,40-40,40H41c-22,0-40-18-40-40v-220c0-22,18-40,40-40h340c22,0,40,18,40,40V261.1z"/>
	<path class="st1" d="M421,261.1c0,22-18,40-40,40H131c0,0,236-38,290-150V261.1z M191,151.1c0,17,13,30,30,30s30-13,30-30
		s-13-30-30-30S191,134.1,191,151.1z"/>
	<path class="st2" d="M83,121.1h11v60H83V121.1z M143,151.1c0,17,13,30,30,30c5,0,9-1,14-3v-13c-4,4-8,6-14,6c-11,0-19-8-19-20
		c0-11,8-20,19-20c5,0,9,2,14,6v-13c-5-2-9-4-14-4C156,121.1,143,135.1,143,151.1z M277,160.1l-16-39h-12l25,60h6l25-60h-12
		L277,160.1z M310,181.1h32v-10h-21v-16h20v-10h-20v-14h21v-10h-32V181.1z M386,139.1c0-11-7-18-20-18h-17v60h11v-24h1l16,24h14
		l-18-25C381,154.1,386,148.1,386,139.1z M363,149.1h-3v-18h3c7,0,11,3,11,9C374,145.1,371,149.1,363,149.1z M48,121.1H31v60h16
		c25,0,31-21,31-30C79,133.1,66,121.1,48,121.1z M45,171.1h-3v-40h4c15,0,21,10,21,20C67,155.1,66,171.1,45,171.1z M124,144.1
		c-7-3-9-4-9-7c0-4,4-6,8-6c3,0,6,1,9,5l6-8c-5-5-10-7-17-7c-10,0-18,7-18,17c0,8,4,12,14,16c6,2,11,4,11,9s-4,8-9,8s-10-3-12-8
		l-7,7c5,8,11,11,20,11c12,0,20-8,20-19C140,153.1,136,149.1,124,144.1z"/>
</g>
</svg>
