<svg xmlns="http://www.w3.org/2000/svg" viewBox="0 0 144.792 101.201">
  <defs>
    <style>
      .cls-1, .cls-2 {
        fill-rule: evenodd;
      }

      .cls-2 {
        fill: #fff;
      }

      .cls-3 {
        fill: none;
        stroke: #000;
        stroke-miterlimit: 2.613;
        stroke-width: 0.824px;
      }
    </style>
  </defs>
  <g id="Group_15" data-name="Group 15" transform="translate(-631.24 -24.862)">
    <path id="Path_59" data-name="Path 59" class="cls-1" d="M701.861,126.063c16.481,0,32.834-2.916,45.683-10.021,17.627-9.746,27.479-25.2,28.445-41.137.344-5.662-1.415-10.792-3.934-15.889-10.74-21.728-37.359-34-69.4-34.153a89.789,89.789,0,0,0-43.823,10.876c-17.781,9.7-27.6,24.346-27.6,40.441,0,27.637,31.531,49.883,70.621,49.883Z"/>
    <path id="Path_60" data-name="Path 60" class="cls-2" d="M702.5,121.436c15.443,0,29.968-2.872,41.552-8.407,18.11-8.653,29.108-22.822,29.222-38.006.185-24.4-29.114-44.82-68.7-44.82a115.746,115.746,0,0,0-37.185,6.138C646.505,43.471,634,60.923,634,76.935c0,24.4,28.907,44.5,68.495,44.5Z"/>
    <path id="Path_61" data-name="Path 61" class="cls-1" d="M654.6,74.209,655.584,71h-22l-.9,3.209Z"/>
    <path id="Path_62" data-name="Path 62" class="cls-1" d="M669.664,38.484h20.323l-1.116,3.108H672.533L668.708,54.5h15.939l-.638,2.47H667.831l-4.463,13.548h18.091l-.717,3.586h-22l10.918-35.625Z"/>
    <path id="Path_63" data-name="Path 63" class="cls-1" d="M713.178,57.531s1.355-8.448,4.782-12.512,5.818-5.18,5.818-5.18c1.992-1.754,10.44-4.384,15.62-1.2s6.7,7.045,5.9,14.664c-.717,6.774-5.26,12.991-5.26,12.991,0-.08-4.7,7.491-14.186,7.571,0,0-7.252.638-10.6-4.463s-2.072-11.875-2.072-11.875Z"/>
    <path id="Path_64" data-name="Path 64" class="cls-2" d="M732.784,40.317s8.129-.638,8.607,7.571a30.042,30.042,0,0,1-3.746,15.3S733.9,70.761,725.531,71c-7.408.212-8.208-5.18-8.208-5.18s-1.037-3.826.4-9.8c0,0,1.4-5.918,3.746-9.245,2.869-4.064,5.5-6.376,11.317-6.455Z"/>
    <path id="Path_65" data-name="Path 65" class="cls-1" d="M694.45,75.542h20.243l-1.116,3.148H697.518l-3.985,12.154h16.019l-.917,3.108H692.5l-3.964,13.469h18.429l-1.2,3.746H683.531L694.45,75.542Z"/>
    <path id="Path_66" data-name="Path 66" class="cls-1" d="M773.508,78.47l.744-3.645h-7.014l-.982,3.645Z"/>
    <path id="Path_67" data-name="Path 67" class="cls-1" d="M739.339,74.826l-1.214,3.548H749.09l-9.851,32.714,3.825-.08,9.643-32.617h9.325l1.142-3.565Z"/>
    <path id="Path_68" data-name="Path 68" class="cls-1" d="M707.759,111.167,718.6,75.542h12.751a7.174,7.174,0,0,1,6.854,7.333c.276,6.21-8.448,9.4-8.448,9.4s3.507.319,2.869,8.129-.318,10.52-.318,10.52h-4.145l.887-12.274s1.225-4.5-2.919-4.662-9.763,0-9.763,0l-5.059,17.175Z"/>
    <path id="Path_69" data-name="Path 69" class="cls-2" d="M717.324,90.805l3.7-12.114h9.684s6.216.358,3.485,6.9c-1.092,2.615-5.239,5.212-7.932,5.212Z"/>
    <path id="Path_70" data-name="Path 70" class="cls-1" d="M684.886,85.5s1.913-7.811-6.934-7.571a9.164,9.164,0,0,0-5.456,1.361,17.154,17.154,0,0,0-5.861,6.289s-2.072,2.072-3.745,8.448a35.971,35.971,0,0,0-.638,7.013c.071,3.112.478,7.492,7.97,7.572s9.245-5.739,9.245-5.739h4.462s-2.39,8.927-13.707,8.927c0,0-9.66.036-11.158-7.093A27.819,27.819,0,0,1,660.5,89.569s3.746-8.926,9.165-11.715a20.01,20.01,0,0,1,8.527-2.391c4.3,0,11.477,1.434,10.6,10.042Z"/>
    <path id="Path_71" data-name="Path 71" class="cls-1" d="M711.664,47.888s1.913-7.81-6.934-7.571a9.16,9.16,0,0,0-5.455,1.361,17.125,17.125,0,0,0-5.861,6.29s-2.073,2.072-3.746,8.447a36.063,36.063,0,0,0-.638,7.014c.071,3.111.478,7.491,7.97,7.571s9.245-5.738,9.245-5.738h4.463S708.317,74.188,697,74.188c0,0-9.661.036-11.158-7.093a27.815,27.815,0,0,1,1.435-15.142s3.746-8.927,9.165-11.716a20.01,20.01,0,0,1,8.527-2.391c4.3,0,11.477,1.435,10.6,10.042Z"/>
    <path id="Path_72" data-name="Path 72" class="cls-1" d="M765.073,116.831v-4.012h.405a4.24,4.24,0,0,1,1.765.221,1.884,1.884,0,0,1,1.045,1.778,1.971,1.971,0,0,1-.692,1.555,2.456,2.456,0,0,1-1.725.458Zm1.02.588a2.636,2.636,0,0,0,1.829-4.692,3.625,3.625,0,0,0-2.247-.5h-1.23v9.855h.628v-4.666h.314l3.215,4.666h.719l-3.228-4.666Z"/>
    <path id="Path_73" data-name="Path 73" class="cls-3" d="M766.338,124.174a7.1,7.1,0,1,0-7.1-7.1,7.1,7.1,0,0,0,7.1,7.1"/>
  </g>
</svg>
