<?xml version="1.0" encoding="utf-8"?>
<!-- Generator: Adobe Illustrator 23.0.2, SVG Export Plug-In . SVG Version: 6.00 Build 0)  -->
<svg version="1.1" id="Layer_1" xmlns="http://www.w3.org/2000/svg" xmlns:xlink="http://www.w3.org/1999/xlink" x="0px" y="0px"
	 viewBox="0 0 2042.8 803.7" style="enable-background:new 0 0 2042.8 803.7;" xml:space="preserve">
<style type="text/css">
	.st0{fill:#A5A4A4;}
</style>
<g>
	<g>
		<g>
			<path class="st0" d="M336,191.7c22.5-7.5,46.5-11.5,71.4-11.5c109,0,200,77.4,220.8,180.3L782.7,329
				c-35.4-174.8-190-306.4-375.3-306.4c-42.5,0-83.2,6.9-121.4,19.7L336,191.7z"/>
			<path class="st0" d="M153.7,692.3l104.5-118.1c-46.6-41.3-76-101.6-76-168.8c0-67.1,29.4-127.4,76-168.6L153.6,118.7
				C74.4,188.9,24.5,291.3,24.5,405.5C24.5,519.6,74.5,622.2,153.7,692.3"/>
			<path class="st0" d="M628.2,450.7c-20.9,102.8-111.8,180.1-220.7,180.1c-25,0-49.1-4-71.5-11.6l-50,149.6
				c38.2,12.7,79,19.6,121.5,19.6c185.1,0,339.6-131.4,375.2-306L628.2,450.7z"/>
		</g>
	</g>
	<path class="st0" d="M917.8,579.2c-5.1-8.2-11.9-21.3-16.1-31c-24.5-56.8-25.6-115.6-5-172c22.7-61.9,66.1-109.2,122.2-133.4
		c70.5-30.3,148.4-24.4,216,15.7c42.9,24.6,73.3,62.6,96.4,116.4c2.9,6.9,5.5,14.2,8.1,20.5L917.8,579.2z M1058.6,334.1
		c-50.1,21.5-75.9,68.5-70.5,123.5l212-91.3C1163.6,323.5,1116.1,309.3,1058.6,334.1z M1226.5,532.6c-0.1,0-0.1,0.1-0.1,0.1l-4.4-3
		c-12.7,20.5-32.4,37.2-57.3,48c-47.4,20.6-91.3,15.3-122.9-12.4l-2.9,4.4c0,0,0-0.1-0.1-0.1L985,650.2
		c13.4,9.3,27.7,17.1,42.7,23.4c59.4,24.7,120.2,23.5,180.1-2.5c43.3-18.8,77.3-47.4,100.5-83.7L1226.5,532.6z"/>
	<path class="st0" d="M1486.7,124.4v447.4l69.6,28.2l-39.5,92.2l-76.8-32c-17.2-7.5-29-18.9-37.8-31.8
		c-8.5-13.1-14.8-31.2-14.8-55.4V124.4H1486.7z"/>
	<g>
		<path class="st0" d="M1666.9,457.8c0-38.1,16.9-72.3,43.5-95.5l-71.4-79.6c-48.4,42.8-78.9,105.3-78.9,174.9
			c-0.1,69.7,30.4,132.3,78.7,175.1l71.3-79.6C1683.6,529.9,1666.9,495.8,1666.9,457.8z"/>
		<path class="st0" d="M1793.7,584.8c-14,0-27.6-2.4-40.2-6.6l-34.1,101.3c23.3,7.8,48.2,12.1,74.2,12.1
			c113,0.1,207.3-80.1,229.2-186.6L1918,483.6C1906.1,541.4,1855,584.8,1793.7,584.8z"/>
		<path class="st0" d="M1794,224.2c-25.9,0-50.8,4.2-74.1,11.9l33.8,101.4c12.7-4.2,26.2-6.5,40.2-6.5
			c61.4,0.1,112.6,43.7,124.2,101.7l104.8-21.2C2001.3,304.7,1907.1,224.3,1794,224.2z"/>
	</g>
</g>
</svg>
