<svg xmlns="http://www.w3.org/2000/svg" viewBox="0 0 50 50">
  <defs>
    <style>
      .cls-1, .cls-4 {
        fill: #ffd500;
      }

      .cls-2 {
        fill: none;
      }

      .cls-3, .cls-4 {
        stroke: none;
      }
    </style>
  </defs>
  <g id="em-tabletes" transform="translate(-6147 -6995)">
    <g id="noun_pills_868941" transform="translate(6148 6998.132)">
      <g id="Group_2222" data-name="Group 2222" transform="translate(16.124 22.663)">
        <path id="Path_1167" data-name="Path 1167" class="cls-1" d="M27.6,65.465a5.6,5.6,0,1,1,3.178-.993A5.611,5.611,0,0,1,27.6,65.465Zm-.008-10.112A4.51,4.51,0,1,0,31.307,57.3,4.479,4.479,0,0,0,27.593,55.353Z" transform="translate(-21.996 -54.26)"/>
      </g>
      <g id="Group_2223" data-name="Group 2223" transform="translate(19.805 25.73)">
        <path id="Path_1168" data-name="Path 1168" class="cls-1" d="M37.4,69.423a.543.543,0,0,1-.448-.236l-2.744-3.974a.546.546,0,1,1,.9-.621l2.744,3.974a.546.546,0,0,1-.451.857Z" transform="translate(-34.111 -64.355)"/>
      </g>
      <g id="Group_2224" data-name="Group 2224" transform="translate(24.504 11.864)">
        <path id="Path_1169" data-name="Path 1169" class="cls-1" d="M55.171,29.933h0a5.6,5.6,0,1,1,4.615-2.419A5.564,5.564,0,0,1,55.171,29.933ZM55.18,19.82a4.509,4.509,0,0,0-.009,9.018h0a4.509,4.509,0,1,0,.009-9.018Z" transform="translate(-49.573 -18.727)"/>
      </g>
      <g id="Group_2225" data-name="Group 2225" transform="translate(28.189 14.932)">
        <path id="Path_1170" data-name="Path 1170" class="cls-1" d="M62.244,33.891a.547.547,0,0,1-.45-.858l2.744-3.974a.546.546,0,1,1,.9.621l-2.744,3.974A.541.541,0,0,1,62.244,33.891Z" transform="translate(-61.698 -28.822)"/>
      </g>
      <g id="Group_2226" data-name="Group 2226" transform="translate(13.56 8.868)">
        <path id="Path_1171" data-name="Path 1171" class="cls-1" d="M17.836,17.432h0a4.281,4.281,0,1,1,3.528-1.848A4.259,4.259,0,0,1,17.836,17.432Zm.006-7.471a3.189,3.189,0,0,0-1.815,5.813,3.276,3.276,0,0,0,4.438-.812,3.19,3.19,0,0,0-2.623-5Z" transform="translate(-13.56 -8.868)"/>
      </g>
      <g id="Group_2227" data-name="Group 2227" transform="translate(16.281 11.135)">
        <path id="Path_1172" data-name="Path 1172" class="cls-1" d="M23.061,20.356a.546.546,0,0,1-.451-.857l2.027-2.935a.547.547,0,1,1,.9.621l-2.027,2.935A.542.542,0,0,1,23.061,20.356Z" transform="translate(-22.513 -16.327)"/>
      </g>
    </g>
    <g id="Path_1639" data-name="Path 1639" class="cls-2" transform="translate(6147 6995)">
      <path class="cls-3" d="M25,0A25,25,0,1,1,0,25,25,25,0,0,1,25,0Z"/>
      <path class="cls-4" d="M 25 1 C 21.75958061218262 1 18.61661911010742 1.634418487548828 15.65842056274414 2.885631561279297 C 12.80064010620117 4.094371795654297 10.23387908935547 5.825000762939453 8.029441833496094 8.029441833496094 C 5.825000762939453 10.23387908935547 4.094371795654297 12.80064010620117 2.885631561279297 15.65842056274414 C 1.634418487548828 18.61661911010742 1 21.75958061218262 1 25 C 1 28.24041938781738 1.634418487548828 31.38338088989258 2.885631561279297 34.34157943725586 C 4.094371795654297 37.19935989379883 5.825000762939453 39.76612091064453 8.029441833496094 41.97055816650391 C 10.23387908935547 44.17499923706055 12.80064010620117 45.90563201904297 15.65842056274414 47.1143684387207 C 18.61661911010742 48.36558151245117 21.75958061218262 49 25 49 C 28.24041938781738 49 31.38338088989258 48.36558151245117 34.34157943725586 47.1143684387207 C 37.19935989379883 45.90563201904297 39.76612091064453 44.17499923706055 41.97055816650391 41.97055816650391 C 44.17499923706055 39.76612091064453 45.90563201904297 37.19935989379883 47.1143684387207 34.34157943725586 C 48.36558151245117 31.38338088989258 49 28.24041938781738 49 25 C 49 21.75958061218262 48.36558151245117 18.61661911010742 47.1143684387207 15.65842056274414 C 45.90563201904297 12.80064010620117 44.17499923706055 10.23387908935547 41.97055816650391 8.029441833496094 C 39.76612091064453 5.825000762939453 37.19935989379883 4.094371795654297 34.34157943725586 2.885631561279297 C 31.38338088989258 1.634418487548828 28.24041938781738 1 25 1 M 25 0 C 38.80712127685547 0 50 11.19287872314453 50 25 C 50 38.80712127685547 38.80712127685547 50 25 50 C 11.19287872314453 50 0 38.80712127685547 0 25 C 0 11.19287872314453 11.19287872314453 0 25 0 Z"/>
    </g>
  </g>
</svg>
