<svg xmlns="http://www.w3.org/2000/svg" viewBox="0 0 40.5 40.5">
  <defs>
    <style>
      .cls-1 {
        fill: #fe264a;
        stroke: #fff;
        stroke-width: 0.5px;
      }
    </style>
  </defs>
  <path id="entrar" class="cls-1" d="M-2406.478,273a4.354,4.354,0,0,1-4.348-4.348v-8.7a.87.87,0,0,1,.87-.87.87.87,0,0,1,.869.87v8.7a2.612,2.612,0,0,0,2.609,2.609h19.13a2.612,2.612,0,0,0,2.609-2.609v-31.3a2.612,2.612,0,0,0-2.609-2.609h-19.13a2.612,2.612,0,0,0-2.609,2.609v8.7a.87.87,0,0,1-.87.87.87.87,0,0,1-.87-.87v-8.7a4.354,4.354,0,0,1,4.348-4.348h19.13a4.354,4.354,0,0,1,4.348,4.348v31.3a4.354,4.354,0,0,1-4.348,4.348Zm-.615-12.428a.87.87,0,0,1,0-1.23l5.473-5.473h-20.51a.87.87,0,0,1-.87-.87.87.87,0,0,1,.87-.869h20.51l-5.473-5.471a.87.87,0,0,1,0-1.23.87.87,0,0,1,1.229,0l6.951,6.951a.915.915,0,0,1,.193.29.812.812,0,0,1,.03.143.822.822,0,0,1,.038.186.808.808,0,0,1-.03.144.857.857,0,0,1-.038.188.87.87,0,0,1-.188.283l-6.957,6.957a.866.866,0,0,1-.614.254A.874.874,0,0,1-2407.094,260.572Z" transform="translate(2423.25 -232.75)"/>
</svg>
