<?xml version="1.0" encoding="utf-8"?>
<!-- Generator: Adobe Illustrator 23.0.3, SVG Export Plug-In . SVG Version: 6.00 Build 0)  -->
<svg version="1.1" id="Layer_1" xmlns="http://www.w3.org/2000/svg" xmlns:xlink="http://www.w3.org/1999/xlink" x="0px" y="0px"
	 viewBox="0 0 1366 455.62" style="enable-background:new 0 0 1366 455.62;" xml:space="preserve">
<style type="text/css">
	.st0{fill:#FFFFFF;}
</style>
<g>
	<g>
		<path class="st0" d="M84.2,192.7C42.29,192.7,0,163.99,0,99.85S43.53,7,86.67,7c37.49,0,65.95,21.61,76.13,57.81l1.22,4.34
			l-37.48,9.77l-1.47-3.56c-8.29-20.1-20.85-29.87-38.4-29.87c-28.32,0-45.23,20.33-45.23,54.37c0,34.55,16.21,54.37,44.49,54.37
			c19.98,0,30.09-11.65,33.41-24.01H88.18V94.69h72.08v96.03h-35.16l-1.83-12.53C115.81,185.41,103.51,192.7,84.2,192.7z
			 M86.67,15.84c-38.74,0-77.83,25.98-77.83,84.01c0,58.03,37.85,84.01,75.37,84.01c22.71,0,33.75-11.6,38.3-18.51l6.38-9.69
			l3.84,26.23h18.69v-78.35h-54.4v17.83h32.71l-0.63,4.97c-2.14,16.94-14.74,36.72-43.16,36.72c-33.4,0-53.33-23.63-53.33-63.21
			c0-46.6,27.93-63.21,54.07-63.21c20.13,0,35.26,10.69,45.03,31.8l21.27-5.54C142.89,32.92,118.96,15.84,86.67,15.84z"/>
	</g>
	<g>
		<path class="st0" d="M331.92,190.72h-44l-12.6-40.75H227l-12.6,40.75h-44L231.93,8.98h38.44L331.92,190.72z M294.43,181.88h25.16
			L264.04,17.82h-25.77l-55.55,164.07h25.16l12.6-40.75h61.35L294.43,181.88z M275.4,120.32h-48.48l24.24-79.61L275.4,120.32z
			 M238.84,111.48h24.63l-12.31-40.43L238.84,111.48z"/>
	</g>
	<g>
		<path class="st0" d="M481.08,190.72h-40.86l-56.46-101.5v101.5H342.8V8.98h40.86l56.46,101.5V8.98h40.95V190.72z M445.42,181.88
			h26.82V17.82h-23.27v126.73l-70.5-126.73h-26.82v164.07h23.27V55.14L445.42,181.88z"/>
	</g>
	<g>
		<path class="st0" d="M649.77,190.72h-40.95v-77.56h-60.32v77.56h-40.95V8.98h40.95v65.71h60.32V8.98h40.95V190.72z M617.65,181.88
			h23.27V17.82h-23.27v65.71h-78V17.82h-23.27v164.07h23.27v-77.56h78V181.88z"/>
	</g>
	<g>
		<path class="st0" d="M794.49,190.72H676.23V8.98h115.8v38.48h-74.85v27.47h60.02v38.48h-60.02v38.84h77.32V190.72z M685.07,181.88
			h100.59v-20.8h-77.32v-56.51h60.02v-20.8h-60.02V38.62h74.85v-20.8h-98.12V181.88z"/>
	</g>
	<g>
		<path class="st0" d="M73.58,448.62c-43.14,0-68.89-26.95-68.89-72.1V264.9h40.95v112.11c0,22.91,8.62,33.12,27.94,33.12
			s27.94-10.22,27.94-33.12V264.9h40.95v111.62C142.47,421.67,116.72,448.62,73.58,448.62z M13.53,273.74v102.78
			c0,40.8,21.32,63.26,60.05,63.26s60.05-22.47,60.05-63.26V273.74h-23.27v103.28c0,34.68-20,41.96-36.78,41.96
			S36.8,411.7,36.8,377.02V273.74H13.53z"/>
	</g>
	<g>
		<path class="st0" d="M331.42,446.65h-40.95v-86.07l-25.58,70.26h-29.41l-25.58-70.26v86.07h-40.95V264.9h43.54l37.7,99.85
			l37.7-99.85h43.54V446.65z M299.3,437.81h23.27V273.74h-28.59l-43.81,116.03l-43.81-116.03h-28.59v164.07h23.27V310.46L241.66,422
			h17.03l40.61-111.54V437.81z"/>
	</g>
	<g>
		<path class="st0" d="M505.79,446.65h-44.01l-12.59-40.75h-48.32l-12.6,40.75h-44l61.54-181.74h38.44L505.79,446.65z M468.3,437.81
			h25.17l-55.55-164.07h-25.77l-55.55,164.07h25.16l12.6-40.75h61.35L468.3,437.81z M449.27,376.25h-48.48l24.24-79.61
			L449.27,376.25z M412.72,367.41h24.62l-12.31-40.43L412.72,367.41z"/>
	</g>
	<g>
		<path class="st0" d="M742.37,446.65h-40.95v-86.07l-25.58,70.26h-29.41l-25.58-70.26v86.07h-40.95V264.9h43.54l37.7,99.85
			l37.7-99.85h43.54V446.65z M710.26,437.81h23.27V273.74h-28.59l-43.81,116.03l-43.81-116.03h-28.59v164.07h23.27V310.46
			L652.62,422h17.03l40.61-111.54V437.81z"/>
	</g>
	<g>
		<path class="st0" d="M916.75,446.65h-44.01l-12.59-40.75h-48.32l-12.6,40.75h-44l61.54-181.74h38.44L916.75,446.65z
			 M879.26,437.81h25.17l-55.55-164.07H823.1l-55.55,164.07h25.16l12.6-40.75h61.35L879.26,437.81z M860.23,376.25h-48.48
			l24.24-79.61L860.23,376.25z M823.68,367.41h24.62l-12.31-40.43L823.68,367.41z"/>
	</g>
	<g>
		<path class="st0" d="M1065.91,446.65h-40.86l-56.46-101.5v101.5h-40.95V264.9h40.86l56.46,101.5V264.9h40.96V446.65z
			 M1030.25,437.81h26.82V273.74h-23.28v126.73L963.3,273.74h-26.82v164.07h23.27V311.07L1030.25,437.81z"/>
	</g>
	<g>
		<path class="st0" d="M1173.57,446.65h-40.95V303.38h-47.92V264.9h136.79v38.48h-47.92V446.65z M1141.46,437.81h23.27V294.54h47.92
			v-20.8h-119.11v20.8h47.92V437.81z"/>
	</g>
	<g>
		<path class="st0" d="M1366,446.65h-44.01l-12.59-40.75h-48.32l-12.6,40.75h-44l61.54-181.74h38.44L1366,446.65z M1328.51,437.81
			h25.17l-55.55-164.07h-25.77l-55.55,164.07h25.16l12.6-40.75h61.35L1328.51,437.81z M1309.48,376.25H1261l24.24-79.61
			L1309.48,376.25z M1272.93,367.41h24.62l-12.31-40.43L1272.93,367.41z"/>
	</g>
</g>
</svg>
