<svg xmlns="http://www.w3.org/2000/svg" viewBox="0 0 20.859 20">
  <defs>
    <style>
      .cls-1 {
        fill: #fff;
      }
    </style>
  </defs>
  <g id="Group_2576" data-name="Group 2576" transform="translate(-33.317 -34.004)">
    <path id="Path_1289" data-name="Path 1289" class="cls-1" d="M34.764,50.91v8.481c.028.336.227.95,1.32.95H52.5a1.247,1.247,0,0,0,.968-.5h0v0a1.172,1.172,0,0,0,.171-.66V50.91Z" transform="translate(-0.542 -6.337)"/>
    <path id="Path_1290" data-name="Path 1290" class="cls-1" d="M53.171,38.765H44.56a8.091,8.091,0,0,1,1.185-.55c.989-.4,2.1-.838,2.47-1.756a1.974,1.974,0,0,0-.121-1.576A1.264,1.264,0,0,0,46.943,34c-1.111,0-2.293,1.857-3.2,3.7-.9-1.846-2.084-3.7-3.195-3.7a1.264,1.264,0,0,0-1.155.879,1.949,1.949,0,0,0-.116,1.576c.361.918,1.478,1.36,2.462,1.756a7.476,7.476,0,0,1,1.188.55H34.117a.857.857,0,0,0-.8.971v2.917a.788.788,0,0,0,.9.767H53.1a.977.977,0,0,0,1.08-.885v-2.8A.928.928,0,0,0,53.171,38.765Zm-6.228-3.729c.024,0,.115.069.214.282a.974.974,0,0,1,.093.761c-.2.5-1.1.862-1.889,1.178-.091.034-.184.074-.274.109C45.96,35.772,46.66,35.036,46.943,35.036Zm-4.816,2.221c-.79-.316-1.689-.675-1.889-1.178a.977.977,0,0,1,.1-.761c.1-.213.187-.282.215-.282.279,0,.986.736,1.854,2.33C42.317,37.331,42.22,37.291,42.127,37.257Z"/>
  </g>
</svg>
