<svg id="Layer_1" data-name="Layer 1" xmlns="http://www.w3.org/2000/svg" viewBox="0 0 388.48 115.11"><defs><style>.cls-1{fill:#fff;}.cls-2{fill:none;stroke:#fff;}</style></defs><title>guiadepresentes</title><path class="cls-1" d="M503.09,384.65q-6.73,0-10.4-4.06T489,369V341.83q0-7.21,3.8-11.12t10.86-3.9q6.76,0,10,3.64T517,341.67h-4.62q0-5.22-2.25-8.05a7.71,7.71,0,0,0-6.39-2.83c-3.4,0-5.92.91-7.57,2.71s-2.47,4.6-2.47,8.37V369q0,5.94,2.55,8.79t7.89,2.85a21.77,21.77,0,0,0,8.24-1.44V359.71h-7.92v-4H517v26.13Q511.7,384.65,503.09,384.65Z" transform="translate(-489.03 -326.81)"/><path class="cls-1" d="M556.31,372.06q0,6.06-3.62,9.32t-10.36,3.27q-6.74,0-10.36-3.27t-3.62-9.32V327.65H533v43.62c0,3.18.77,5.55,2.31,7.09s3.9,2.31,7.09,2.31,5.54-.77,7.07-2.31,2.29-3.91,2.29-7.09V327.65h4.58Z" transform="translate(-489.03 -326.81)"/><path class="cls-1" d="M567.94,327.65h4.62v56.16h-4.62Z" transform="translate(-489.03 -326.81)"/><path class="cls-1" d="M594.83,327.65h5.1l14.58,56.16h-4.77l-3.87-15.69H588.81L585,383.81h-4.78Zm-5,36.48h15.07l-7.55-30.67h-.06Z" transform="translate(-489.03 -326.81)"/><path class="cls-1" d="M640.29,327.65h11.23q9.53,0,13.27,3.32t3.74,11.81V368q0,8.83-3.74,12.31t-13.27,3.46H640.29Zm4.62,52.18h6.61q7.05,0,9.72-2.53t2.67-9.22V342.82c0-4.25-.89-7.17-2.67-8.78s-5-2.41-9.72-2.41h-6.61Z" transform="translate(-489.03 -326.81)"/><path class="cls-1" d="M679.76,383.81V327.65h22.43v4H684.38V353h16.9v4h-16.9v22.87h18.29v4Z" transform="translate(-489.03 -326.81)"/><path class="cls-2" d="M574.77,384.42h11.47q9,0,12,3.08t3,12.37q0,9.48-3,12.65t-12,3.17h-6.85v24.9h-4.62Zm4.62,27.28h6.85q6.18,0,8.25-2.35c1.38-1.56,2.07-4.7,2.07-9.4s-.69-7.7-2.07-9.24-4.13-2.31-8.25-2.31h-6.85Z" transform="translate(-489.03 -326.81)"/><path class="cls-2" d="M609.46,384.42h11.72q9.15,0,12.23,3t3.06,11.92q0,7.37-3.3,10.15a12,12,0,0,1-5.58,2.31,9.42,9.42,0,0,1,6,2.35q2.5,2.43,2.43,7.73-.09,5,.2,9.42t.95,9.31h-4.71q-.6-4.86-.81-9.35t-.06-9.38q.12-4.26-2.13-6.23c-1.5-1.32-3.92-2-7.27-2h-8.08v26.93h-4.63Zm4.63,25.25h7.09c4.27,0,7.12-.71,8.54-2.15s2.13-4.3,2.13-8.6-.71-7-2.13-8.41-4.27-2.11-8.54-2.11h-7.09Z" transform="translate(-489.03 -326.81)"/><path class="cls-2" d="M647.19,440.59V384.42h22.43v4H651.81v21.35H668.7v4H651.81V436.6H670.1v4Z" transform="translate(-489.03 -326.81)"/><path class="cls-2" d="M698.45,398.44c0-3.77-.65-6.53-2-8.27s-3.4-2.61-6.26-2.61a7.7,7.7,0,0,0-5.68,2,7.62,7.62,0,0,0-2,5.65,11.65,11.65,0,0,0,1.84,6.46q1.78,2.78,7.53,8,7,6.42,9.28,9.72a13.14,13.14,0,0,1,2.18,7.37q0,6.85-3.59,10.74t-9.91,3.88q-6.9,0-9.94-3.76t-3-12.25h4.38q0,6.38,2.09,9.2c1.39,1.89,3.66,2.83,6.79,2.83a8,8,0,0,0,6.33-2.59,10.54,10.54,0,0,0,2.27-7.17,9.08,9.08,0,0,0-1.71-5.42,62.11,62.11,0,0,0-7.81-8q-6.63-6-9-9.68a14.17,14.17,0,0,1-2.34-7.84q0-6.22,3.27-9.7t9.08-3.49q6.81,0,9.84,3.49t3,11.37Z" transform="translate(-489.03 -326.81)"/><path class="cls-2" d="M713.64,440.59V384.42h22.42v4h-17.8v21.35h16.89v4H718.26V436.6h18.28v4Z" transform="translate(-489.03 -326.81)"/><path class="cls-2" d="M749.65,440.59h-4.78V384.42h6.45l19.44,47.91V384.42h4.78v56.17h-6.37l-19.52-48.12Z" transform="translate(-489.03 -326.81)"/><path class="cls-2" d="M795.9,388.4H782.79v-4h30.83v4h-13.1v52.19H795.9Z" transform="translate(-489.03 -326.81)"/><path class="cls-2" d="M820.87,440.59V384.42H843.3v4H825.5v21.35h16.89v4H825.5V436.6h18.28v4Z" transform="translate(-489.03 -326.81)"/><path class="cls-2" d="M872.14,398.44q0-5.65-2-8.27t-6.27-2.61a7.69,7.69,0,0,0-5.67,2,7.58,7.58,0,0,0-2.05,5.65,11.64,11.64,0,0,0,1.83,6.46q1.8,2.78,7.53,8,7.05,6.42,9.28,9.72A13.06,13.06,0,0,1,877,426.8q0,6.85-3.58,10.74t-9.92,3.88q-6.88,0-9.94-3.76t-3-12.25h4.39c0,4.25.69,7.32,2.09,9.2s3.65,2.83,6.79,2.83a8,8,0,0,0,6.33-2.59,10.54,10.54,0,0,0,2.27-7.17,9.09,9.09,0,0,0-1.72-5.42,62.11,62.11,0,0,0-7.81-8q-6.61-6-9-9.68a14.24,14.24,0,0,1-2.33-7.84q0-6.22,3.26-9.7t9.09-3.49q6.81,0,9.83,3.49t3,11.37Z" transform="translate(-489.03 -326.81)"/></svg>