<svg xmlns="http://www.w3.org/2000/svg" viewBox="0 0 36.615 17.999">
  <defs>
    <style>
      .cls-1 {
        fill: #f44336;
      }
    </style>
  </defs>
  <path id="Shape_15" data-name="Shape 15" class="cls-1" d="M0,18c.006-.065.01-.122.02-.178q.4-2.215.8-4.429.349-1.933.7-3.866Q2,6.852,2.486,4.176c.1-.567.208-1.133.331-1.7a2.869,2.869,0,0,1,1.35-1.9A4.045,4.045,0,0,1,5.752.052,4.079,4.079,0,0,1,6.339.017q4.376,0,8.749,0,4.6,0,9.2-.007L36.486,0h.129c-.018.124-.031.235-.05.346q-.337,1.854-.677,3.71-.41,2.251-.816,4.5-.3,1.638-.6,3.276c-.223,1.223-.441,2.448-.674,3.671a2.922,2.922,0,0,1-.7,1.4,3.038,3.038,0,0,1-1.508.891,4.781,4.781,0,0,1-1.291.19H12.329q-4.581,0-9.165,0Q1.637,18,.109,18ZM10.417,7.363c-.112.8-.221,1.608-.348,2.41-.194,1.221-.4,2.44-.606,3.659a.8.8,0,0,0,0,.092h.793c.107-.792.216-1.58.327-2.4l.06.105a.689.689,0,0,0,.41.394,2,2,0,0,0,.568.078,1.723,1.723,0,0,0,1.319-.683,3.148,3.148,0,0,0,.524-1.108,3.5,3.5,0,0,0,.122-1.859,1.111,1.111,0,0,0-.467-.7,1.584,1.584,0,0,0-1.644-.013,4.267,4.267,0,0,0-.4.274c.02-.13.037-.248.06-.391-.2,0-.384.007-.563,0h-.018C10.461,7.222,10.431,7.261,10.417,7.363ZM31.2,7.155a1.877,1.877,0,0,0-1.472,1.086,4.056,4.056,0,0,0-.44,2.323,1.114,1.114,0,0,0,.676,1.011,1.836,1.836,0,0,0,1.307,0,1.01,1.01,0,0,0,.5-.419c.042-.066.086-.129.145-.216-.028.229-.05.429-.075.641h.721c.164-2.105.571-4.153.905-6.236-.259,0-.506,0-.755,0-.018,0-.046.053-.049.083-.031.207-.052.415-.081.622-.057.408-.117.815-.177,1.226l-.067-.011a2.361,2.361,0,0,0-.789-.136A2.527,2.527,0,0,0,31.2,7.155Zm-9.823.081a1.66,1.66,0,0,0-.928.732,3.605,3.605,0,0,0-.51,1.432A2.93,2.93,0,0,0,20,10.867a1.081,1.081,0,0,0,.671.719,2.918,2.918,0,0,0,1.822-.1c.026-.008.064-.034.068-.059.042-.207.078-.413.117-.62-.028,0-.033-.007-.036-.005a.281.281,0,0,0-.054.022,2.089,2.089,0,0,1-1.214.237A.8.8,0,0,1,21,10.887a.929.929,0,0,1-.3-.732A3.884,3.884,0,0,1,21,8.468a1.086,1.086,0,0,1,.807-.718,2.169,2.169,0,0,1,.905.049c.13.03.259.075.405.117.033-.212.06-.414.093-.614.011-.075-.02-.1-.081-.107-.081-.006-.161-.014-.241-.025a6.1,6.1,0,0,0-.672-.043A2.951,2.951,0,0,0,21.38,7.235ZM15.519,7.2a1.784,1.784,0,0,0-1.258,1.046,4.409,4.409,0,0,0-.4,2.121,1.393,1.393,0,0,0,.353.9,1.441,1.441,0,0,0,1.044.417,4.859,4.859,0,0,0,1.4-.154c.216-.051.216-.051.254-.292.024-.154.052-.306.08-.464-.033,0-.042-.007-.047,0a2.739,2.739,0,0,1-1.42.294.88.88,0,0,1-.863-.977c0-.24.026-.477.039-.717,0-.086.036-.129.12-.129.228,0,.454-.017.682-.017.571,0,1.143,0,1.713.013.086,0,.138-.019.148-.128.029-.3.08-.6.09-.894a.972.972,0,0,0-.669-.988,2.3,2.3,0,0,0-.672-.1A2.541,2.541,0,0,0,15.519,7.2Zm8.614,1.7a1.5,1.5,0,0,0-.851.793,2.092,2.092,0,0,0-.151,1.1.864.864,0,0,0,.674.827,3.113,3.113,0,0,0,.643.051,1.3,1.3,0,0,0,1.011-.521c.055-.072.111-.139.181-.226-.015.2-.033.374-.039.549,0,.034.034.1.052.1.208.007.415,0,.622,0a.372.372,0,0,0,.011-.065,19.566,19.566,0,0,1,.291-2.429,6.314,6.314,0,0,0,.133-1.163.666.666,0,0,0-.306-.573,1.882,1.882,0,0,0-1.1-.224c-.361.014-.721.066-1.083.093-.19.015-.19.005-.234.21-.034.164-.067.327-.1.507.213-.051.4-.1.594-.139a2.272,2.272,0,0,1,1.089-.032.457.457,0,0,1,.383.522c-.013.116-.029.232-.039.349-.008.092-.042.122-.127.12-.119,0-.236,0-.355,0-.182,0-.365,0-.547,0H24.81A1.9,1.9,0,0,0,24.133,8.9ZM4.21,5.472c-.021,0-.055.053-.06.086-.05.308-.1.618-.142.924-.111.771-.21,1.544-.332,2.31-.137.866-.293,1.728-.441,2.591-.01.062-.015.125-.023.2.291,0,.568,0,.845,0,.026,0,.065-.052.073-.088.028-.146.044-.293.065-.439.12-.792.243-1.587.36-2.382.016-.1.052-.131.145-.13q.628,0,1.255,0c.314,0,.628,0,.943,0,.037,0,.075,0,.132.007-.166,1.014-.33,2.016-.5,3.034.306,0,.583,0,.86-.005.028,0,.072-.07.078-.111.114-.76.22-1.521.339-2.28.19-1.2.389-2.408.584-3.61,0-.034.008-.065.013-.113-.293,0-.573,0-.855,0-.024,0-.062.066-.068.105Q7.31,6.7,7.147,7.827c-.013.083-.042.109-.112.109-.757,0-1.512,0-2.268-.006a.542.542,0,0,1-.1-.017c.132-.817.264-1.624.4-2.445H4.718C4.547,5.467,4.378,5.468,4.21,5.472ZM18.287,7.226c-.021,0-.055.042-.06.07-.029.188-.049.377-.078.566q-.205,1.351-.415,2.7c-.052.333-.116.665-.177,1.022.264,0,.5,0,.741-.005.024,0,.065-.072.07-.113a21.462,21.462,0,0,1,.4-2.585,1.607,1.607,0,0,1,.513-.89.583.583,0,0,1,.446-.181c.166.019.332.03.5.045.029-.164.055-.333.09-.5a.114.114,0,0,0-.081-.152.972.972,0,0,0-1.158.366c-.078.105-.153.214-.251.352.041-.251.075-.467.111-.7C18.71,7.223,18.5,7.223,18.287,7.226Zm9.31.124c-.037.32-.075.639-.124.957q-.22,1.389-.449,2.774c-.026.161-.055.323-.086.505.262,0,.511,0,.762,0,.018,0,.049-.056.052-.088.01-.09,0-.184.011-.274.088-.614.174-1.228.273-1.841a2.419,2.419,0,0,1,.448-1.211.775.775,0,0,1,.583-.352c.177,0,.355.022.545.035.028-.172.06-.364.086-.555a.114.114,0,0,0-.055-.077.916.916,0,0,0-1.089.24c-.116.127-.218.269-.339.42.034-.221.067-.426.1-.657-.213,0-.4.005-.589,0h-.006C27.638,7.22,27.609,7.259,27.6,7.35ZM8.978,7.241c-.023,0-.059.06-.065.1-.026.166-.041.336-.067.5-.122.812-.243,1.624-.371,2.433-.068.432-.148.862-.226,1.311.257,0,.506,0,.755,0,.021,0,.054-.064.059-.1.039-.277.068-.553.111-.827q.193-1.254.394-2.507c.049-.3.1-.6.158-.91H9.473C9.306,7.235,9.142,7.236,8.978,7.241ZM9.1,6.272c.055.226.278.237.48.195a.638.638,0,0,0,.4-.646,1.112,1.112,0,0,0-.039-.238c-.064-.175-.2-.183-.347-.186H9.583C9.143,5.4,9.016,5.931,9.1,6.272ZM11.064,11a.723.723,0,0,1-.321-.686c.037-.48.125-.956.194-1.431.031-.21.063-.421.106-.629a.386.386,0,0,1,.1-.18,1.065,1.065,0,0,1,1.28-.249.843.843,0,0,1,.4.767c.008.1,0,.207,0,.312a3.543,3.543,0,0,1-.425,1.661,1.04,1.04,0,0,1-.912.542A.844.844,0,0,1,11.064,11Zm13.314.073a.567.567,0,0,1-.488-.652,1.065,1.065,0,0,1,.747-1.1,2.789,2.789,0,0,1,.718-.045c.12,0,.243.006.365,0,.02,0,.065.062.062.086a3.682,3.682,0,0,1-.318,1.141,1.033,1.033,0,0,1-.788.569.886.886,0,0,1-.157.014A.643.643,0,0,1,24.377,11.077Zm5.931-.207a.976.976,0,0,1-.21-.6c0-.076,0-.149,0-.222a3.43,3.43,0,0,1,.43-1.733,1.048,1.048,0,0,1,.7-.56,1.669,1.669,0,0,1,1.044.118.122.122,0,0,1,.037.1c-.124.718-.243,1.438-.383,2.151a1.186,1.186,0,0,1-.531.818,1.023,1.023,0,0,1-.537.153A.72.72,0,0,1,30.308,10.87ZM14.847,8.723a1.079,1.079,0,0,1,.946-1.012,1.249,1.249,0,0,1,.593.056.56.56,0,0,1,.332.567c0,.13-.023.258-.036.389Z" transform="translate(0 0)"/>
</svg>
