<svg xmlns="http://www.w3.org/2000/svg" viewBox="0 0 89.94 124.215">
  <defs>
    <style>
      .cls-1, .cls-5, .cls-6 {
        fill: #fff;
      }

      .cls-2 {
        fill: #ee621d;
      }

      .cls-3 {
        fill: #15734a;
      }

      .cls-4 {
        fill: #5bb245;
      }

      .cls-5 {
        font-size: 35.351px;
      }

      .cls-5, .cls-6 {
        font-family: Arial-Black, Arial;
        font-weight: 800;
        letter-spacing: -0.028em;
      }

      .cls-6 {
        font-size: 7.575px;
      }
    </style>
  </defs>
  <g id="Group_9" data-name="Group 9" transform="translate(-689.27 -330)">
    <rect id="Rectangle_1" data-name="Rectangle 1" class="cls-1" width="87.11" height="117.95" rx="22.249" transform="translate(690.319 330.665)"/>
    <g id="Group_8" data-name="Group 8">
      <circle id="Ellipse_1" data-name="Ellipse 1" class="cls-2" cx="27.655" cy="27.655" r="27.655" transform="translate(706.464 349.479)"/>
      <path id="Path_16" data-name="Path 16" class="cls-3" d="M770.432,330H698.047a8.8,8.8,0,0,0-8.777,8.778V441.222A8.8,8.8,0,0,0,698.047,450h72.385a8.8,8.8,0,0,0,8.778-8.778V338.778A8.8,8.8,0,0,0,770.432,330Zm-70.942,1.925h69.5a8.8,8.8,0,0,1,8.778,8.778v41.481H690.713V340.7A8.8,8.8,0,0,1,699.49,331.925Z"/>
      <g id="Group_7" data-name="Group 7">
        <g id="Group_6" data-name="Group 6">
          <path id="Path_17" data-name="Path 17" class="cls-2" d="M699.852,371.438l.707-1.473a3.027,3.027,0,0,1,1.046.652,2.151,2.151,0,0,1,.557.93,3.062,3.062,0,0,1,.044,1.3,3.6,3.6,0,0,1-.5,1.476,2.463,2.463,0,0,1-1.128.875,3.437,3.437,0,0,1-1.856.166,3.146,3.146,0,0,1-2.133-1.079,3.375,3.375,0,0,1,.223-3.871,2.675,2.675,0,0,1,1.512-.715l.13,1.608a1.4,1.4,0,0,0-.418.114,1.059,1.059,0,0,0-.373.314,1.1,1.1,0,0,0,.181,1.453,2.184,2.184,0,0,0,1.122.409,2.265,2.265,0,0,0,1.381-.092.985.985,0,0,0,.48-.756.968.968,0,0,0-.182-.806A1.83,1.83,0,0,0,699.852,371.438Z"/>
          <path id="Path_18" data-name="Path 18" class="cls-2" d="M696.884,368.381l1.448-4.545,1.209.385-.907,2.845.9.288.842-2.641,1.153.368-.84,2.64,1.115.355.933-2.928,1.281.409-1.474,4.627Z"/>
          <path id="Path_19" data-name="Path 19" class="cls-2" d="M704.09,365.381l-5.291-2.7,1.347-2.644a4.157,4.157,0,0,1,.7-1.059,1.361,1.361,0,0,1,.8-.38,1.872,1.872,0,0,1,1.647.768,1.647,1.647,0,0,1,.263.764,2.147,2.147,0,0,1-.075.664,1.757,1.757,0,0,1,.406-.313,1.7,1.7,0,0,1,.407-.111,2.326,2.326,0,0,1,.441-.057l1.925.014-.912,1.793-2.05.022a1.405,1.405,0,0,0-.554.081.736.736,0,0,0-.321.325l-.071.14,2.147,1.094Zm-2.336-3.2.341-.67a2.554,2.554,0,0,0,.142-.457.459.459,0,0,0-.036-.342.615.615,0,0,0-.728-.3,1.05,1.05,0,0,0-.44.521l-.354.7Z"/>
          <path id="Path_20" data-name="Path 20" class="cls-2" d="M701.55,357.412l3.2-4.363,1.184.865-1.074,1.465,3.607,2.644-1.052,1.436-3.607-2.644-1.074,1.464Z"/>
          <path id="Path_21" data-name="Path 21" class="cls-2" d="M705.342,352.49l1.214-1.306,4.352,4.041-1.215,1.307Z"/>
          <path id="Path_22" data-name="Path 22" class="cls-2" d="M707.4,350.275l3.335-2.873.833.967-1.98,1.706.678.786,1.691-1.457.781.909-1.689,1.457,1.583,1.837-1.355,1.166Z"/>
          <path id="Path_23" data-name="Path 23" class="cls-2" d="M711.55,346.875l1.471-1.009,3.356,4.9-1.473,1.006Z"/>
          <path id="Path_24" data-name="Path 24" class="cls-2" d="M719.077,346.488l1.61-.284a3.016,3.016,0,0,1,.078,1.232,2.168,2.168,0,0,1-.432.994,3.089,3.089,0,0,1-1.028.789,3.618,3.618,0,0,1-1.492.453,2.464,2.464,0,0,1-1.368-.408,3.444,3.444,0,0,1-1.215-1.414,3.142,3.142,0,0,1-.363-2.362,3.375,3.375,0,0,1,3.279-2.071,2.669,2.669,0,0,1,1.461.814l-1.231,1.04a1.4,1.4,0,0,0-.336-.272,1.01,1.01,0,0,0-.955,0,1.039,1.039,0,0,0-.6.87,2.18,2.18,0,0,0,.321,1.152,2.278,2.278,0,0,0,.877,1.07.989.989,0,0,0,.9-.05.976.976,0,0,0,.551-.616A1.851,1.851,0,0,0,719.077,346.488Z"/>
          <path id="Path_25" data-name="Path 25" class="cls-2" d="M724.741,345.936l-1.931.592.018,1.02-1.736.533.326-6.312,1.855-.57,3.814,5.041-1.782.548Zm-.729-1.12-1.235-1.854.025,2.226Z"/>
          <path id="Path_26" data-name="Path 26" class="cls-2" d="M726.083,340.424l2.619-.361a3.07,3.07,0,0,1,1.282.042,2.071,2.071,0,0,1,.874.513,2.614,2.614,0,0,1,.582.881,4.5,4.5,0,0,1,.3,1.12,4.105,4.105,0,0,1-.006,1.492,2.446,2.446,0,0,1-.458.952,1.9,1.9,0,0,1-.729.576,4,4,0,0,1-1.028.306l-2.621.362Zm1.947,1.089.446,3.214.431-.059a1.78,1.78,0,0,0,.769-.236.855.855,0,0,0,.3-.493,2.852,2.852,0,0,0-.008-1.039,2.03,2.03,0,0,0-.473-1.238,1.242,1.242,0,0,0-1.028-.211Z"/>
          <path id="Path_27" data-name="Path 27" class="cls-2" d="M732.17,342.605a3.114,3.114,0,0,1,.877-2.23,2.9,2.9,0,0,1,2.22-.721,2.958,2.958,0,0,1,2.181.885,3.054,3.054,0,0,1,.688,2.26,3.766,3.766,0,0,1-.409,1.692,2.451,2.451,0,0,1-1.025.995,3.151,3.151,0,0,1-1.614.307,3.6,3.6,0,0,1-1.6-.385,2.469,2.469,0,0,1-.992-1.054A3.45,3.45,0,0,1,732.17,342.605Zm1.777.081a2.035,2.035,0,0,0,.273,1.3,1.2,1.2,0,0,0,1.767.079,2.245,2.245,0,0,0,.37-1.367,1.867,1.867,0,0,0-.277-1.237,1.114,1.114,0,0,0-.874-.424,1.072,1.072,0,0,0-.88.358A2.058,2.058,0,0,0,733.947,342.686Z"/>
          <path id="Path_28" data-name="Path 28" class="cls-2" d="M740.782,343.287a3.113,3.113,0,0,1,1.4-1.947,2.908,2.908,0,0,1,2.328-.155,2.951,2.951,0,0,1,1.9,1.393,3.058,3.058,0,0,1,.113,2.36,3.74,3.74,0,0,1-.812,1.54,2.464,2.464,0,0,1-1.236.715,3.163,3.163,0,0,1-1.641-.1,3.594,3.594,0,0,1-1.455-.766,2.456,2.456,0,0,1-.705-1.265A3.447,3.447,0,0,1,740.782,343.287Zm1.7.515a2.034,2.034,0,0,0-.056,1.33,1.2,1.2,0,0,0,1.7.511,2.252,2.252,0,0,0,.693-1.235,1.883,1.883,0,0,0,.036-1.267,1.107,1.107,0,0,0-.745-.625,1.071,1.071,0,0,0-.94.13A2.052,2.052,0,0,0,742.486,343.8Z"/>
          <path id="Path_29" data-name="Path 29" class="cls-2" d="M745.793,347.924l2.656-5.313,2.655,1.328a4.215,4.215,0,0,1,1.062.694,1.341,1.341,0,0,1,.387.8,1.872,1.872,0,0,1-.756,1.651,1.618,1.618,0,0,1-.762.269,2.09,2.09,0,0,1-.664-.069,1.777,1.777,0,0,1,.317.4,1.906,1.906,0,0,1,.114.407,2.347,2.347,0,0,1,.058.441v1.925l-1.8-.9-.04-2.049a1.369,1.369,0,0,0-.084-.554.729.729,0,0,0-.328-.319l-.14-.071-1.078,2.157Zm3.18-2.361.671.335a2.459,2.459,0,0,0,.458.139.462.462,0,0,0,.341-.037.616.616,0,0,0,.294-.731,1.041,1.041,0,0,0-.525-.435l-.7-.35Z"/>
          <path id="Path_30" data-name="Path 30" class="cls-2" d="M754.151,350.293l.735-.994,2.212,1.635-1.5,2.037a5.717,5.717,0,0,1-1.573-.223,4.626,4.626,0,0,1-1.277-.695,3.4,3.4,0,0,1-1.131-1.283,2.441,2.441,0,0,1-.168-1.459,3.633,3.633,0,0,1,.686-1.528,3.524,3.524,0,0,1,1.318-1.13,2.558,2.558,0,0,1,1.565-.2,3.616,3.616,0,0,1,1.439.7,4.3,4.3,0,0,1,1.043.993,1.851,1.851,0,0,1,.3.912,2.489,2.489,0,0,1-.186,1.042l-1.569-.765a.976.976,0,0,0,.017-.628,1.1,1.1,0,0,0-.415-.527,1.148,1.148,0,0,0-1-.218,2.065,2.065,0,0,0-1.068.86,2.13,2.13,0,0,0-.535,1.318,1.217,1.217,0,0,0,.543.915,1.8,1.8,0,0,0,.512.266,2.965,2.965,0,0,0,.679.124l.332-.449Z"/>
          <path id="Path_31" data-name="Path 31" class="cls-2" d="M758.391,355.735,757,354.268l-.905.469-1.249-1.32,5.8-2.51,1.334,1.41-2.825,5.654-1.281-1.354Zm.679-1.151,1.114-1.93-1.984,1.011Zm2.963-4.425.781.825-.242,1.431-.67-.709.121-.774-.78.078-.67-.707Z"/>
          <path id="Path_32" data-name="Path 32" class="cls-2" d="M763.969,354.576l.909,1.392-1.562,3.614,2.749-1.8.919,1.4-4.97,3.251-.918-1.4,1.548-3.59-2.729,1.785-.916-1.4Z"/>
          <path id="Path_33" data-name="Path 33" class="cls-2" d="M767.507,360.359l.774,1.608-5.352,2.574-.774-1.606Z"/>
          <path id="Path_34" data-name="Path 34" class="cls-2" d="M766.749,367.818l.046,1.633a3.009,3.009,0,0,1-1.229-.1,2.158,2.158,0,0,1-.92-.572,3.053,3.053,0,0,1-.632-1.132,3.591,3.591,0,0,1-.232-1.541,2.457,2.457,0,0,1,.6-1.294,3.437,3.437,0,0,1,1.575-1,3.137,3.137,0,0,1,2.39-.015,3.376,3.376,0,0,1,1.572,3.543,2.663,2.663,0,0,1-1.018,1.329l-.851-1.371a1.416,1.416,0,0,0,.32-.292,1.076,1.076,0,0,0-.637-1.66,2.182,2.182,0,0,0-1.185.15,2.269,2.269,0,0,0-1.186.714.987.987,0,0,0-.082.892.973.973,0,0,0,.531.634A1.835,1.835,0,0,0,766.749,367.818Z"/>
          <path id="Path_35" data-name="Path 35" class="cls-2" d="M767.856,369.494a3.116,3.116,0,0,1,2.357.438,2.9,2.9,0,0,1,1.13,2.042,2.954,2.954,0,0,1-.454,2.309,3.057,3.057,0,0,1-2.088,1.105,3.773,3.773,0,0,1-1.739-.079,2.483,2.483,0,0,1-1.173-.816,3.161,3.161,0,0,1-.607-1.528,3.6,3.6,0,0,1,.074-1.643,2.477,2.477,0,0,1,.846-1.176A3.472,3.472,0,0,1,767.856,369.494Zm.259,1.761a2.04,2.04,0,0,0-1.228.515,1.2,1.2,0,0,0,.258,1.751,2.261,2.261,0,0,0,1.414.1,1.876,1.876,0,0,0,1.161-.51,1.107,1.107,0,0,0,.249-.937,1.069,1.069,0,0,0-.518-.8A2.038,2.038,0,0,0,768.115,371.255Z"/>
        </g>
      </g>
      <path id="Path_36" data-name="Path 36" class="cls-4" d="M703.578,382.786s13.107-13.828,24.65-13.828,20.561,12.144,28.016,12.505,7.094.24,7.094.24-8.9,13.948-22.245,13.948S712.717,379.9,703.578,382.786Z"/>
      <text id="IBD" class="cls-5" transform="translate(702.015 388.215)"><tspan x="0" y="39">IBD</tspan></text>
      <text id="www.ibd.com.br" class="cls-6" transform="translate(703.458 440.5)"><tspan x="0" y="0">www.ibd.com.br</tspan></text>
    </g>
  </g>
</svg>
