<svg xmlns="http://www.w3.org/2000/svg" viewBox="0 0 135.158 96.882">
  <defs>
    <style>
      .cls-1 {
        font-size: 21.711px;
        font-family: SegoeUI, Segoe UI;
        letter-spacing: 0.028em;
      }
    </style>
  </defs>
  <g id="Group_52" data-name="Group 52" transform="translate(-445.877 -74.438)">
    <g id="Group_11" data-name="Group 11">
      <path id="Path_37" data-name="Path 37" d="M463.656,82.406s-3.709,1.91-2.366,7.281c1.82,7.282,8.555,5.1,8.737,8.192.075,1.272-5.461,8.01-4.915,11.468s3.1,4.915,2.913,8.556-6.021,5.35-6.917,10.012c-.911,4.733-2.913,5.461-2.913,5.461s11.1,5.279,12.925-2.548-1.821-3.459-2-6.918-.364-6.189,1.821-7.827,2.366-5.461,3.458-4.915,9.83,6.917,10.922,13.652-4,12.015-4,12.015,10.922-3.1,10.558-13.653a16.981,16.981,0,0,0-9.284-14.563s-3.641-1.456,2.366-5.643,9.1-8.374,8.92-10.922-1.456-4.187-6.553-5.825-2.549-4.187-2.549-4.187-7.463,6.189-.91,11.286,2.549,6.007-2.366,8.556-7.1,5.1-8.01,6.917-.364,2.913-3.094,2.731-1.275-6.736,1.092-10.922,5.188-10.509-1.275-13.471C465.841,85.136,464.02,85.683,463.656,82.406Z"/>
      <path id="Path_38" data-name="Path 38" d="M525.549,82.952s5.1,2.549,2.73,5.279-1.092,6.007-6.189,6.007-7.464-7.1-11.1-7.281-6.008,3.459-6.008,4.915-2.548,6.553,7.828,11.1,15.837,8.556,14.381,15.655-6.736,10.922-8.01,17.658c0,0-11.468-9.466-15.837-8.01s.182,7.282.182,7.282-11.832-2.913-6.917-9.648,5.643-5.279,9.284-5.1,12.924,7.281,12.924,7.281,3.823.182,4.187-5.1-8.92-12.378-15.109-13.289a29.089,29.089,0,0,0-10.012,0,16.138,16.138,0,0,1,1.456-5.461c1.275-2.548,0-8.555.728-11.468s2.549-10.922,10.194-10.558,6.918,5.1,10.194,4.733S524.638,87.139,525.549,82.952Z"/>
      <g id="Group_10" data-name="Group 10">
        <path id="Path_39" data-name="Path 39" d="M564.14,121.544c.182-4.187-2.731-6.19-3.094-8.192s0-13.107-.911-19.842-10.011-5.1-16.565-5.1-4.915-5.279-4.915-5.279c-4.187,4-4.005,8.192-2.73,10.74s6.553,2.549,5.825,5.1-3.823,3.641-4.733,8.192,1.456,12.014,2.731,13.288,2.73,4.915-2.913,4.733-3.823,3.823-4.551,7.282c-.62,2.946-1.5,2.853-1.747,2.761,3.507,1.765,12.487.151,12.487.151,3.094-7.1.728-9.83.364-14.745s6.736-6.007,8.556-5.643S560.682,121,560.682,121l1.638,16.747c.364-.364,5.1-7.1,5.1-7.1C564.869,131.374,563.958,125.731,564.14,121.544Zm-5.1-17.112v11.651c-7.1-5.1-11.1-3.1-13.288-1.639s-5.461,3.641-6.007.546,2-18.2,11.1-17.475S559.043,104.432,559.043,104.432Z"/>
        <path id="Path_40" data-name="Path 40" d="M530.537,135.227c-.023-.011-.051-.019-.073-.031C530.464,135.2,530.494,135.211,530.537,135.227Z"/>
      </g>
    </g>
    <text id="KOSHER" class="cls-1" transform="translate(464.936 166.32)"><tspan x="0" y="0">KOSHER</tspan></text>
    <path id="Path_41" data-name="Path 41" d="M445.877,74.438v71.411H581.035V74.438Zm133.88,70.307H447.038v-69.2H579.757Z"/>
  </g>
</svg>
