<svg xmlns="http://www.w3.org/2000/svg" xmlns:xlink="http://www.w3.org/1999/xlink" viewBox="0 0 176 58">
  <defs>
    <style>
      .cls-1 {
        fill: url(#linear-gradient);
      }
    </style>
    <linearGradient id="linear-gradient" x1="0.5" x2="0.753" y2="1" gradientUnits="objectBoundingBox">
      <stop offset="0" stop-color="#fc3c53"/>
      <stop offset="1" stop-color="#f46361"/>
    </linearGradient>
  </defs>
  <path id="Path_1039" data-name="Path 1039" class="cls-1" d="M15.6-21.84a10.967,10.967,0,0,1,5.46,1.38,9.909,9.909,0,0,1,3.86,3.88,11.714,11.714,0,0,1,1.4,5.82,11.714,11.714,0,0,1-1.4,5.82,9.909,9.909,0,0,1-3.86,3.88A10.967,10.967,0,0,1,15.6.32a8.311,8.311,0,0,1-6.48-2.6V7.76H2.88V-21.52H8.84v2.48A8.276,8.276,0,0,1,15.6-21.84ZM14.52-4.8a5.2,5.2,0,0,0,3.94-1.62A6.039,6.039,0,0,0,20-10.76a6.039,6.039,0,0,0-1.54-4.34,5.2,5.2,0,0,0-3.94-1.62,5.2,5.2,0,0,0-3.94,1.62,6.039,6.039,0,0,0-1.54,4.34,6.039,6.039,0,0,0,1.54,4.34A5.2,5.2,0,0,0,14.52-4.8Zm37.04-5.88q0,.12-.12,1.68H35.16a5.07,5.07,0,0,0,2.08,3.16,6.889,6.889,0,0,0,4.08,1.16,8.262,8.262,0,0,0,2.98-.5,7.218,7.218,0,0,0,2.42-1.58l3.32,3.6Q47,.32,41.16.32A14.047,14.047,0,0,1,34.72-1.1,10.409,10.409,0,0,1,30.4-5.04a10.856,10.856,0,0,1-1.52-5.72,11,11,0,0,1,1.5-5.7,10.509,10.509,0,0,1,4.12-3.96,12.1,12.1,0,0,1,5.86-1.42,12,12,0,0,1,5.72,1.36,9.927,9.927,0,0,1,4.02,3.9A11.629,11.629,0,0,1,51.56-10.68ZM40.4-17.12a5.374,5.374,0,0,0-3.56,1.2,5.108,5.108,0,0,0-1.76,3.28h10.6a5.159,5.159,0,0,0-1.76-3.26A5.261,5.261,0,0,0,40.4-17.12Zm21.28-1.56a6.939,6.939,0,0,1,3.02-2.36,11.209,11.209,0,0,1,4.38-.8v5.76q-1.04-.08-1.4-.08a5.72,5.72,0,0,0-4.2,1.5,6.062,6.062,0,0,0-1.52,4.5V0H55.72V-21.52h5.96ZM80.12.32a20.9,20.9,0,0,1-5.24-.66A13.69,13.69,0,0,1,70.8-2l2.08-4.48a13.091,13.091,0,0,0,3.48,1.5,14.585,14.585,0,0,0,4,.58q3.96,0,3.96-1.96a1.387,1.387,0,0,0-1.08-1.32,16,16,0,0,0-3.32-.68,32.028,32.028,0,0,1-4.36-.92,6.764,6.764,0,0,1-2.98-1.84,5.232,5.232,0,0,1-1.26-3.76A5.89,5.89,0,0,1,72.5-18.5a7.594,7.594,0,0,1,3.44-2.46,14.692,14.692,0,0,1,5.34-.88,20.958,20.958,0,0,1,4.54.5,12.69,12.69,0,0,1,3.74,1.38l-2.08,4.44a12.417,12.417,0,0,0-6.2-1.6,6.308,6.308,0,0,0-3,.56,1.646,1.646,0,0,0-1,1.44,1.43,1.43,0,0,0,1.08,1.4,19.119,19.119,0,0,0,3.44.76,36.823,36.823,0,0,1,4.32.94,6.49,6.49,0,0,1,2.92,1.82,5.164,5.164,0,0,1,1.24,3.68,5.683,5.683,0,0,1-1.2,3.56,7.66,7.66,0,0,1-3.5,2.42A15.593,15.593,0,0,1,80.12.32Zm24.24,0a12.9,12.9,0,0,1-6.1-1.42,10.556,10.556,0,0,1-4.22-3.94,10.856,10.856,0,0,1-1.52-5.72,10.856,10.856,0,0,1,1.52-5.72,10.556,10.556,0,0,1,4.22-3.94,12.9,12.9,0,0,1,6.1-1.42,12.785,12.785,0,0,1,6.08,1.42,10.589,10.589,0,0,1,4.2,3.94,10.856,10.856,0,0,1,1.52,5.72,10.856,10.856,0,0,1-1.52,5.72,10.589,10.589,0,0,1-4.2,3.94A12.785,12.785,0,0,1,104.36.32Zm0-5.12a5.2,5.2,0,0,0,3.94-1.62,6.039,6.039,0,0,0,1.54-4.34,6.039,6.039,0,0,0-1.54-4.34,5.2,5.2,0,0,0-3.94-1.62,5.262,5.262,0,0,0-3.96,1.62,5.993,5.993,0,0,0-1.56,4.34,5.993,5.993,0,0,0,1.56,4.34A5.262,5.262,0,0,0,104.36-4.8ZM133.4-21.84a8.856,8.856,0,0,1,6.46,2.4q2.46,2.4,2.46,7.12V0h-6.24V-11.36a5.61,5.61,0,0,0-1.12-3.82,4.107,4.107,0,0,0-3.24-1.26,4.966,4.966,0,0,0-3.76,1.46,6.045,6.045,0,0,0-1.4,4.34V0h-6.24V-21.52h5.96V-19a8.275,8.275,0,0,1,3.08-2.1A10.731,10.731,0,0,1,133.4-21.84Zm23.24,0q5,0,7.68,2.38T167-12.28V0h-5.84V-2.68q-1.76,3-6.56,3a10.181,10.181,0,0,1-4.3-.84,6.412,6.412,0,0,1-2.78-2.32,6.038,6.038,0,0,1-.96-3.36,5.607,5.607,0,0,1,2.26-4.72q2.26-1.72,6.98-1.72h4.96a3.977,3.977,0,0,0-1.24-3.14,5.462,5.462,0,0,0-3.72-1.1,10.862,10.862,0,0,0-3.38.54,8.942,8.942,0,0,0-2.82,1.46l-2.24-4.36a13.515,13.515,0,0,1,4.22-1.92A18.9,18.9,0,0,1,156.64-21.84Zm-.48,17.96A5.434,5.434,0,0,0,159-4.62a4.049,4.049,0,0,0,1.76-2.18V-9h-4.28q-3.84,0-3.84,2.52a2.244,2.244,0,0,0,.94,1.9A4.234,4.234,0,0,0,156.16-3.88Zm16.48-25.8h6.24V0h-6.24ZM46.88,6.48,37.8,28H31.36L22.32,6.48h6.44l5.96,14.64L40.88,6.48Zm2.56,0h6.24V28H49.44Zm3.12-3a3.958,3.958,0,0,1-2.8-1A3.243,3.243,0,0,1,48.68,0a3.243,3.243,0,0,1,1.08-2.48,3.958,3.958,0,0,1,2.8-1,4.057,4.057,0,0,1,2.8.96,3.078,3.078,0,0,1,1.08,2.4,3.4,3.4,0,0,1-1.08,2.58A3.912,3.912,0,0,1,52.56,3.48ZM67.44,9.32a6.939,6.939,0,0,1,3.02-2.36,11.209,11.209,0,0,1,4.38-.8v5.76q-1.04-.08-1.4-.08a5.72,5.72,0,0,0-4.2,1.5,6.062,6.062,0,0,0-1.52,4.5V28H61.48V6.48h5.96ZM93.2,26.96a6.414,6.414,0,0,1-2.26,1.02,11.426,11.426,0,0,1-2.82.34,8.378,8.378,0,0,1-5.94-1.96,7.5,7.5,0,0,1-2.1-5.76V11.76H76.76V6.96h3.32V1.72h6.24V6.96h5.36v4.8H86.32v8.76a2.938,2.938,0,0,0,.7,2.1,2.594,2.594,0,0,0,1.98.74,4.01,4.01,0,0,0,2.52-.8ZM118.4,6.48V28h-5.92V25.44a8.276,8.276,0,0,1-2.96,2.14,9.312,9.312,0,0,1-3.72.74,9.165,9.165,0,0,1-6.72-2.44q-2.48-2.44-2.48-7.24V6.48h6.24V17.72q0,5.2,4.36,5.2a4.687,4.687,0,0,0,3.6-1.46,6.159,6.159,0,0,0,1.36-4.34V6.48Zm14.48-.32q5,0,7.68,2.38t2.68,7.18V28H137.4V25.32q-1.76,3-6.56,3a10.181,10.181,0,0,1-4.3-.84,6.412,6.412,0,0,1-2.78-2.32,6.038,6.038,0,0,1-.96-3.36,5.607,5.607,0,0,1,2.26-4.72q2.26-1.72,6.98-1.72H137a3.977,3.977,0,0,0-1.24-3.14,5.462,5.462,0,0,0-3.72-1.1,10.862,10.862,0,0,0-3.38.54,8.942,8.942,0,0,0-2.82,1.46L123.6,8.76a13.515,13.515,0,0,1,4.22-1.92A18.9,18.9,0,0,1,132.88,6.16Zm-.48,17.96a5.434,5.434,0,0,0,2.84-.74A4.049,4.049,0,0,0,137,21.2V19h-4.28q-3.84,0-3.84,2.52a2.244,2.244,0,0,0,.94,1.9A4.234,4.234,0,0,0,132.4,24.12Zm16.48-25.8h6.24V28h-6.24Z" transform="translate(-2.88 29.68)"/>
</svg>
