<svg id="Group_2071" data-name="Group 2071" xmlns="http://www.w3.org/2000/svg" viewBox="0 0 149.204 110">
  <defs>
    <style>
      .cls-1, .cls-2 {
        fill: #fff;
      }

      .cls-1 {
        fill-rule: evenodd;
      }
    </style>
  </defs>
  <path id="Path_1056" data-name="Path 1056" class="cls-1" d="M149.012,87.162a9.716,9.716,0,0,1-4.111,6.213,12.975,12.975,0,0,1-7.857,2.467h-5.116a9.341,9.341,0,0,1-6.944-2.467,6.6,6.6,0,0,1-1.736-6.213,7.614,7.614,0,0,1,1.279-3.2H131.2c-.183.091-.457.274-.64.365a5.1,5.1,0,0,0-2.01,3.015,3.018,3.018,0,0,0,.822,2.924,4.855,4.855,0,0,0,3.38,1.1h5.116a6.755,6.755,0,0,0,3.837-1.1,4.655,4.655,0,0,0,2.01-2.924,3.253,3.253,0,0,0-.822-3.015,4.5,4.5,0,0,0-3.38-1.188H119.045l-2.375,12.7h-5.3l2.375-12.7H95.382l-.365,1.827h12.425l-4.294,4.385H94.1l-.365,2.01h13.248l-4.294,4.385H87.616l3.289-17.085h49.427c3.015,0,5.3.731,6.944,2.284a6.319,6.319,0,0,1,1.736,6.213Zm-60.939,1,1.553-9.41h-5.39l-1.553,9.41A3.567,3.567,0,0,1,80.673,91a10.782,10.782,0,0,1-4.02.548H72.085l-.731,4.477h4.568c7.218,0,11.238-2.649,12.151-7.857Zm-14.161-1a9.548,9.548,0,0,1-4.02,6.3,13.249,13.249,0,0,1-7.949,2.467H56.736a9.941,9.941,0,0,1-7.126-2.467,6.563,6.563,0,0,1-1.919-6.3,8.986,8.986,0,0,1,4.02-6.121,13.42,13.42,0,0,1,7.949-2.375h5.208c3.106,0,5.482.822,7.126,2.375a6.665,6.665,0,0,1,1.919,6.121Zm-9.776-4.02H58.929a6.184,6.184,0,0,0-3.837,1.188,4.578,4.578,0,0,0-1.919,3.015,3.154,3.154,0,0,0,.914,3.015,5.137,5.137,0,0,0,3.472,1.188h5.208A6.184,6.184,0,0,0,66.6,90.36a4.2,4.2,0,0,0,1.919-3.015,3.154,3.154,0,0,0-.914-3.015,4.865,4.865,0,0,0-3.472-1.188ZM24.668,84.878a4.959,4.959,0,0,0,0-2.01h14.8c2.193,0,3.2.64,2.924,2.01a2.113,2.113,0,0,1-1.37,1.553,5.709,5.709,0,0,1-2.284.365H24.028l-1.645,8.679h5.3l.822-4.294h7.309L40.2,95.476h7.674L42.666,90.36a8.891,8.891,0,0,0,3.563-2.284,6.43,6.43,0,0,0,1.736-3.289,4.6,4.6,0,0,0-1.827-4.934A10.942,10.942,0,0,0,39.925,78.3H6.852L2.467,82.685h14.8A2.634,2.634,0,0,1,19,83.234,1.4,1.4,0,0,1,19.46,84.7a2.072,2.072,0,0,1-1,1.462,3.378,3.378,0,0,1-1.919.548H1.645L0,95.567H5.3l.822-4.294h8.953a10.976,10.976,0,0,0,6.213-1.736A6.856,6.856,0,0,0,24.668,84.878Z" transform="translate(0 -6.763)"/>
  <path id="Path_1057" data-name="Path 1057" class="cls-1" d="M128.422,109.489a9.717,9.717,0,0,1-4.111,6.213,12.975,12.975,0,0,1-7.857,2.467H90.781l4.02-4.385h7.126l-3.289-6.121-9.684,10.6H81.279l-4.385-4.294H69.585l-.822,4.294h-5.3l1.645-8.679H79.817a5.709,5.709,0,0,0,2.284-.365,2.08,2.08,0,0,0,1.37-1.553c.274-1.37-.731-2.01-2.924-2.01H51.312l-.365,1.827H63.372l-4.294,4.385H50.033l-.365,2.01H62.915l-4.294,4.385H43.547l1.553-8.131-6.03,6.487q-1.782,1.919-3.289,1.919c-1,0-1.827-.64-2.558-1.919L25,101.175h6.578l5.573,10.6,9.593-10.507v-.091H81a10.942,10.942,0,0,1,6.213,1.553,4.461,4.461,0,0,1,1.827,4.934,7.2,7.2,0,0,1-1.736,3.289,8.891,8.891,0,0,1-3.563,2.284l1.736,1.736,10.781-11.786A6.776,6.776,0,0,1,98,101.815a5.018,5.018,0,0,1,2.1-.64,2.793,2.793,0,0,1,1.827.64,2.9,2.9,0,0,1,.914.914l1.37,2.558.183.365h0l3.654,7.035c.822,1.279,2.558,1.279,4.111,1.188h5.116a6.755,6.755,0,0,0,3.837-1.1,4.655,4.655,0,0,0,2.01-2.924,3.253,3.253,0,0,0-.822-3.015,4.5,4.5,0,0,0-3.38-1.188H113.8a6.184,6.184,0,0,0-3.837,1.188,5.1,5.1,0,0,0-2.01,3.015c0,.183-.091.457-.091.64l-2.832-5.482a9.18,9.18,0,0,1,1.736-1.462,13.278,13.278,0,0,1,7.857-2.284h5.116c3.015,0,5.3.731,6.944,2.284a5.972,5.972,0,0,1,1.736,5.939Zm-32.616-8.405a2.788,2.788,0,0,1,.64-.731,2.244,2.244,0,0,1,1.37-.457,9.755,9.755,0,0,1,2.375.548,10.581,10.581,0,0,0,3.015.548,5.737,5.737,0,0,0,1.736-.274,3.107,3.107,0,0,0,2.375-1.919h-.548a2.66,2.66,0,0,1-2.1,1.188,10.186,10.186,0,0,1-2.467-.548,9.6,9.6,0,0,0-3.015-.548q-3.289,0-4.111,2.193Z" transform="translate(-2.159 -8.534)"/>
  <path id="Path_1058" data-name="Path 1058" class="cls-1" d="M53.753,6.6H110.4c0,5.025.274,57.649,0,57.649h-7.857c-16.811,0-33.621.091-50.341.091V20.852H96.6v29.51H66.635V35.014h8.04v7.309H88.562V28.892H60.24V56.21h42.209V14.64H53.479a11.7,11.7,0,0,0,.822-4.385A9.591,9.591,0,0,0,53.753,6.6Z" transform="translate(-4.509 -0.57)"/>
  <path id="Intersection_2" data-name="Intersection 2" class="cls-2" d="M3.547,17.7H16.532a10.04,10.04,0,0,1-12.985,0Zm-1.7-1.851A10.011,10.011,0,0,1,.6,13.463H19.48a10.026,10.026,0,0,1-1.249,2.382ZM.086,11.356a10.189,10.189,0,0,1-.03-2.381H20.023a10.212,10.212,0,0,1,.056,1.063,10.106,10.106,0,0,1-.086,1.317ZM.511,6.869A9.985,9.985,0,0,1,1.673,4.488H18.406a9.994,9.994,0,0,1,1.162,2.381ZM3.548,2.381a10.041,10.041,0,0,1,12.983,0Z" transform="translate(27.409)"/>
</svg>
