<svg xmlns="http://www.w3.org/2000/svg" xmlns:xlink="http://www.w3.org/1999/xlink" viewBox="0 0 267.049 66.714"><defs><style>.a{fill:#24221e;fill-rule:evenodd;}.b{fill:url(#a);}</style><linearGradient id="a" x1="0.5" x2="0.5" y2="1" gradientUnits="objectBoundingBox"><stop offset="0" stop-color="#fe264a"/><stop offset="1" stop-color="#f60"/></linearGradient></defs><g transform="translate(-294 -70)"><g transform="translate(394.151 86.011)"><path class="a" d="M221.4,13.59a11.154,11.154,0,0,1-4.615,6.922,14.438,14.438,0,0,1-8.768,2.769h-5.768c-3.346,0-5.883-.923-7.729-2.769a7.44,7.44,0,0,1-1.961-6.922,9.639,9.639,0,0,1,1.384-3.576h7.383a2.414,2.414,0,0,0-.692.461,4.96,4.96,0,0,0-2.192,3.346,3.78,3.78,0,0,0,.923,3.346,5.606,5.606,0,0,0,3.807,1.269h5.768a7.46,7.46,0,0,0,4.268-1.269,4.723,4.723,0,0,0,2.192-3.346,3.683,3.683,0,0,0-.923-3.346,5.089,5.089,0,0,0-3.807-1.269H187.713L185.06,23.4h-5.884l2.653-14.19H161.3l-.346,2.077h13.844l-4.73,4.961H160.026l-.461,2.307h14.766l-4.73,4.961H152.643l3.692-19.15h55.374a11.12,11.12,0,0,1,7.845,2.653c1.73,1.5,2.423,3.807,1.846,6.576ZM153.22,14.744l1.73-10.613h-6l-1.73,10.613a3.568,3.568,0,0,1-2.307,3.115,10.724,10.724,0,0,1-4.5.692h-5.076l-.808,4.961h5.076c8.075,0,12.574-2.884,13.613-8.768ZM137.3,13.706a10.5,10.5,0,0,1-4.5,7.037,14.54,14.54,0,0,1-8.883,2.769h-5.884a11.144,11.144,0,0,1-7.96-2.769,7.772,7.772,0,0,1-2.192-7.037,10.275,10.275,0,0,1,4.5-6.922,15.251,15.251,0,0,1,8.883-2.653h5.884c3.461,0,6.114.923,7.96,2.653a7.1,7.1,0,0,1,2.192,6.922Zm-10.844-4.5h-5.768a7.341,7.341,0,0,0-4.384,1.384,5.183,5.183,0,0,0-2.192,3.461A3.447,3.447,0,0,0,115.15,17.4a5.715,5.715,0,0,0,3.922,1.269h5.768a7.46,7.46,0,0,0,4.268-1.269,4.722,4.722,0,0,0,2.192-3.346,3.747,3.747,0,0,0-1.038-3.461,4.727,4.727,0,0,0-3.807-1.384ZM82.272,11.168a6.974,6.974,0,0,0,0-2.192H98.884c2.538,0,3.576.808,3.346,2.307a2.225,2.225,0,0,1-1.615,1.73,5.868,5.868,0,0,1-2.538.461H81.58l-1.846,9.69h5.883l.923-4.845h8.191l4.845,4.845h8.652L102.46,17.4a9.264,9.264,0,0,0,3.922-2.538,6.816,6.816,0,0,0,1.961-3.692,5.021,5.021,0,0,0-2.077-5.537Q103.845,3.9,99.345,3.9c-12.344.115-24.688.115-37.031.115L57.469,8.976h16.5a3.3,3.3,0,0,1,1.961.577,1.606,1.606,0,0,1,.577,1.615,2.083,2.083,0,0,1-1.154,1.615,3.689,3.689,0,0,1-2.192.577H56.546L54.7,23.05h5.883l.923-4.845H71.543a13.169,13.169,0,0,0,7.037-1.961A7.345,7.345,0,0,0,82.272,11.168Z" transform="translate(-54.7 -3.9)"/><path class="a" d="M170.409,34.882a11.154,11.154,0,0,1-4.615,6.922,14.438,14.438,0,0,1-8.768,2.769H128.3l4.5-4.961h7.96l-3.692-6.922L126.225,44.457h-8.652l-4.845-4.845h-8.075l-.923,4.845H97.846l1.846-9.69h16.5a5.552,5.552,0,0,0,2.538-.461,2.425,2.425,0,0,0,1.615-1.73c.231-1.5-.808-2.307-3.346-2.307H84.118l-.346,2.077H97.615L92.885,37.3H82.849l-.461,2.307H97.154l-4.73,4.961H75.465l1.73-9.114-6.806,7.268C69,44.111,67.851,44.919,66.7,44.919s-2.077-.692-2.769-2.192L54.7,25.538h7.383L68.313,37.3,79.042,25.538v-.115h38.416q4.5,0,6.922,1.73a5.021,5.021,0,0,1,2.077,5.537,7.239,7.239,0,0,1-1.961,3.692,11.516,11.516,0,0,1-3.922,2.538l1.961,1.961,12-13.267a8.057,8.057,0,0,1,1.846-1.5,4.781,4.781,0,0,1,2.307-.692,3.722,3.722,0,0,1,2.077.692,4.406,4.406,0,0,1,1.038,1.038l1.5,2.884.231.461h0l4.153,7.845c.923,1.384,2.884,1.5,4.5,1.384h5.768a7.46,7.46,0,0,0,4.268-1.269,4.722,4.722,0,0,0,2.192-3.346,3.683,3.683,0,0,0-.923-3.346A5.089,5.089,0,0,0,159.68,30.5h-5.768a7.46,7.46,0,0,0-4.268,1.269,4.96,4.96,0,0,0-2.192,3.346c0,.231-.115.461-.115.692l-3.23-6.114a9.163,9.163,0,0,1,1.961-1.615,15.145,15.145,0,0,1,8.768-2.653H160.6a11.12,11.12,0,0,1,7.845,2.653c1.846,1.73,2.423,3.922,1.961,6.806Zm-36.455-9.46a6.908,6.908,0,0,1,.692-.808,2.441,2.441,0,0,1,1.615-.461,9.757,9.757,0,0,1,2.653.692,10.172,10.172,0,0,0,3.346.692,11.366,11.366,0,0,0,1.961-.231,3.531,3.531,0,0,0,2.653-2.192H146.3a2.806,2.806,0,0,1-2.307,1.269,9.349,9.349,0,0,1-2.769-.692A10.172,10.172,0,0,0,137.877,23c-2.423,0-3.922.808-4.615,2.423Z" transform="translate(-54.7 -0.966)"/></g><path class="a" d="M13.413,4H71.494c0,5.18.314,59.18,0,59.18H63.488c-17.267,0-34.378.157-51.488.157V18.756H57.523v30.3H26.756v-15.7h8.32v7.378H49.36V27.075h-29.2V55.017H63.488V12.32H13.256A11.26,11.26,0,0,0,14.2,7.767,16.117,16.117,0,0,0,13.413,4Z" transform="translate(304.134 73.378)"/><path class="b" d="M3.883,19.37H18.095a10.989,10.989,0,0,1-14.212,0ZM2.023,17.343A10.957,10.957,0,0,1,.656,14.736H21.322a10.974,10.974,0,0,1-1.367,2.607ZM.094,12.43A11.152,11.152,0,0,1,.061,9.824H21.917a11.178,11.178,0,0,1,.061,1.164,11.062,11.062,0,0,1-.094,1.442ZM.56,7.518A10.929,10.929,0,0,1,1.832,4.912H20.146a10.939,10.939,0,0,1,1.272,2.606ZM3.883,2.606a10.99,10.99,0,0,1,14.211,0Z" transform="translate(294 70)"/></g></svg>