<svg xmlns="http://www.w3.org/2000/svg" viewBox="0 0 200 72">
  <title>Vitrio</title>
  <style type="text/css">
                .st0 {
                  fill: #717171;
                }
  </style>
  <g>
    <path class="st0" d="M108.9,69.1h-7.9c-0.9,0-1.7-0.8-1.7-1.7V42.5c0-12.4,8.8-22.3,21.3-22.3h5.6v5.4c0,3.1-2.5,5-5.6,5   c-6.2,0-10,5-10,11.2v25.5C110.6,68.4,109.9,69.1,108.9,69.1"></path>
    <path class="st0" d="M172.4,69c-6.5,0-12.6-2.5-17.2-7.1c-4.6-4.6-7.1-10.7-7.1-17.2c0-6.5,2.5-12.6,7.1-17.2   c4.6-4.6,10.7-7.1,17.2-7.1c6.5,0,12.6,2.5,17.2,7.1c4.6,4.6,7.1,10.7,7.1,17.2c0,6.5-2.5,12.6-7.1,17.2   C185,66.5,178.9,69,172.4,69 M172.6,30c-8.3,0-15.1,6.8-15.1,15.1c0,8.3,6.8,15.1,15.1,15.1c8.3,0,15.1-6.8,15.1-15.1   C187.7,36.7,180.9,30,172.6,30"></path>
    <path class="st0" d="M104.9,13.8c0,6.2-5,10.2-11.2,10.2h-4.4v42.9c0,1.2-1,2.2-2.2,2.2h-7.3c-0.9,0-1.7-0.8-1.7-1.7V5.6   c0-1.2,1-2.2,2.2-2.2h9v10.4H104.9z"></path>
    <path class="st0" d="M139.3,69.1H132c-0.9,0-1.7-0.8-1.7-1.7v-45c0-1.2,1-2.2,2.2-2.2h9v46.6C141.6,68.1,140.6,69.1,139.3,69.1"></path>
    <path class="st0" d="M67.7,69.1h-7.3c-0.9,0-1.7-0.8-1.7-1.7v-45c0-1.2,1-2.2,2.2-2.2h9v46.6C69.9,68.1,68.9,69.1,67.7,69.1"></path>
    <path class="st0" d="M50.6,16.7c0,9.3-1.7,18.4-5.1,27.1c-3.4,8.6-8.3,16.4-14.7,23.6c-1,1.1-2.4,1.8-4,1.8c-1.5,0-2.9-0.6-4-1.8   c-6.4-7.2-11.3-15-14.7-23.6C5,35.1,3.2,26,3.2,16.7l0-13.6c0-1.3,1-2.3,2.3-2.3h8.3v15.8c0,8,1.5,15.8,4.4,23.3   c2.2,5.6,5.1,10.8,8.8,15.8c3.7-4.9,6.6-10.2,8.8-15.8c2.9-7.5,4.4-15.3,4.4-23.3V3.1c0-1.3,1-2.3,2.3-2.3h8.2L50.6,16.7z"></path>
  </g>
</svg>