<svg xmlns="http://www.w3.org/2000/svg" viewBox="0 0 27.653 24.707"><defs><style>.a{fill:#fe264a;stroke:#fe264a;stroke-width:0.6px;}</style></defs><g transform="translate(0.304 -23.822)"><g transform="translate(0 24.173)"><path class="a" d="M16.19,24.536c-5.972-1.618-14.139,2.312-14.409,9.015A14.769,14.769,0,0,0,.664,32.472a.4.4,0,0,0-.655.385,10.468,10.468,0,0,0,2.7,5.162.419.419,0,0,0,.578,0,9.534,9.534,0,0,0,1.7-5.047c.039-.308-.385-.5-.616-.347-.5.347-1.156.616-1.7,1a9.453,9.453,0,0,1,4.662-6.9,14.738,14.738,0,0,1,8.784-1.657C16.421,25.113,16.46,24.613,16.19,24.536ZM1.011,33.7c.27.231.5.424.771.655.039.039.077.039.116.077a.842.842,0,0,0,.193.116.292.292,0,0,0,.462.116l1.5-.925a8.25,8.25,0,0,1-1.117,3.313A10.413,10.413,0,0,1,1.011,33.7Z" transform="translate(0 -24.173)"/><path class="a" d="M84.577,286.054c-2.042.616-4.045,1.387-6.164,1.811a.388.388,0,0,0,0,.732c.925.154,1.811.424,2.7.578a15.059,15.059,0,0,1-3.968,2.5,14.768,14.768,0,0,1-5.779.886c-4.161-.116-7.821-2.312-8.938-6.434-.077-.27-.539-.231-.5.077.462,4.276,4.238,6.7,8.245,7.166,3.429.385,8.822-.308,11.365-3.236a4.906,4.906,0,0,0,.809,2.273.4.4,0,0,0,.694,0c1.194-1.734,1.464-3.891,2-5.856A.378.378,0,0,0,84.577,286.054ZM82.3,289.406a.546.546,0,0,0-.077-.231c.193-.385-.27-.655-.578-.424l-.039.038h-.039c-.539-.154-1.079-.347-1.618-.5,1.387-.347,2.774-.848,4.161-1.271a17.241,17.241,0,0,1-1.426,4.392A6.61,6.61,0,0,1,82.3,289.406Z" transform="translate(-58.024 -269.471)"/><path class="a" d="M289.111,39.981a7.305,7.305,0,0,1,1.541-1.541.393.393,0,0,0-.116-.732,23.831,23.831,0,0,0-5.471-.424.4.4,0,0,0-.27.693,24.618,24.618,0,0,1,2.928,4.7.42.42,0,0,0,.771-.193,14.242,14.242,0,0,1,.077-1.811c3.313,2.312,4.277,6.549,4.469,10.364,0,.347.462.308.5,0C293.927,47.07,292.54,42.292,289.111,39.981Zm-.732-.385c-.039.039-.077.039-.077.077a.45.45,0,0,0-.231.231.2.2,0,0,0-.077.154c-.039.347-.116.732-.154,1.079a22.974,22.974,0,0,0-1.926-3.082,22.1,22.1,0,0,1,3.583.231C289.111,38.709,288.765,39.172,288.38,39.6Z" transform="translate(-266.757 -36.459)"/></g></g></svg>