<svg xmlns="http://www.w3.org/2000/svg" viewBox="0 0 51.514 42.8">
  <defs>
    <style>
      .cls-1 {
        fill: none;
        stroke-linecap: round;
      }

      .cls-2, .cls-3 {
        stroke: none;
      }

      .cls-3 {
        fill: #fe264a;
      }
    </style>
  </defs>
  <g id="meu-clube" class="cls-1" transform="translate(1.502 1.5)">
    <path class="cls-2" d="M48.508,18.621,40.723,18.1c-.056-.352-.13-.7-.2-1.038l7.933-.741-.074-.741-8.007.76c-.241-1.094-.519-2.187-.816-3.262h0c2.057.63,3.448-1.594,1.779-1.872s-3.855-3.633-3.855-3.633h0a15.32,15.32,0,0,0-11.566-7.6,19.224,19.224,0,0,0-3.373,0,15.37,15.37,0,0,0-11.6,7.6h0s-2.187,3.355-3.855,3.633S6.8,13.691,8.86,13.079h0c-.3,1.038-.556,2.076-.778,3.133L.148,15.47l-.074.741,7.841.741c-.074.352-.148.7-.2,1.057L0,18.491l.056.741,7.525-.5c-.056.371-.13.741-.185,1.112L.408,21.253l.148.723,6.728-1.353a54.4,54.4,0,0,0-.519,7.618c0,.5,0,1,.019,1.483a20,20,0,0,0,34.847,0c.019-.5.019-.982.019-1.483a55.708,55.708,0,0,0-.5-7.507l6.821,1.372.148-.723-7.081-1.427c-.056-.371-.111-.741-.185-1.112l7.6.5ZM31.455,11.6a1.254,1.254,0,0,1,1.168,1.335,1.178,1.178,0,1,1-2.335,0A1.254,1.254,0,0,1,31.455,11.6ZM19.073,12.931l-.5.556a2.259,2.259,0,0,0-2.8.037l-.408-.63A3.016,3.016,0,0,1,19.073,12.931ZM33.587,23.9a5.1,5.1,0,0,1-4.059,2.02,6.138,6.138,0,0,1-1.946-.334,5.631,5.631,0,0,1-3.3-2.743,5.754,5.754,0,0,1-3.3,2.743,6.138,6.138,0,0,1-1.946.334,5.1,5.1,0,0,1-4.059-2.02,6.02,6.02,0,0,1-.463-7.21c-.13.037-.3.093-.482.167l-.278-.686a2.668,2.668,0,0,1,1.613-.26l.575.148-.408.445a5.349,5.349,0,0,0,.019,6.932,4.461,4.461,0,0,0,5.171,1.446c1.835-.63,3.17-2.132,3.17-3.559V17.565h.371c-1.39,0-2.539-.575-2.539-1.3s1.131-1.3,2.539-1.3c1.39,0,2.539.575,2.539,1.3s-1.131,1.3-2.539,1.3h.371v3.763c0,1.427,1.335,2.929,3.17,3.559a4.453,4.453,0,0,0,5.171-1.446,5.318,5.318,0,0,0,.019-6.932l-.408-.445.575-.148a2.668,2.668,0,0,1,1.613.26l-.278.686a3.771,3.771,0,0,0-.482-.167A5.975,5.975,0,0,1,33.587,23.9Z"/>
    <path class="cls-3" d="M 24.22614479064941 -0.09999465942382813 C 23.65153503417969 -0.09999465942382813 23.0954647064209 -0.0814666748046875 22.53939437866211 -0.02585601806640625 C 17.55329513549805 0.53021240234375 13.30862426757813 3.458854675292969 10.93605422973633 7.573772430419922 C 10.93605422973633 7.573772430419922 8.748844146728516 10.92873382568359 7.080635070800781 11.20677375793457 C 5.614120483398438 11.45118713378906 6.511459350585938 13.18556976318359 8.147567749023438 13.18556976318359 C 8.372600555419922 13.18556976318359 8.611286163330078 13.15283203125 8.860054016113281 13.07887268066406 C 8.563484191894531 14.11687278747559 8.303985595703125 15.15487289428711 8.081554412841797 16.21140289306641 L 0.148284912109375 15.46997261047363 L 0.07414627075195313 16.21140289306641 L 7.91473388671875 16.95283317565918 C 7.840595245361328 17.30501365661621 7.766452789306641 17.65719413757324 7.710845947265625 18.00936317443848 L -3.814697265625e-06 18.49129295349121 L 0.05560302734375 19.23272323608398 L 7.581092834472656 18.73225402832031 C 7.525485992431641 19.10297393798828 7.451343536376953 19.47368431091309 7.395732879638672 19.84440422058105 L 0.4077835083007813 21.25311279296875 L 0.5560646057128906 21.97600364685059 L 7.284523010253906 20.62289428710938 C 6.932342529296875 23.1066837310791 6.765525817871094 25.66460418701172 6.765525817871094 28.24106216430664 C 6.765525817871094 28.74152374267578 6.765525817871094 29.24198341369629 6.784053802490234 29.72391319274902 C 10.21316528320313 35.80362319946289 16.73772430419922 39.90000152587891 24.20760345458984 39.90000152587891 C 31.6774845123291 39.90000152587891 38.20204544067383 35.80361175537109 41.63114547729492 29.72391319274902 C 41.64968490600586 29.22345352172852 41.64968490600586 28.74152374267578 41.64968490600586 28.24106216430664 C 41.64968490600586 25.70167350769043 41.48286437988281 23.18082427978516 41.14921569824219 20.7341136932373 L 47.97034454345703 22.10575294494629 L 48.11862564086914 21.38285255432129 L 41.03800582885742 19.95561408996582 C 40.98239517211914 19.58489418029785 40.92678451538086 19.21418380737305 40.85264587402344 18.84347343444824 L 48.45226287841797 19.34393310546875 L 48.50788497924805 18.62104415893555 L 40.72290420532227 18.10204315185547 C 40.66729354858398 17.74986267089844 40.59315490722656 17.39768409729004 40.51900482177734 17.06404304504395 L 48.45227432250977 16.32261276245117 L 48.37813568115234 15.5811939239502 L 40.37071228027344 16.34115409851074 C 40.12975311279297 15.24754333496094 39.85171508789063 14.15394401550293 39.55515289306641 13.07887268066406 C 39.80844497680664 13.15645790100098 40.05180358886719 13.19079780578613 40.28040313720703 13.19079780578613 C 41.90872573852539 13.19079780578613 42.79741668701172 11.45057487487793 41.33457565307617 11.20677375793457 C 39.66636657714844 10.92873382568359 37.47915649414063 7.573772430419922 37.47915649414063 7.573772430419922 C 35.10658264160156 3.440322875976563 30.86191368103027 0.53021240234375 25.91289520263672 -0.02585601806640625 C 25.35681533813477 -0.0814666748046875 24.80074501037598 -0.09999465942382813 24.22614479064941 -0.09999465942382813 M 31.45505523681641 14.2651538848877 C 30.80630493164063 14.2651538848877 30.28730392456055 13.6720142364502 30.28730392456055 12.93058395385742 C 30.28730392456055 12.18916320800781 30.80630493164063 11.59602355957031 31.45505523681641 11.59602355957031 C 32.10380554199219 11.59602355957031 32.622802734375 12.18916320800781 32.622802734375 12.93058395385742 C 32.622802734375 13.6720142364502 32.10380554199219 14.2651538848877 31.45505523681641 14.2651538848877 M 18.57275390625 13.48665428161621 C 18.53645324707031 13.46246147155762 18.03395652770996 13.02748107910156 17.24611663818359 13.02748107910156 C 16.82704162597656 13.02748107910156 16.32737350463867 13.15043830871582 15.77386474609375 13.52373313903809 L 15.36608505249023 12.89351272583008 C 16.04084014892578 12.44367599487305 16.68527412414551 12.28192520141602 17.25031661987305 12.28192520141602 C 18.08223533630371 12.28192520141602 18.74206352233887 12.63254928588867 19.07321357727051 12.93058395385742 L 18.57275390625 13.48665428161621 M 29.4879035949707 25.17824363708496 C 30.85161590576172 25.17824363708496 32.08805847167969 24.57876396179199 32.9749755859375 23.44032287597656 C 35.84801483154297 19.77025413513184 33.1047248840332 16.63772392272949 32.99351501464844 16.50797271728516 L 32.58573532104492 16.06311416625977 L 33.16033554077148 15.91483306884766 C 33.18325424194336 15.90719223022461 33.29120635986328 15.88065719604492 33.48027420043945 15.88065719604492 C 33.74991989135742 15.88065528869629 34.1845703125 15.93462181091309 34.77294540405273 16.1743335723877 L 34.49490356445313 16.86015319824219 C 34.30955505371094 16.78601264953613 34.16126251220703 16.73040390014648 34.01298522949219 16.69333267211914 C 34.81001281738281 17.95376396179199 36.01483535766602 20.80825424194336 33.58665466308594 23.90371322631836 C 32.54866409301758 25.2197437286377 31.10287475585938 25.92410278320313 29.52734375 25.92410278320313 C 28.89713478088379 25.92410278320313 28.24838447570801 25.8128833770752 27.58109474182129 25.5904541015625 C 26.04263496398926 25.07146453857422 24.85635375976563 24.03346252441406 24.2817440032959 22.8471736907959 C 23.70714378356934 24.03346252441406 22.5023250579834 25.05292320251465 20.98239517211914 25.5904541015625 C 20.31510353088379 25.8128833770752 19.6663646697998 25.92410278320313 19.0361442565918 25.92410278320313 C 17.46061515808105 25.92410278320313 16.01483535766602 25.2197437286377 14.97682571411133 23.90371322631836 C 12.54865264892578 20.80825424194336 13.73493576049805 17.9537525177002 14.51343536376953 16.69333267211914 C 14.38369369506836 16.73040390014648 14.21686553955078 16.78601264953613 14.03151321411133 16.86015319824219 L 13.75347518920898 16.1743335723877 C 14.34178924560547 15.93464660644531 14.77649307250977 15.88066673278809 15.046142578125 15.88065719604492 C 15.23526382446289 15.88064956665039 15.34315872192383 15.90719032287598 15.36608505249023 15.91483306884766 L 15.9406852722168 16.06312370300293 L 15.53290557861328 16.50797271728516 C 15.42168426513672 16.63772392272949 12.69694519042969 19.78879356384277 15.55143356323242 23.44032287597656 C 16.43828201293945 24.57866668701172 17.68439483642578 25.17824363708496 19.04662322998047 25.17824363708496 C 19.59197998046875 25.17824363708496 20.15588569641113 25.08217239379883 20.7228946685791 24.88610458374023 C 22.55792427062988 24.25589370727539 23.89249420166016 22.75450325012207 23.89249420166016 21.3272533416748 L 23.89249420166016 17.56451416015625 L 24.26320457458496 17.56451416015625 C 22.87303352355957 17.56451416015625 21.72382354736328 16.98990249633789 21.72382354736328 16.26701354980469 C 21.72382354736328 15.54412269592285 22.85449409484863 14.96951293945313 24.26320457458496 14.96951293945313 C 25.65338516235352 14.96951293945313 26.8025951385498 15.54412269592285 26.8025951385498 16.26701354980469 C 26.8025951385498 16.98990249633789 25.67191505432129 17.56451416015625 24.26320457458496 17.56451416015625 L 24.63392448425293 17.56451416015625 L 24.63392448425293 21.3272533416748 C 24.63392448425293 22.75450325012207 25.9684944152832 24.25589370727539 27.80352401733398 24.88610458374023 C 28.37571144104004 25.08213043212891 28.94211769104004 25.17824363708496 29.4879035949707 25.17824363708496 M 24.22614479064941 -1.499996185302734 C 24.91876411437988 -1.499996185302734 25.49900436401367 -1.474227905273438 26.05220413208008 -1.418907165527344 L 26.06071472167969 -1.418056488037109 L 26.0692138671875 -1.417106628417969 C 28.69143486022949 -1.122467041015625 31.23924446105957 -0.1944847106933594 33.43719482421875 1.266525268554688 C 35.57799530029297 2.689537048339844 37.38686752319336 4.615253448486328 38.67057800292969 6.837284088134766 C 38.76881408691406 6.984298706054688 39.24462509155273 7.684539794921875 39.85934448242188 8.392303466796875 C 41.01316452026367 9.720752716064453 41.55935287475586 9.824922561645508 41.56473541259766 9.825822830200195 C 42.28205490112305 9.94537353515625 42.71404266357422 10.2759838104248 42.95012283325195 10.53228378295898 C 43.33148574829102 10.94631385803223 43.51553344726563 11.48820304870605 43.46836471557617 12.05813407897949 C 43.3791389465332 13.13628578186035 42.50625991821289 14.05929756164551 41.35728073120117 14.42407989501953 C 41.39153289794922 14.56106758117676 41.42501831054688 14.69688987731934 41.4577751159668 14.83168983459473 L 48.24585342407227 14.18745422363281 L 49.63258361816406 14.05584335327148 L 49.77118301391602 15.44189262390137 L 49.8453254699707 16.18331336975098 L 49.95845413208008 17.31463623046875 L 50.01226425170898 17.31822395324707 L 49.90375518798828 18.72844314575195 L 49.8481330871582 19.45133399963379 L 49.74191284179688 20.83189392089844 L 49.66186904907227 20.82662200927734 L 49.49007415771484 21.66416358947754 L 49.34179306030273 22.38706398010254 L 49.06156539916992 23.75321388244629 L 47.69434356689453 23.4782829284668 L 42.76558685302734 22.48717498779297 C 42.95431900024414 24.37454605102539 43.0496826171875 26.30243682861328 43.0496826171875 28.24106216430664 C 43.0496826171875 28.75960350036621 43.0496826171875 29.24937438964844 43.03018569946289 29.77574348449707 L 43.01759338378906 30.11553382873535 L 42.85055541992188 30.41169357299805 C 41.01951599121094 33.65807342529297 38.35719299316406 36.38389205932617 35.15139389038086 38.29446411132813 C 31.85220527648926 40.26070404052734 28.06790351867676 41.30000305175781 24.20760345458984 41.30000305175781 C 20.34730529785156 41.30000305175781 16.56300354003906 40.26070404052734 13.2638053894043 38.29447174072266 C 10.05801391601563 36.38389205932617 7.395683288574219 33.65807342529297 5.564643859863281 30.41169357299805 L 5.398113250732422 30.11643218994141 L 5.385086059570313 29.77770233154297 C 5.365524291992188 29.26888275146484 5.365524291992188 28.74637222290039 5.365524291992188 28.24106216430664 C 5.365524291992188 26.24210739135742 5.464389801025391 24.27767562866211 5.660087585449219 22.37759971618652 L 0.8320846557617188 23.34852409362793 L -0.53515625 23.62348365783691 L -0.8153839111328125 22.2573127746582 L -0.9636650085449219 21.534423828125 L -1.131786346435547 20.71477890014648 L -1.236644744873047 20.72175407409668 L -1.340476989746094 19.33743286132813 L -1.396083831787109 18.59600257873535 L -1.502105712890625 17.18244361877441 L -1.429481506347656 17.17790412902832 L -1.318904876708984 16.07210350036621 L -1.244766235351563 15.33067321777344 L -1.106365203857422 13.94661331176758 L 0.2785530090332031 14.0760440826416 L 6.985923767089844 14.70290374755859 C 7.008823394775391 14.60721015930176 7.032089233398438 14.51137161254883 7.055667877197266 14.41557693481445 C 5.907054901123047 14.04866027832031 5.035888671875 13.12826156616211 4.946952819824219 12.05366325378418 C 4.899745941162109 11.48320388793945 5.084903717041016 10.94124412536621 5.46832275390625 10.52760314941406 C 5.704105377197266 10.27324295043945 6.135295867919922 9.945013046264648 6.850482940673828 9.825822830200195 C 6.855854034423828 9.824922561645508 7.402046203613281 9.720752716064453 8.555866241455078 8.392303466796875 C 9.171340942382813 7.683670043945313 9.647571563720703 6.982563018798828 9.745391845703125 6.836132049560547 C 11.0322380065918 4.618148803710938 12.84254455566406 2.695198059082031 14.98296356201172 1.273262023925781 C 17.19014358520508 -0.1930351257324219 19.74946403503418 -1.123397827148438 22.38422393798828 -1.417224884033203 L 22.39214515686035 -1.418117523193359 L 22.40008354187012 -1.418907165527344 C 22.95327377319336 -1.474227905273438 23.53351402282715 -1.499996185302734 24.22614479064941 -1.499996185302734 Z M 24.26320457458496 16.3695125579834 L 24.26320457458496 17.56451416015625 L 24.26320457458496 16.3695125579834 Z"/>
  </g>
</svg>
