<svg xmlns="http://www.w3.org/2000/svg" viewBox="0 0 43.75 41.3">
  <defs>
    <style>
      .cls-1 {
        fill: #fe264a;
        stroke: #fff;
        stroke-linecap: round;
        stroke-width: 1.3px;
      }
    </style>
  </defs>
  <g id="meu-endereco" transform="translate(0.65 -6.592)">
    <path id="Path_1366" data-name="Path 1366" class="cls-1" d="M41.937,10.368,37.694,7.45a1.185,1.185,0,0,0-.671-.208H21.509a1.184,1.184,0,0,0-1.184,1.184v8.029H5.427a1.186,1.186,0,0,0-.671.208L.513,19.581a1.184,1.184,0,0,0,0,1.952L4.756,24.45a1.185,1.185,0,0,0,.671.208h14.9V44.874H15.381a1.184,1.184,0,1,0,0,2.368h11.8a1.184,1.184,0,1,0,0-2.368H22.693V15.445h14.33a1.185,1.185,0,0,0,.671-.208l4.243-2.917a1.184,1.184,0,0,0,0-1.952ZM5.8,22.29,3.274,20.557,5.8,18.824H20.324V22.29Zm30.86-9.214H22.693V9.61H36.655l2.521,1.733Z" transform="translate(0 0)"/>
  </g>
</svg>
