<svg xmlns="http://www.w3.org/2000/svg" viewBox="0 0 43.934 51">
  <defs>
    <style>
      .cls-1 {
        fill: #fe264a;
        stroke: #fff;
        stroke-linecap: round;
      }
    </style>
  </defs>
  <g id="meu-cadastro" transform="translate(-43.675 -21.5)">
    <g id="Group_2693" data-name="Group 2693" transform="translate(44.175 22)">
      <path id="Union_30" data-name="Union 30" class="cls-1" d="M12.307,49.969l-3.321-.852a.977.977,0,0,1-.7-1.189l1.094-4.261-.222-.057A1.666,1.666,0,0,1,8.519,40.7l.427-.346H5.639a5.64,5.64,0,0,1,0-11.281H37.294a5.64,5.64,0,0,1,0,11.281H15.768l1,2.464a1.666,1.666,0,0,1-1.957,2.241l-.222-.057L13.5,49.266a.977.977,0,0,1-1.189.7Zm-.265-9.613-1.85,1.5.494.127a1.1,1.1,0,0,1,.794,1.342l-1.062,4.138,1.429.367L12.909,43.7a1.1,1.1,0,0,1,1.342-.794l.494.127-1.086-2.672-.4-.987ZM9.589,42.844h0ZM34.344,38.4h2.949a3.687,3.687,0,1,0,0-7.374H34.344Zm-20.436-1.57a.978.978,0,0,1,.662.579l.4.991H32.391V31.03H5.639a3.687,3.687,0,0,0,0,7.374h5.71l1.7-1.381a.972.972,0,0,1,.858-.188Zm22.58-.108a.976.976,0,0,1-.16-1.372l.658-.832-.658-.833a.977.977,0,1,1,1.532-1.211L39,33.917a.976.976,0,0,1,0,1.211L37.86,36.566a.977.977,0,0,1-1.372.16ZM6.648,35.674a1.038,1.038,0,0,1-.182-.056.968.968,0,0,1-.168-.09.917.917,0,0,1-.148-.121,1.012,1.012,0,0,1-.122-.148.97.97,0,0,1-.09-.169,1.049,1.049,0,0,1-.056-.183.977.977,0,0,1-.018-.19,1,1,0,0,1,.018-.192,1.1,1.1,0,0,1,.056-.183,1,1,0,0,1,.09-.168,1.012,1.012,0,0,1,.122-.149.973.973,0,0,1,1.063-.211.959.959,0,0,1,.169.09,1.015,1.015,0,0,1,.149.121.957.957,0,0,1,.121.149,1,1,0,0,1,.089.168.935.935,0,0,1,.056.183.982.982,0,0,1,.02.192.964.964,0,0,1-.02.19.9.9,0,0,1-.056.183.979.979,0,0,1-.089.169.977.977,0,0,1-.439.359.951.951,0,0,1-.565.056Zm20.775,0a1,1,0,0,1-.183-.056.936.936,0,0,1-.168-.09.911.911,0,0,1-.149-.121.957.957,0,0,1-.121-.148,1,1,0,0,1-.09-.169,1.048,1.048,0,0,1-.056-.183.963.963,0,0,1-.019-.19.981.981,0,0,1,.019-.192,1.1,1.1,0,0,1,.056-.183,1.024,1.024,0,0,1,.09-.168.96.96,0,0,1,.27-.27.936.936,0,0,1,.168-.09,1,1,0,0,1,.183-.056.973.973,0,0,1,.382,0,.982.982,0,0,1,.351.146.974.974,0,0,1,.149.121,1.068,1.068,0,0,1,.122.149,1,1,0,0,1,.145.351.981.981,0,0,1,.019.192.971.971,0,0,1-.075.373.994.994,0,0,1-.089.169,1.068,1.068,0,0,1-.122.148.918.918,0,0,1-.149.121.982.982,0,0,1-.351.146.973.973,0,0,1-.382,0Zm-5.193,0a.993.993,0,0,1-.352-.146.918.918,0,0,1-.149-.121.964.964,0,0,1-.121-.148.983.983,0,0,1-.09-.169.988.988,0,0,1-.076-.373.982.982,0,0,1,.02-.192.992.992,0,0,1,.146-.351.923.923,0,0,1,.121-.149.974.974,0,0,1,.149-.121.971.971,0,0,1,1.354.27.978.978,0,0,1,.09.168.935.935,0,0,1,.056.183.965.965,0,0,1,.019.192.948.948,0,0,1-.019.19.9.9,0,0,1-.056.183.955.955,0,0,1-.09.169,1.027,1.027,0,0,1-.121.148.964.964,0,0,1-.149.121,1,1,0,0,1-.352.146.968.968,0,0,1-.381,0Zm-5.194,0a1,1,0,0,1-.352-.146.911.911,0,0,1-.148-.121.957.957,0,0,1-.121-.148.984.984,0,0,1-.09-.169.925.925,0,0,1-.056-.183.963.963,0,0,1-.019-.19.981.981,0,0,1,.019-.192.963.963,0,0,1,.056-.183,1.01,1.01,0,0,1,.09-.168.917.917,0,0,1,.121-.149.966.966,0,0,1,.148-.121.98.98,0,0,1,.352-.146.983.983,0,0,1,.881.267.923.923,0,0,1,.121.149,1.008,1.008,0,0,1,.09.168.949.949,0,0,1,.056.183,1,1,0,0,1,.02.192,1,1,0,0,1-.166.542.964.964,0,0,1-.121.148.918.918,0,0,1-.149.121,1,1,0,0,1-.352.146.967.967,0,0,1-.38,0Zm-5.194,0a1.019,1.019,0,0,1-.183-.056,1,1,0,0,1-.168-.09.927.927,0,0,1-.149-.121,1.019,1.019,0,0,1-.121-.148.931.931,0,0,1-.09-.169.982.982,0,0,1-.056-.183.963.963,0,0,1-.019-.19.981.981,0,0,1,.019-.192,1.025,1.025,0,0,1,.056-.183.953.953,0,0,1,.09-.168.974.974,0,0,1,.121-.149.984.984,0,0,1,.149-.121,1,1,0,0,1,.168-.09,1.018,1.018,0,0,1,.183-.056.982.982,0,0,1,.881.267.917.917,0,0,1,.121.149,1.009,1.009,0,0,1,.09.168,1.026,1.026,0,0,1,.056.183.981.981,0,0,1,.019.192.963.963,0,0,1-.019.19.992.992,0,0,1-.146.352.957.957,0,0,1-.121.148.911.911,0,0,1-.148.121,1,1,0,0,1-.352.146.969.969,0,0,1-.191.019A.98.98,0,0,1,11.842,35.674Zm9.246-8.046-.079,0-.268-.011-.06,0a13.669,13.669,0,0,1-7.708-2.864c-.026-.02-.05-.042-.075-.065a13.817,13.817,0,1,1,17.157-.091,1.053,1.053,0,0,1-.088.079,13.652,13.652,0,0,1-7.809,2.94l-.053,0-.274.011-.076,0c-.112,0-.222,0-.334,0S21.2,27.631,21.088,27.628Zm-6.541-5.916V23.48a11.8,11.8,0,0,0,5.332,2.1l.042.006c.077.01.155.018.233.026s.14.014.211.021l.194.016c.112.007.224.014.337.019l.119,0c.135,0,.271.008.407.008s.274,0,.411-.008l.122,0c.117-.005.235-.013.352-.021l.2-.017.182-.018a11.8,11.8,0,0,0,5.7-2.2h0v-1.7a6.916,6.916,0,0,0-2.921-5.643,6.484,6.484,0,0,1-7.995,0A6.914,6.914,0,0,0,14.548,21.712Zm-4.99-7.9a11.815,11.815,0,0,0,3.036,7.917v-.022a8.863,8.863,0,0,1,3.523-7.074,6.5,6.5,0,0,1,5.35-10.2,6.557,6.557,0,0,1,1.459.165.976.976,0,1,1-.437,1.9,4.556,4.556,0,0,0-5.574,4.437,4.529,4.529,0,0,0,.883,2.691A4.547,4.547,0,0,0,21.467,15.5a4.529,4.529,0,0,0,1.924-.427,4.591,4.591,0,0,0,1.744-1.434,4.529,4.529,0,0,0,.883-2.691,4.6,4.6,0,0,0-.049-.677A.977.977,0,0,1,27.9,9.978a6.647,6.647,0,0,1,.071.965,6.464,6.464,0,0,1-1.157,3.7,8.867,8.867,0,0,1,3.523,6.992A11.861,11.861,0,1,0,9.558,13.817ZM25.329,8.14a.909.909,0,0,1-.183-.056.971.971,0,0,1-.169-.089.989.989,0,0,1-.149-.122.923.923,0,0,1-.121-.148.988.988,0,0,1-.146-.351.932.932,0,0,1,0-.382,1,1,0,0,1,.056-.183.975.975,0,0,1,.09-.168.946.946,0,0,1,.269-.27.975.975,0,0,1,.169-.09,1.042,1.042,0,0,1,.183-.056.967.967,0,0,1,.38,0,1.1,1.1,0,0,1,.184.056,1.014,1.014,0,0,1,.168.09.985.985,0,0,1,.269.27.976.976,0,0,1,.09.168.929.929,0,0,1,.056.183.961.961,0,0,1,0,.382.929.929,0,0,1-.056.183,1.01,1.01,0,0,1-.09.168.918.918,0,0,1-.122.148.969.969,0,0,1-.147.122,1.009,1.009,0,0,1-.168.089.956.956,0,0,1-.184.056.967.967,0,0,1-.38,0Z" transform="translate(0 0)"/>
    </g>
  </g>
</svg>
