<svg class="calca" version="1.1" id="Layer_1" 
    xmlns="http://www.w3.org/2000/svg" 
    xmlns:xlink="http://www.w3.org/1999/xlink" x="0px" y="0px" viewBox="0 0 321.02 154.74" style="enable-background:new 0 0 321.02 154.74;" xml:space="preserve">
    <g>
        <g>
            <path d="M8.46,30.69H5.03V1.81h5.96l7.28,24.24h0.08L25.7,1.81h6.08v28.88H28.1V5.01h-0.08l-8.08,25.68h-3.48L8.54,5.01H8.46
                                            V30.69z" />
        </g>
        <g>
            <path d="M37.39,20.13v-9.48c0-5.76,2.96-9.44,9.08-9.44c6.12,0,9.08,3.68,9.08,9.44v9.48c0,8-2.96,11.16-9.08,11.16
                                            C40.34,31.29,37.39,28.13,37.39,20.13z M51.78,20.29v-9.76c0-6.04-4.16-6.24-5.32-6.24c-1.16,0-5.32,0.2-5.32,6.24v9.76
                                            c0,6.32,1.84,7.92,5.32,7.92C49.94,28.21,51.78,26.61,51.78,20.29z" />
        </g>
        <g>
            <path d="M61.22,1.81h8.88c3.68,0,6.32,1.32,7.76,4.4c1.16,2.44,1.28,8.2,1.28,9.12c0,6.16-0.56,9.72-1.76,11.64
                                            c-1.56,2.48-4.48,3.72-9.52,3.72h-6.64V1.81z M64.9,27.49h3.48c5.12,0,7-1.92,7-8.64v-5.84c0-5.84-1.8-8-5.64-8H64.9V27.49z" />
        </g>
        <g>
            <path d="M84.78,30.69V1.81h14.88v3.2h-11.2v9.28h10.4v3.2h-10.4v10H99.9v3.2H84.78z" />
        </g>
        <g>
            <path d="M103.98,30.69V1.81h3.68v25.68h10.6v3.2H103.98z" />
        </g>
        <g>
            <path d="M127.46,1.81h4.68l9.4,28.88h-4.12l-2.08-6.88h-11.16l-2.16,6.88h-3.72L127.46,1.81z M129.7,5.21h-0.08l-4.52,15.4h9.24
                                            L129.7,5.21z" />
        </g>
        <g>
            <path d="M158.42,9.53c0-3.4-1.4-5.24-5.12-5.24c-1.16,0-5.32,0.2-5.32,6.24v9.76c0,6.32,1.84,7.92,5.32,7.92
                                            c2.64,0,4.4-0.72,5.16-1.28v-8.64h-5.32v-3.2h9v14.04c-2.36,1.28-5.12,2.16-8.84,2.16c-6.12,0-9.08-3.16-9.08-11.16v-9.48
                                            c0-5.76,2.96-9.44,9.08-9.44c6.24,0,9.2,2.28,8.96,8.32H158.42z" />
        </g>
        <g>
            <path d="M168.22,30.69V1.81h14.88v3.2h-11.2v9.28h10.4v3.2h-10.4v10h11.44v3.2H168.22z" />
        </g>
        <g>
            <path d="M207.42,1.81v28.88h-5.04l-11.4-25.04h-0.08v25.04h-3.28V1.81h5.2l11.24,24.72h0.08V1.81H207.42z" />
        </g>
        <g>
            <path d="M216.14,22.09v0.84c0,3.92,2.48,5.16,4.84,5.16c2.92,0,5.16-1.24,5.16-4.68c0-6.4-12.96-5.68-12.96-14.36
                                            c0-5.12,3.64-7.84,8.48-7.84c5.28,0,8.24,2.56,8,8.44h-3.84c0.04-3.16-0.96-5.24-4.44-5.24c-2.2,0-4.44,1.12-4.44,4.24
                                            c0,6.36,12.96,5.44,12.96,14.6c0,6.08-4.2,8.04-8.96,8.04c-8.52,0.08-8.52-6.44-8.44-9.2H216.14z" />
        </g>
    </g>
    <g>
        <g>
            <path d="M26.25,131.35c-8.54,0-24.44,0-24.44-30.53V79.41c0-24.83,13.28-28.01,24.86-28.01c7.25,0,12.43,1.76,15.82,5.37
                                            c3.56,3.8,5.04,9.57,4.53,17.63l-0.03,0.47H36.03l0.01-0.51c0.08-3.41-0.04-8.22-2.09-10.7c-1.9-2.3-6.37-3.07-8.12-3.07
                                            c-7.69,0-10.69,4.62-10.97,5.52c-0.05,0.15-0.12,0.28-0.21,0.45c-0.54,1.04-1.98,3.8-1.98,15.16v20.26
                                            c0,18.74,6.17,20.29,13.04,20.29c3.42,0,11.37-1.5,11.47-15.36l0-0.5h10.96l0.01,0.49c0.15,8.44-1.83,14.81-5.89,18.94
                                            C36.87,131.35,29.15,131.35,26.25,131.35z M26.67,52.4c-16.72,0-23.86,8.08-23.86,27.01v21.42c0,29.53,14.67,29.53,23.44,29.53
                                            c3.05,0,10.19,0,15.31-5.21c3.79-3.85,5.67-9.82,5.61-17.73h-8.99c-0.29,14.3-8.79,15.85-12.46,15.85
                                            c-8.67,0-14.04-3.56-14.04-21.29V81.72c0-11.6,1.52-14.52,2.09-15.62c0.06-0.12,0.12-0.22,0.15-0.3c0.36-1.21,3.65-6.2,11.91-6.2
                                            c1.97,0,6.74,0.84,8.89,3.44c2.14,2.59,2.39,7.08,2.33,10.84h8.99c0.41-7.53-0.99-12.9-4.29-16.42
                                            C38.57,54.05,33.63,52.4,26.67,52.4z" />
        </g>
        <g>
            <path d="M112.62,129.78h-11.87l-5.46-18.06H66.73l-5.67,18.06H50.25l24.36-76.81h13.01L112.62,129.78z M101.49,128.78h9.75
                                            L86.89,53.97H75.34l-23.73,74.81h8.71L66,110.72h30.03L101.49,128.78z M93.7,103.32H68.11L80.27,61.9h0.96L93.7,103.32z
                                             M69.44,102.32h22.91L80.75,63.8L69.44,102.32z" />
        </g>
        <g>
            <path d="M156.32,129.78h-38.48V52.97h10.66v67.41h27.82V129.78z M118.84,128.78h36.48v-7.4H127.5V53.97h-8.66V128.78z" />
        </g>
        <g>
            <path d="M180.91,153.4c-3.25,0-6.71-0.77-10.58-2.35l-0.47-0.19l2.17-5.1l0.45,0.16c2.31,0.84,4.25,1.54,6.65,1.54
                                            c2.53,0,5.49-0.97,5.49-3.7c0-2.81-2.4-3.8-4.64-3.8c-0.95,0-1.92,0.28-2.87,0.55c-0.34,0.1-0.67,0.19-1,0.28l-0.29,0.07
                                            l-2.25-2.52l5.28-7.27c-8.37-0.81-18.89-5.22-18.89-30.24V79.41c0-24.83,13.29-28.01,24.86-28.01c7.25,0,12.43,1.76,15.82,5.37
                                            c3.56,3.8,5.04,9.57,4.53,17.63l-0.03,0.47h-10.96l0.01-0.51c0.08-3.41-0.04-8.22-2.09-10.7c-1.9-2.3-6.37-3.07-8.12-3.07
                                            c-7.69,0-10.69,4.62-10.97,5.52c-0.05,0.15-0.12,0.28-0.21,0.45c-0.54,1.04-1.98,3.8-1.98,15.16v20.26
                                            c0,18.74,6.17,20.29,13.04,20.29c3.42,0,11.37-1.5,11.47-15.36l0-0.5h10.96l0.01,0.49c0.15,8.44-1.83,14.81-5.89,18.94
                                            c-5.25,5.34-12.7,5.5-15.47,5.51l-2.83,3.63c0.71-0.19,1.53-0.33,2.27-0.33c5.43,0,9.21,3.49,9.21,8.48
                                            C193.59,150.23,187.23,153.4,180.91,153.4z M171.18,150.32c3.56,1.4,6.75,2.08,9.73,2.08c4.34,0,11.68-1.95,11.68-9.26
                                            c0-5.17-4.13-7.48-8.21-7.48c-1.02,0-2.24,0.32-2.97,0.6l-0.3,0.11l-0.75-0.75l4.1-5.27h0.24c4.24,0,10.42-0.54,15-5.21
                                            c3.79-3.85,5.67-9.82,5.61-17.73h-8.99c-0.29,14.3-8.79,15.85-12.46,15.85c-8.67,0-14.04-3.56-14.04-21.29V81.72
                                            c0-11.6,1.52-14.52,2.09-15.62c0.06-0.12,0.12-0.22,0.15-0.3c0.36-1.21,3.65-6.2,11.91-6.2c1.97,0,6.74,0.84,8.89,3.44
                                            c2.14,2.59,2.39,7.08,2.33,10.84h8.99c0.41-7.53-0.99-12.9-4.29-16.42c-3.19-3.4-8.12-5.05-15.09-5.05
                                            c-16.72,0-23.86,8.08-23.86,27.01v21.42c0,24.81,10.08,28.7,18.85,29.32l0.9,0.06l-5.86,8.07l1.31,1.47
                                            c0.22-0.06,0.45-0.12,0.68-0.19c1.01-0.29,2.06-0.59,3.14-0.59c3.43,0,5.64,1.89,5.64,4.8c0,3.25-3.26,4.7-6.49,4.7
                                            c-2.44,0-4.38-0.66-6.55-1.44L171.18,150.32z" />
        </g>
        <g>
            <path d="M270.75,129.78h-11.87l-5.46-18.06h-28.55l-5.67,18.06h-10.82l24.36-76.81h13.01L270.75,129.78z M259.61,128.78h9.75
                                            l-24.35-74.81h-11.55l-23.73,74.81h8.71l5.67-18.06h30.03L259.61,128.78z M251.83,103.32h-25.6L238.4,61.9h0.96L251.83,103.32z
                                             M227.57,102.32h22.91L238.88,63.8L227.57,102.32z" />
        </g>
        <g>
            <path d="M296.11,131.36c-7.41,0-13.06-1.93-16.8-5.74c-5.83-5.94-5.57-15.04-5.45-18.93l0.01-0.49h10.54v2.71
                                            c0,11.77,8.54,13.04,12.21,13.04c5.95,0,13.04-2.04,13.04-11.79c0-7.46-7.19-11.19-14.8-15.15c-9.01-4.68-19.21-9.98-19.21-22.54
                                            c0-12.8,8.93-21.08,22.76-21.08c7.35,0,12.89,1.9,16.48,5.64c3.63,3.79,5.32,9.52,5.01,17.04l-0.02,0.48h-11.07l0.01-0.51
                                            c0.06-4.98-0.91-8.43-2.98-10.52c-1.81-1.83-4.48-2.73-8.17-2.73c-2.62,0-11.15,0.77-11.15,10.63c0,7.28,6.68,10.75,14.42,14.75
                                            c9.18,4.76,19.59,10.15,19.59,23.57c0,13.93-8.53,21.6-24.02,21.6C296.38,131.35,296.25,131.36,296.11,131.36z M274.85,107.2
                                            c-0.11,3.99-0.12,12.3,5.18,17.71c3.61,3.68,9.16,5.48,16.48,5.44c19.03,0,23.02-11.21,23.02-20.6c0-12.81-9.69-17.83-19.05-22.68
                                            c-7.7-3.99-14.96-7.75-14.96-15.64c0-8.58,6.28-11.63,12.15-11.63c3.97,0,6.88,0.99,8.88,3.02c2.2,2.22,3.27,5.74,3.27,10.73h9.09
                                            c0.21-7-1.39-12.32-4.75-15.82c-3.4-3.54-8.7-5.33-15.76-5.33c-13.42,0-21.76,7.69-21.76,20.08c0,11.96,9.49,16.89,18.68,21.66
                                            c7.89,4.1,15.34,7.97,15.34,16.04c0,8.25-4.99,12.79-14.04,12.79c-8.27,0-13.21-5.25-13.21-14.04v-1.71H274.85z" />
        </g>
    </g>
</svg>