<svg class="camisa" version="1.1" id="Layer_1" 
    xmlns="http://www.w3.org/2000/svg" 
    xmlns:xlink="http://www.w3.org/1999/xlink" x="0px" y="0px" viewBox="0 0 386.51 132.28" style="enable-background:new 0 0 386.51 132.28;" xml:space="preserve">
    <g>
        <g>
            <path d="M8.46,30.69H5.03V1.81h5.96l7.28,24.24h0.08L25.7,1.81h6.08v28.88H28.1V5.01h-0.08l-8.08,25.68h-3.48L8.54,5.01H8.46
                                            V30.69z" />
        </g>
        <g>
            <path d="M37.39,20.13v-9.48c0-5.76,2.96-9.44,9.08-9.44c6.12,0,9.08,3.68,9.08,9.44v9.48c0,8-2.96,11.16-9.08,11.16
                                            C40.34,31.29,37.39,28.13,37.39,20.13z M51.78,20.29v-9.76c0-6.04-4.16-6.24-5.32-6.24c-1.16,0-5.32,0.2-5.32,6.24v9.76
                                            c0,6.32,1.84,7.92,5.32,7.92C49.94,28.21,51.78,26.61,51.78,20.29z" />
        </g>
        <g>
            <path d="M61.22,1.81h8.88c3.68,0,6.32,1.32,7.76,4.4c1.16,2.44,1.28,8.2,1.28,9.12c0,6.16-0.56,9.72-1.76,11.64
                                            c-1.56,2.48-4.48,3.72-9.52,3.72h-6.64V1.81z M64.9,27.49h3.48c5.12,0,7-1.92,7-8.64v-5.84c0-5.84-1.8-8-5.64-8H64.9V27.49z" />
        </g>
        <g>
            <path d="M84.78,30.69V1.81h14.88v3.2h-11.2v9.28h10.4v3.2h-10.4v10H99.9v3.2H84.78z" />
        </g>
        <g>
            <path d="M103.98,30.69V1.81h3.68v25.68h10.6v3.2H103.98z" />
        </g>
        <g>
            <path d="M127.46,1.81h4.68l9.4,28.88h-4.12l-2.08-6.88h-11.16l-2.16,6.88h-3.72L127.46,1.81z M129.7,5.21h-0.08l-4.52,15.4h9.24
                                            L129.7,5.21z" />
        </g>
        <g>
            <path d="M158.42,9.53c0-3.4-1.4-5.24-5.12-5.24c-1.16,0-5.32,0.2-5.32,6.24v9.76c0,6.32,1.84,7.92,5.32,7.92
                                            c2.64,0,4.4-0.72,5.16-1.28v-8.64h-5.32v-3.2h9v14.04c-2.36,1.28-5.12,2.16-8.84,2.16c-6.12,0-9.08-3.16-9.08-11.16v-9.48
                                            c0-5.76,2.96-9.44,9.08-9.44c6.24,0,9.2,2.28,8.96,8.32H158.42z" />
        </g>
        <g>
            <path d="M168.22,30.69V1.81h14.88v3.2h-11.2v9.28h10.4v3.2h-10.4v10h11.44v3.2H168.22z" />
        </g>
        <g>
            <path d="M207.42,1.81v28.88h-5.04l-11.4-25.04h-0.08v25.04h-3.28V1.81h5.2l11.24,24.72h0.08V1.81H207.42z" />
        </g>
        <g>
            <path d="M216.14,22.09v0.84c0,3.92,2.48,5.16,4.84,5.16c2.92,0,5.16-1.24,5.16-4.68c0-6.4-12.96-5.68-12.96-14.36
                                            c0-5.12,3.64-7.84,8.48-7.84c5.28,0,8.24,2.56,8,8.44h-3.84c0.04-3.16-0.96-5.24-4.44-5.24c-2.2,0-4.44,1.12-4.44,4.24
                                            c0,6.36,12.96,5.44,12.96,14.6c0,6.08-4.2,8.04-8.96,8.04c-8.52,0.08-8.52-6.44-8.44-9.2H216.14z" />
        </g>
    </g>
    <g>
        <g>
            <path d="M26.07,131.5c-8.53,0-24.42,0-24.42-30.51v-21.4c0-24.81,13.28-27.99,24.84-27.99c7.25,0,12.42,1.76,15.81,5.37
                                            c3.56,3.8,5.04,9.56,4.52,17.62l-0.03,0.47H35.84l0.01-0.51c0.08-3.4-0.04-8.21-2.09-10.69c-1.9-2.3-6.37-3.07-8.11-3.07
                                            c-7.68,0-10.69,4.61-10.96,5.52c-0.05,0.15-0.12,0.28-0.21,0.45c-0.54,1.04-1.98,3.8-1.98,15.15v20.25
                                            c0,18.72,6.17,20.27,13.03,20.27c3.41,0,11.36-1.5,11.46-15.35l0-0.5h10.96l0.01,0.49c0.15,8.43-1.83,14.8-5.89,18.93
                                            C36.68,131.5,28.97,131.5,26.07,131.5z M26.49,52.6c-16.71,0-23.84,8.07-23.84,26.99V101c0,29.51,14.66,29.51,23.42,29.51
                                            c3.05,0,10.19,0,15.3-5.2c3.78-3.85,5.67-9.81,5.61-17.72H38c-0.29,14.29-8.78,15.84-12.45,15.84c-8.66,0-14.03-3.56-14.03-21.27
                                            V81.9c0-11.59,1.52-14.51,2.09-15.61c0.06-0.12,0.12-0.22,0.15-0.3c0.36-1.2,3.65-6.2,11.9-6.2c1.97,0,6.74,0.84,8.88,3.43
                                            c2.14,2.59,2.39,7.07,2.33,10.83h8.99c0.41-7.52-0.99-12.89-4.28-16.4C38.38,54.26,33.45,52.6,26.49,52.6z" />
        </g>
        <g>
            <path d="M112.37,129.93h-11.87l-5.46-18.05H66.52l-5.67,18.05H50.04l24.34-76.75h13L112.37,129.93z M101.25,128.93H111
                                            L86.67,54.18H75.12l-23.71,74.75h8.71l5.67-18.05h30.01L101.25,128.93z M93.47,103.49H67.9L80.04,62.1H81L93.47,103.49z
                                             M69.23,102.49h22.9L80.53,64L69.23,102.49z" />
        </g>
        <g>
            <path d="M188.88,129.93h-10.65V64.66l-20.54,65.27h-9.86l-20.11-65.22v65.22h-10.02V53.18h16.5l18.83,62.7l19.04-62.7h16.82
                                            V129.93z M179.23,128.93h8.65V54.18h-15.08l-19.31,63.58h-0.95l-19.1-63.58h-14.76v74.75h8.02V61.57h1.08l20.77,67.36h8.39
                                            l21.19-67.36h1.08V128.93z" />
        </g>
        <g>
            <path d="M213.22,129.93h-10.65V53.18h10.65V129.93z M203.57,128.93h8.65V54.18h-8.65V128.93z" />
        </g>
        <g>
            <path d="M246.94,131.51c-7.4,0-13.05-1.93-16.78-5.74c-5.83-5.94-5.56-15.03-5.45-18.91l0.01-0.49h10.53v2.7
                                            c0,11.76,8.53,13.04,12.19,13.04c5.95,0,13.04-2.04,13.04-11.78c0-7.45-7.19-11.18-14.79-15.14c-9-4.68-19.2-9.98-19.2-22.53
                                            c0-12.8,8.93-21.06,22.74-21.06c7.34,0,12.88,1.9,16.47,5.63c3.63,3.78,5.32,9.51,5.01,17.02l-0.02,0.48h-11.06l0.01-0.51
                                            c0.06-4.98-0.91-8.42-2.98-10.51c-1.81-1.83-4.48-2.72-8.17-2.72c-2.62,0-11.15,0.77-11.15,10.62c0,7.28,6.68,10.74,14.42,14.75
                                            c9.18,4.75,19.58,10.14,19.58,23.55c0,13.92-8.52,21.59-24,21.59C247.21,131.5,247.08,131.51,246.94,131.51z M225.7,107.37
                                            c-0.11,3.98-0.12,12.29,5.18,17.7c3.6,3.67,9.16,5.48,16.47,5.43c19.02,0,23.01-11.2,23.01-20.59c0-12.8-9.68-17.81-19.04-22.66
                                            c-7.69-3.98-14.96-7.75-14.96-15.63c0-8.57,6.27-11.62,12.15-11.62c3.97,0,6.87,0.99,8.88,3.02c2.19,2.22,3.26,5.73,3.27,10.72
                                            h9.09c0.21-6.99-1.39-12.31-4.75-15.81c-3.39-3.54-8.69-5.33-15.75-5.33c-13.41,0-21.74,7.69-21.74,20.06
                                            c0,11.95,9.49,16.87,18.66,21.64c7.88,4.1,15.33,7.97,15.33,16.02c0,8.24-4.98,12.78-14.04,12.78c-8.26,0-13.19-5.25-13.19-14.04
                                            v-1.7H225.7z" />
        </g>
        <g>
            <path d="M336.69,129.93h-11.87l-5.46-18.05h-28.53l-5.67,18.05h-10.81l24.34-76.75h13L336.69,129.93z M325.57,128.93h9.75
                                            l-24.33-74.75h-11.55l-23.71,74.75h8.71l5.67-18.05h30.01L325.57,128.93z M317.79,103.49h-25.58l12.15-41.39h0.96L317.79,103.49z
                                             M293.55,102.49h22.9L304.85,64L293.55,102.49z" />
        </g>
        <g>
            <path d="M362.04,131.51c-7.4,0-13.05-1.93-16.78-5.74c-5.83-5.94-5.56-15.03-5.45-18.91l0.01-0.49h10.53v2.7
                                            c0,11.76,8.53,13.04,12.2,13.04c5.95,0,13.04-2.04,13.04-11.78c0-7.45-7.19-11.18-14.79-15.14c-9-4.68-19.2-9.98-19.2-22.53
                                            c0-12.8,8.93-21.06,22.74-21.06c7.34,0,12.88,1.9,16.47,5.63c3.63,3.78,5.32,9.51,5.01,17.02l-0.02,0.48h-11.06l0.01-0.51
                                            c0.06-4.98-0.91-8.42-2.98-10.51c-1.81-1.83-4.48-2.72-8.17-2.72c-2.62,0-11.15,0.77-11.15,10.62c0,7.28,6.68,10.74,14.42,14.75
                                            c9.18,4.75,19.58,10.14,19.58,23.55c0,13.92-8.52,21.59-24,21.59C362.31,131.5,362.18,131.51,362.04,131.51z M340.8,107.37
                                            c-0.11,3.98-0.12,12.29,5.18,17.7c3.6,3.67,9.15,5.48,16.47,5.43c19.02,0,23.01-11.2,23.01-20.59c0-12.8-9.68-17.81-19.04-22.66
                                            c-7.69-3.98-14.96-7.75-14.96-15.63c0-8.57,6.27-11.62,12.15-11.62c3.97,0,6.87,0.99,8.88,3.02c2.19,2.22,3.26,5.73,3.27,10.72
                                            h9.09c0.21-6.99-1.39-12.31-4.75-15.81c-3.39-3.54-8.69-5.33-15.75-5.33c-13.41,0-21.74,7.69-21.74,20.06
                                            c0,11.95,9.49,16.87,18.66,21.64c7.88,4.1,15.33,7.97,15.33,16.02c0,8.24-4.98,12.78-14.04,12.78c-8.26,0-13.2-5.25-13.2-14.04
                                            v-1.7H340.8z" />
        </g>
    </g>
</svg>