<svg xmlns="http://www.w3.org/2000/svg" xmlns:xlink="http://www.w3.org/1999/xlink" viewBox="0 0 143.823 102.009">
  <defs>
    <style>
      .cls-1 {
        fill: url(#linear-gradient);
      }

      .cls-2 {
        fill: #ce3a4c;
      }

      .cls-3 {
        fill: #f2a077;
      }

      .cls-4 {
        fill: #d6774d;
      }

      .cls-5 {
        fill: #d2f5ff;
      }

      .cls-6 {
        fill: #b7ecf9;
      }

      .cls-7 {
        fill: #e9fbff;
      }

      .cls-8, .cls-9 {
        stroke: #fff;
        stroke-width: 2px;
      }

      .cls-8 {
        stroke-linecap: round;
      }
    </style>
    <linearGradient id="linear-gradient" x1="0.5" x2="0.5" y2="1" gradientUnits="objectBoundingBox">
      <stop offset="0" stop-color="#fe264a"/>
      <stop offset="1" stop-color="#f60"/>
    </linearGradient>
  </defs>
  <g id="newsletter" transform="translate(-734.987 -5964)">
    <path id="Subtraction_1" data-name="Subtraction 1" class="cls-1" d="M60.714,47.59H11.3A3.19,3.19,0,0,0,14.479,44.4V14.479A14.5,14.5,0,0,0,0,0H49.42A14.478,14.478,0,0,1,63.9,14.479V44.4A3.19,3.19,0,0,1,60.714,47.59Z" transform="translate(791.579 5974.68)"/>
    <path id="Path_79" data-name="Path 79" class="cls-2" d="M363.146,110.289H356.92A14.48,14.48,0,0,1,371.4,124.768v29.925a3.186,3.186,0,0,1-3.186,3.186h6.226a3.186,3.186,0,0,0,3.186-3.186V124.768A14.479,14.479,0,0,0,363.146,110.289Z" transform="translate(477.854 5864.391)"/>
    <rect id="Rectangle_52" data-name="Rectangle 52" class="cls-3" width="9.986" height="35.949" transform="translate(811.297 6022.27)"/>
    <rect id="Rectangle_53" data-name="Rectangle 53" class="cls-4" width="9.986" height="6.641" transform="translate(811.297 6022.27)"/>
    <g id="Group_45" data-name="Group 45" transform="translate(738.08 6017.909)">
      <path id="Path_81" data-name="Path 81" class="cls-5" d="M56.729,279.552,21.513,266.734a3.748,3.748,0,0,0-4.8,2.24l-8.991,24.7a3.748,3.748,0,0,0,2.24,4.8L45.174,311.3a3.748,3.748,0,0,0,4.8-2.24l8.991-24.7A3.748,3.748,0,0,0,56.729,279.552Z" transform="translate(-7.491 -266.507)"/>
      <path id="Path_82" data-name="Path 82" class="cls-6" d="M11.464,342.9,46.68,355.712a3.727,3.727,0,0,0,2.435.041L38.074,329.3a2.105,2.105,0,0,0-3.04-1.106L9.573,341.362A3.728,3.728,0,0,0,11.464,342.9Z" transform="translate(-8.997 -310.922)"/>
      <path id="Path_83" data-name="Path 83" class="cls-7" d="M86.063,279.555,50.848,266.737a3.732,3.732,0,0,0-2.8.1l12.664,22.506a2.666,2.666,0,0,0,3.264,1.188l24.168-9.1A3.733,3.733,0,0,0,86.063,279.555Z" transform="translate(-36.826 -266.51)"/>
    </g>
    <g id="Group_46" data-name="Group 46" transform="translate(736.007 5965)">
      <path id="Path_84" data-name="Path 84" class="cls-8" d="M242.461,113.737c-17.348-8.086-18.062-9.14-19.213-6.67l-1.9,4.076a16.56,16.56,0,0,0-14.373-8.359H157.551l-.055,0A16.573,16.573,0,0,0,141,119.34V128.1a2.075,2.075,0,1,0,4.151,0V119.34a12.4,12.4,0,0,1,24.808,0v29.925a1.112,1.112,0,0,1-1.111,1.111H146.259a1.112,1.112,0,0,1-1.111-1.111V136.4a2.075,2.075,0,1,0-4.151,0v12.863a5.268,5.268,0,0,0,5.262,5.262h22.587c.033,0,.065,0,.1,0s.044,0,.066,0h6.184V188.4a2.075,2.075,0,0,0,4.151,0V154.526h5.835V188.4a2.075,2.075,0,0,0,4.151,0V154.525h28.935a5.266,5.266,0,0,0,5.26-5.26V130.035a2.075,2.075,0,0,0-4.151,0v19.229a1.111,1.111,0,0,1-1.11,1.11H173.988a5.255,5.255,0,0,0,.12-1.109V119.34a16.516,16.516,0,0,0-5.61-12.405h38.476a12.424,12.424,0,0,1,12.005,9.287l-.759,1.628h0L207.193,141.5a2.075,2.075,0,1,0,3.762,1.754l10.15-21.767c15.264,7.041,14.593,6.991,15.45,6.991a2.076,2.076,0,0,0,1.882-1.2l5.028-10.782A2.076,2.076,0,0,0,242.461,113.737Zm-6.909,9.9-12.083-5.634c-.034-.429-.082-.855-.149-1.274l2.812-6.031,12.693,5.919Z" transform="translate(-101.98 -95.181)"/>
      <path id="Path_85" data-name="Path 85" class="cls-9" d="M184.7,172.509a2.075,2.075,0,0,0,0-4.151H171.437a2.075,2.075,0,0,0,0,4.151Z" transform="translate(-122.496 -142.609)"/>
      <path id="Path_86" data-name="Path 86" class="cls-9" d="M53.961,273.359c-1.5-1.377.207-.24-37.156-14a5.823,5.823,0,0,0-7.464,3.48l-.578,1.586a2.075,2.075,0,1,0,3.9,1.42l.294-.808,8.2,14.575-16.637,8.6,5.3-14.567a2.075,2.075,0,1,0-3.9-1.42L.35,287.543a5.839,5.839,0,0,0,3.481,7.465l35.216,12.817a5.789,5.789,0,0,0,3.785.064h0a5.816,5.816,0,0,0,3.679-3.544l8.99-24.7A5.838,5.838,0,0,0,53.961,273.359Zm-5.04,2.11-20.429,7.693a.589.589,0,0,1-.724-.263l-10.7-19.025ZM23.2,283.235l.956,1.7a4.714,4.714,0,0,0,4.116,2.422,4.782,4.782,0,0,0,1.688-.31l1.823-.687,7.087,16.982L6.849,291.687ZM42.88,302.182,35.665,284.9,51.317,279Z" transform="translate(0 -208.176)"/>
      <path id="Path_87" data-name="Path 87" class="cls-9" d="M75.594,84.707a2.075,2.075,0,0,0,2.075-2.075V77.384a2.075,2.075,0,1,0-4.151,0v5.247A2.075,2.075,0,0,0,75.594,84.707Z" transform="translate(-53.175 -75.309)"/>
      <path id="Path_88" data-name="Path 88" class="cls-9" d="M75.594,142.995a2.075,2.075,0,0,0,2.075-2.075v-5.247a2.075,2.075,0,1,0-4.151,0v5.247A2.075,2.075,0,0,0,75.594,142.995Z" transform="translate(-53.175 -117.467)"/>
      <path id="Path_89" data-name="Path 89" class="cls-9" d="M95.257,118.084H100.5a2.075,2.075,0,1,0,0-4.151H95.257a2.075,2.075,0,0,0,0,4.151Z" transform="translate(-67.397 -103.245)"/>
      <path id="Path_90" data-name="Path 90" class="cls-9" d="M36.97,118.084h5.247a2.075,2.075,0,1,0,0-4.151H36.97a2.075,2.075,0,1,0,0,4.151Z" transform="translate(-25.239 -103.245)"/>
    </g>
  </g>
</svg>
