<svg version="1.1" id="Layer_1" 
    xmlns="http://www.w3.org/2000/svg" 
    xmlns:xlink="http://www.w3.org/1999/xlink" x="0px" y="0px" viewBox="0 0 427.6 89.8" style="enable-background:new 0 0 427.6 89.8;" xml:space="preserve">
    <g>
        <g>
            <path d="M55.4,80.9H40.7l-0.1-0.3L10.1,14.4v66.5h-10V1.7h15.1l30.2,65.6V1.7h10V80.9z M41.4,79.9h13V2.7h-8v66.9h-1L14.5,2.7H1.1
                                                            v77.2h8V12.1h1L41.4,79.9z" />
        </g>
        <g>
            <path d="M97.7,82.5c-17.6,0-25.4-9.5-25.4-30.7V26.1C72.3,9.3,81.4,0,97.7,0s25.4,9.3,25.4,26.1v25.7
                                                            C123.1,73,115.3,82.5,97.7,82.5z M97.7,1C82,1,73.3,9.9,73.3,26.1v25.7c0,20.8,7.3,29.7,24.4,29.7s24.4-8.9,24.4-29.7V26.1
                                                            C122.1,9.9,113.5,1,97.7,1z M97.7,74.1c-10.9,0-15.1-6.2-15.1-21.9V25.8c0-15.1,9.5-17.4,15.1-17.4s15.1,2.3,15.1,17.4v26.4
                                                            C112.8,68,108.6,74.1,97.7,74.1z M97.7,9.4c-5.3,0-14.1,2.1-14.1,16.4v26.4c0,17.4,5.4,20.9,14.1,20.9s14.1-3.5,14.1-20.9V25.8
                                                            C111.8,11.5,103,9.4,97.7,9.4z" />
        </g>
        <g>
            <path d="M168.1,80.9h-12.8L132.1,1.7h12l17.8,67.8l18.3-67.8h11.4l-0.2,0.6L168.1,80.9z M156,79.9h11.3l22.8-77.2h-9.3l-18.5,68.8
                                                            h-1l-0.1-0.4l-18-68.4h-9.9L156,79.9z" />
        </g>
        <g>
            <path d="M254.3,80.9h-12.4l-5.7-18.6h-29.9l-5.9,18.6h-11.3l25.4-79.2h13.6L254.3,80.9z M242.7,79.9h10.2L227.5,2.7h-12.1
                                                            l-24.8,77.2h9.1l5.9-18.6H237L242.7,79.9z M234.5,53.6h-26.7l12.7-42.7h1L234.5,53.6z M209.2,52.6h24L221,12.7L209.2,52.6z" />
        </g>
    </g>
    <g>
        <g>
            <path d="M284.9,57.7c0-1.7-0.1-3.4-0.9-4.4s-2.6-1.3-3.4-1.3c-3.2,0-4.4,1.9-4.5,2.3c-0.1,0.3-0.9,1.1-0.9,6.3v8
                                                            c0,7.4,2.4,8.3,5.4,8.3c1.2,0,4.7-0.4,4.8-6.3h4c0.2,9.5-6.5,9.5-8.5,9.5c-3.8,0-9.5-0.2-9.5-11.9v-8.5c0-8.5,3.8-10.9,9.7-10.9
                                                            c6,0,8.3,3.1,7.9,8.9H284.9z" />
        </g>
        <g>
            <path d="M294.7,68.5v-9.9c0-6,3.1-9.8,9.5-9.8s9.5,3.8,9.5,9.8v9.9c0,8.3-3.1,11.6-9.5,11.6S294.7,76.9,294.7,68.5z M309.7,68.7
                                                            V58.5c0-6.3-4.3-6.5-5.5-6.5s-5.5,0.2-5.5,6.5v10.2c0,6.6,1.9,8.3,5.5,8.3C307.8,77,309.7,75.3,309.7,68.7z" />
        </g>
        <g>
            <path d="M320.3,79.5V49.4h3.8v26.8h11v3.3H320.3z" />
        </g>
        <g>
            <path d="M338.8,79.5V49.4h15.5v3.3h-11.7v9.7h10.8v3.3h-10.8v10.4h11.9v3.3H338.8z" />
        </g>
        <g>
            <path d="M372.9,57.7c0-1.7-0.1-3.4-0.9-4.4s-2.6-1.3-3.4-1.3c-3.2,0-4.4,1.9-4.5,2.3c-0.1,0.3-0.9,1.1-0.9,6.3v8
                                                            c0,7.4,2.4,8.3,5.4,8.3c1.2,0,4.7-0.4,4.8-6.3h4c0.2,9.3-6.3,9.5-8.4,9.5l-1.5,1.9l0.1,0.1c0.3-0.1,0.8-0.2,1.3-0.2
                                                            c1.9,0,3.5,1.1,3.5,3.2c0,2.8-2.7,3.9-4.8,3.9c-1.5,0-3-0.5-4.1-0.9l0.7-1.7c0.9,0.3,1.7,0.6,2.7,0.6c1,0,2.4-0.4,2.4-1.7
                                                            c0-1.2-1-1.7-2-1.7c-0.5,0-1.1,0.2-1.6,0.3l-0.7-0.8l2.2-3c-3.5-0.2-7.7-1.9-7.7-11.8v-8.5c0-8.5,3.8-10.9,9.7-10.9
                                                            c6,0,8.3,3.1,7.9,8.9H372.9z" />
        </g>
        <g>
            <path d="M389.6,49.4h4.9l9.8,30.1H400l-2.2-7.2h-11.6l-2.3,7.2H380L389.6,49.4z M399.3,41.6c-0.1,1.2-0.6,2.3-1.3,3.2
                                                            s-1.7,1.4-3,1.4c-0.9,0-2-0.4-3-0.8c-1-0.4-2.1-0.8-3-0.8c-1,0-1.8,1-1.9,1.9h-1.9c0.3-2.5,1.6-4.5,4.3-4.5c1.1,0,2.2,0.4,3.1,0.8
                                                            c1,0.4,1.8,0.8,2.5,0.8c1.3,0,2-0.6,2.1-1.9H399.3z M391.9,53L391.9,53l-4.8,16h9.6L391.9,53z" />
        </g>
        <g>
            <path d="M408.1,68.5v-9.9c0-6,3.1-9.8,9.5-9.8c6.4,0,9.5,3.8,9.5,9.8v9.9c0,8.3-3.1,11.6-9.5,11.6
                                                            C411.2,80.2,408.1,76.9,408.1,68.5z M423.2,68.7V58.5c0-6.3-4.3-6.5-5.5-6.5s-5.5,0.2-5.5,6.5v10.2c0,6.6,1.9,8.3,5.5,8.3
                                                            S423.2,75.3,423.2,68.7z" />
        </g>
    </g>
</svg>