<svg id="Layer_1" data-name="Layer 1" xmlns="http://www.w3.org/2000/svg" viewBox="0 0 424.32 117.9"><defs><style>.cls-1{fill:none;stroke:#000;}</style></defs><title>paracomemorar</title><path d="M456.11,481.16h12.06q9.42,0,12.57,3.25t3.14,13q0,10-3.14,13.3T468.17,514H461v26.17h-4.86ZM461,509.85h7.2q6.49,0,8.67-2.47T479,497.5q0-7.29-2.18-9.72t-8.67-2.43H461Z" transform="translate(-456.11 -481.16)"/><path d="M503.31,481.16h5.36L524,540.21h-5l-4.06-16.5H497l-4,16.5h-5Zm-5.24,38.36h15.84L506,487.28h-.05Z" transform="translate(-456.11 -481.16)"/><path d="M532.28,481.16H544.6q9.63,0,12.85,3.14t3.23,12.53q0,7.74-3.48,10.67a12.67,12.67,0,0,1-5.86,2.43,9.88,9.88,0,0,1,6.28,2.47c1.76,1.71,2.61,4.41,2.55,8.13q-.07,5.19.21,9.9c.2,3.14.53,6.4,1,9.78h-4.95q-.63-5.12-.86-9.82c-.15-3.14-.18-6.43-.06-9.86.08-3-.67-5.17-2.24-6.56s-4.12-2.07-7.64-2.07h-8.5v28.31h-4.86Zm4.86,26.55h7.46q6.74,0,9-2.26t2.24-9q0-6.62-2.24-8.84t-9-2.22h-7.46Z" transform="translate(-456.11 -481.16)"/><path d="M582.7,481.16h5.36l15.33,59.05h-5l-4.07-16.5H576.38l-4,16.5h-5Zm-5.24,38.36H593.3l-7.93-32.24h-.06Z" transform="translate(-456.11 -481.16)"/><path class="cls-1" d="M533.92,581.73q0,8.92-3,12.88t-9.77,4q-7,0-10.56-4.11t-3.51-12.35V553.55q0-7.57,3.66-11.68t10.41-4.11q6.66,0,9.71,3.75t3.06,11.87h-4.86c0-4-.62-7-1.86-8.75s-3.26-2.68-6.05-2.68q-5.07,0-7.14,2.62t-2.08,9v28.56q0,6.5,2.16,9.36t7.06,2.87q4.35,0,6.13-2.85c1.19-1.9,1.78-5.16,1.78-9.8Z" transform="translate(-456.11 -481.16)"/><path class="cls-1" d="M547.44,594.29c-2.56-2.84-3.85-6.91-3.85-12.18V553.55q0-7.57,3.85-11.68t11-4.11q7.11,0,11,4.11t3.87,11.68v28.56c0,5.27-1.29,9.34-3.87,12.18s-6.25,4.28-11,4.28S550,597.14,547.44,594.29ZM566,591.38c1.64-2,2.45-5.07,2.45-9.23V553.59c0-4-.81-6.89-2.45-8.79s-4.15-2.85-7.55-2.85-5.89.95-7.52,2.85-2.45,4.83-2.45,8.79v28.56q0,6.24,2.45,9.23t7.52,3Q563.52,594.38,566,591.38Z" transform="translate(-456.11 -481.16)"/><path class="cls-1" d="M590.49,597.69h-4.85V538.64h8.45l13.11,51.72h0l12.36-51.72H628v59.05h-4.85V542.33h0L610,597.69h-6.29l-13.16-54.07h0Z" transform="translate(-456.11 -481.16)"/><path class="cls-1" d="M641.12,597.69V538.64H664.7v4.19H646v22.44h17.75v4.19H646v24H665.2v4.19Z" transform="translate(-456.11 -481.16)"/><path class="cls-1" d="M679.4,597.69h-4.86V538.64H683l13.1,51.72h0l12.37-51.72h8.46v59.05h-4.86V542.33h0l-13.18,55.36h-6.28l-13.17-54.07h0Z" transform="translate(-456.11 -481.16)"/><path class="cls-1" d="M733.21,594.29c-2.57-2.84-3.86-6.91-3.86-12.18V553.55q0-7.57,3.86-11.68t11-4.11q7.11,0,11,4.11T759,553.55v28.56c0,5.27-1.29,9.34-3.87,12.18s-6.25,4.28-11,4.28S735.77,597.14,733.21,594.29Zm18.53-2.91q2.44-3,2.45-9.23V553.59q0-5.94-2.45-8.79T744.18,542q-5.07,0-7.52,2.85t-2.45,8.79v28.56q0,6.24,2.45,9.23t7.52,3Q749.28,594.38,751.74,591.38Z" transform="translate(-456.11 -481.16)"/><path class="cls-1" d="M771.35,538.64h12.32q9.63,0,12.85,3.14t3.23,12.52q0,7.76-3.48,10.68a12.67,12.67,0,0,1-5.86,2.43,9.88,9.88,0,0,1,6.28,2.47q2.64,2.55,2.55,8.12-.07,5.21.21,9.91c.2,3.14.53,6.4,1,9.78h-5q-.63-5.12-.86-9.82c-.15-3.14-.18-6.43-.06-9.87.08-3-.67-5.17-2.24-6.55s-4.12-2.07-7.64-2.07h-8.5v28.31h-4.86Zm4.86,26.55h7.46q6.74,0,9-2.26c1.49-1.51,2.24-4.52,2.24-9s-.75-7.35-2.24-8.83-4.49-2.22-9-2.22h-7.46Z" transform="translate(-456.11 -481.16)"/><path class="cls-1" d="M821.77,538.64h5.36l15.33,59.05h-5l-4.07-16.5H815.44l-4,16.5h-5ZM816.53,577h15.84l-7.93-32.24h-.06Z" transform="translate(-456.11 -481.16)"/><path class="cls-1" d="M850.75,538.64h12.31q9.63,0,12.86,3.14t3.22,12.52q0,7.76-3.47,10.68a12.71,12.71,0,0,1-5.87,2.43,9.88,9.88,0,0,1,6.29,2.47c1.75,1.7,2.61,4.41,2.55,8.12q-.09,5.21.21,9.91c.19,3.14.53,6.4,1,9.78h-5c-.41-3.41-.7-6.68-.85-9.82s-.18-6.43-.07-9.87c.09-3-.66-5.17-2.23-6.55s-4.13-2.07-7.64-2.07h-8.5v28.31h-4.86Zm4.86,26.55h7.45q6.75,0,9-2.26c1.5-1.51,2.25-4.52,2.25-9s-.75-7.35-2.25-8.83-4.48-2.22-9-2.22h-7.45Z" transform="translate(-456.11 -481.16)"/></svg>