<svg xmlns="http://www.w3.org/2000/svg" viewBox="0 0 18 23.743">
  <defs>
    <style>
      .cls-1 {
        fill: #787a7a;
      }
    </style>
  </defs>
  <path id="pin-postal-code" class="cls-1" d="M47.853,36a9.086,9.086,0,0,1,5.833,1.691,8.513,8.513,0,0,1,3.635,7.947,15.966,15.966,0,0,1-1.86,5.072,46.382,46.382,0,0,1-5.918,8.116,5.1,5.1,0,0,1-.676.676.817.817,0,0,1-1.184-.085,56.277,56.277,0,0,1-4.481-5.58,26.162,26.162,0,0,1-3.043-5.411A8.514,8.514,0,0,1,39.4,45.21,8.88,8.88,0,0,1,47.853,36m-1.1,1.691a7.342,7.342,0,0,0-4.143,2.536A6.631,6.631,0,0,0,41,44.534a11.039,11.039,0,0,0,1.014,4.058,26.445,26.445,0,0,0,3.043,4.9,38.357,38.357,0,0,0,3.3,4.058,43.383,43.383,0,0,0,5.5-7.44,15.478,15.478,0,0,0,1.775-4.227,6.605,6.605,0,0,0-.676-4.4,7.688,7.688,0,0,0-3.466-3.3A8.344,8.344,0,0,0,46.754,37.686Zm1.184,1.86a4.322,4.322,0,0,1,3.466,1.1,4.445,4.445,0,0,1,1.522,3.128A4.266,4.266,0,0,1,51.742,46.9a4.413,4.413,0,0,1-3.3,1.437,4.82,4.82,0,0,1-3.3-1.353,4.15,4.15,0,0,1-1.268-2.959A4.206,4.206,0,0,1,45.148,40.9a4.006,4.006,0,0,1,2.79-1.353m-.169,1.691A2.8,2.8,0,0,0,46.247,45.8a2.956,2.956,0,0,0,3.72.507,2.706,2.706,0,0,0,1.1-3.3A2.784,2.784,0,0,0,47.768,41.237Z" transform="translate(-39.392 -35.97)"/>
</svg>
