<svg xmlns="http://www.w3.org/2000/svg" viewBox="0 0 14.968 18.681">
  <defs>
    <style>
      .cls-1 {
        fill: #fff;
      }
    </style>
  </defs>
  <g id="pin" transform="translate(-50.885 0)">
    <g id="Group_1956" data-name="Group 1956" transform="translate(54.901 4.016)">
      <g id="Group_1955" data-name="Group 1955">
        <path id="Path_846" data-name="Path 846" class="cls-1" d="M164.415,110.062a3.468,3.468,0,1,0,3.468,3.468A3.472,3.472,0,0,0,164.415,110.062Zm0,5.476a2.008,2.008,0,1,1,2.008-2.008A2.01,2.01,0,0,1,164.415,115.538Z" transform="translate(-160.947 -110.062)"/>
      </g>
    </g>
    <g id="Group_1958" data-name="Group 1958" transform="translate(50.885)">
      <g id="Group_1957" data-name="Group 1957">
        <path id="Path_847" data-name="Path 847" class="cls-1" d="M58.369,0a7.492,7.492,0,0,0-7.484,7.484v.207c0,2.087,1.2,4.519,3.556,7.228A30.763,30.763,0,0,0,57.91,18.31l.459.371.459-.371A30.756,30.756,0,0,0,62.3,14.919c2.36-2.709,3.556-5.141,3.556-7.228V7.484A7.492,7.492,0,0,0,58.369,0Zm6.024,7.691c0,3.527-4.544,7.8-6.024,9.092-1.48-1.3-6.024-5.566-6.024-9.092V7.484a6.024,6.024,0,1,1,12.047,0Z" transform="translate(-50.885)"/>
      </g>
    </g>
  </g>
</svg>
