<svg xmlns="http://www.w3.org/2000/svg" viewBox="0 0 50 50">
  <defs>
    <style>
      .cls-1 {
        fill: none;
      }

      .cls-2, .cls-4 {
        fill: #00c853;
      }

      .cls-3, .cls-4 {
        stroke: none;
      }
    </style>
  </defs>
  <g id="produto-natural" transform="translate(-6651 -6995)">
    <g id="Path_1653" data-name="Path 1653" class="cls-1" transform="translate(6651 6995)">
      <path class="cls-3" d="M25,0A25,25,0,1,1,0,25,25,25,0,0,1,25,0Z"/>
      <path class="cls-4" d="M 25 1 C 21.75958061218262 1 18.61661911010742 1.634418487548828 15.65842056274414 2.885631561279297 C 12.80064010620117 4.094371795654297 10.23387908935547 5.825000762939453 8.029441833496094 8.029441833496094 C 5.825000762939453 10.23387908935547 4.094371795654297 12.80064010620117 2.885631561279297 15.65842056274414 C 1.634418487548828 18.61661911010742 1 21.75958061218262 1 25 C 1 28.24041938781738 1.634418487548828 31.38338088989258 2.885631561279297 34.34157943725586 C 4.094371795654297 37.19935989379883 5.825000762939453 39.76612091064453 8.029441833496094 41.97055816650391 C 10.23387908935547 44.17499923706055 12.80064010620117 45.90563201904297 15.65842056274414 47.1143684387207 C 18.61661911010742 48.36558151245117 21.75958061218262 49 25 49 C 28.24041938781738 49 31.38338088989258 48.36558151245117 34.34157943725586 47.1143684387207 C 37.19935989379883 45.90563201904297 39.76612091064453 44.17499923706055 41.97055816650391 41.97055816650391 C 44.17499923706055 39.76612091064453 45.90563201904297 37.19935989379883 47.1143684387207 34.34157943725586 C 48.36558151245117 31.38338088989258 49 28.24041938781738 49 25 C 49 21.75958061218262 48.36558151245117 18.61661911010742 47.1143684387207 15.65842056274414 C 45.90563201904297 12.80064010620117 44.17499923706055 10.23387908935547 41.97055816650391 8.029441833496094 C 39.76612091064453 5.825000762939453 37.19935989379883 4.094371795654297 34.34157943725586 2.885631561279297 C 31.38338088989258 1.634418487548828 28.24041938781738 1 25 1 M 25 0 C 38.80712127685547 0 50 11.19287872314453 50 25 C 50 38.80712127685547 38.80712127685547 50 25 50 C 11.19287872314453 50 0 38.80712127685547 0 25 C 0 11.19287872314453 11.19287872314453 0 25 0 Z"/>
    </g>
    <path id="Path_1655" data-name="Path 1655" class="cls-2" d="M42.175,20.933l-.025-.3-.284-.093c-.294-.1-7.244-2.309-11.31.907-4,3.161-5.534,7.921-3.561,10.788a14.792,14.792,0,0,0-3.185,5.884,14.791,14.791,0,0,0-3.185-5.884c1.973-2.867.435-7.628-3.561-10.788-4.066-3.216-11.016-1-11.31-.907l-.284.093-.025.3c-.026.308-.58,7.581,3.486,10.8,3.907,3.09,8.763,3.546,11.161,1.153,4.723,5.62,2.957,10.946,2.938,11h0a.591.591,0,0,0-.018.143.806.806,0,0,0,1.593,0,.591.591,0,0,0-.018-.143h0c-.019-.055-1.785-5.381,2.938-11,2.4,2.393,7.254,1.937,11.161-1.153C42.755,28.514,42.2,21.241,42.175,20.933ZM9.492,31.025C6.576,28.719,6.3,23.854,6.314,21.874l5.159,4.081-2.387.234.088.895,3.315-.325,2.753,2.178-4.8.56.1.893,5.692-.664,3.206,2.536C17.366,34.325,13.033,33.827,9.492,31.025ZM20,31.557l-2.016-1.595-.663-5.681-.893.1.559,4.788L14.241,27l-.467-4-.893.1.363,3.111L6.872,21.17c1.924-.469,6.725-1.317,9.636.985C20.05,24.957,21.532,29.058,20,31.557Zm11.111-9.4c2.911-2.3,7.711-1.455,9.636-.985l-6.371,5.04.363-3.111-.893-.1-.467,4-2.749,2.175.559-4.788-.893-.1-.663,5.681L27.62,31.557C26.091,29.058,27.573,24.957,31.115,22.155Zm7.017,8.87c-3.542,2.8-7.874,3.3-9.954,1.237l3.206-2.536,5.692.664.1-.893-4.8-.56,2.753-2.178,3.315.325.088-.895-2.387-.234,5.159-4.081C41.324,23.854,41.047,28.719,38.131,31.025Z" transform="translate(6652.592 6992.289)"/>
  </g>
</svg>
