<svg xmlns="http://www.w3.org/2000/svg" viewBox="0 0 50 50">
  <defs>
    <style>
      .cls-1 {
        fill: none;
      }

      .cls-2, .cls-4 {
        fill: #607d8b;
      }

      .cls-3, .cls-4 {
        stroke: none;
      }
    </style>
  </defs>
  <g id="produto-em-saches" transform="translate(-7515 -6892)">
    <g id="Path_1673" data-name="Path 1673" class="cls-1" transform="translate(7515 6892)">
      <path class="cls-3" d="M25,0A25,25,0,1,1,0,25,25,25,0,0,1,25,0Z"/>
      <path class="cls-4" d="M 25 1 C 21.75958061218262 1 18.61661911010742 1.634418487548828 15.65842056274414 2.885631561279297 C 12.80064010620117 4.094371795654297 10.23387908935547 5.825000762939453 8.029441833496094 8.029441833496094 C 5.825000762939453 10.23387908935547 4.094371795654297 12.80064010620117 2.885631561279297 15.65842056274414 C 1.634418487548828 18.61661911010742 1 21.75958061218262 1 25 C 1 28.24041938781738 1.634418487548828 31.38338088989258 2.885631561279297 34.34157943725586 C 4.094371795654297 37.19935989379883 5.825000762939453 39.76612091064453 8.029441833496094 41.97055816650391 C 10.23387908935547 44.17499923706055 12.80064010620117 45.90563201904297 15.65842056274414 47.1143684387207 C 18.61661911010742 48.36558151245117 21.75958061218262 49 25 49 C 28.24041938781738 49 31.38338088989258 48.36558151245117 34.34157943725586 47.1143684387207 C 37.19935989379883 45.90563201904297 39.76612091064453 44.17499923706055 41.97055816650391 41.97055816650391 C 44.17499923706055 39.76612091064453 45.90563201904297 37.19935989379883 47.1143684387207 34.34157943725586 C 48.36558151245117 31.38338088989258 49 28.24041938781738 49 25 C 49 21.75958061218262 48.36558151245117 18.61661911010742 47.1143684387207 15.65842056274414 C 45.90563201904297 12.80064010620117 44.17499923706055 10.23387908935547 41.97055816650391 8.029441833496094 C 39.76612091064453 5.825000762939453 37.19935989379883 4.094371795654297 34.34157943725586 2.885631561279297 C 31.38338088989258 1.634418487548828 28.24041938781738 1 25 1 M 25 0 C 38.80712127685547 0 50 11.19287872314453 50 25 C 50 38.80712127685547 38.80712127685547 50 25 50 C 11.19287872314453 50 0 38.80712127685547 0 25 C 0 11.19287872314453 11.19287872314453 0 25 0 Z"/>
    </g>
    <g id="Group_3207" data-name="Group 3207" transform="translate(7526.11 6900.988)">
      <path id="Path_1714" data-name="Path 1714" class="cls-2" d="M75.669,180.687a.849.849,0,0,0-.1,1.694c.553,0,.906-.252.939-.772A.816.816,0,0,0,75.669,180.687Z" transform="translate(-62.343 -150.369)"/>
      <path id="Path_1715" data-name="Path 1715" class="cls-2" d="M88.765,128.894c-.1-.5-.369-.839-.889-.805a.759.759,0,0,0-.788.855.736.736,0,0,0,.805.755A.866.866,0,0,0,88.765,128.894Z" transform="translate(-72.571 -106.593)"/>
      <path id="Path_1716" data-name="Path 1716" class="cls-2" d="M81.762,156.6c-.386.184-.805.352-.772.922a.766.766,0,0,0,.872.772c.553-.034.755-.4.721-.906C82.584,156.868,82.215,156.684,81.762,156.6Z" transform="translate(-67.497 -130.324)"/>
      <path id="Path_1717" data-name="Path 1717" class="cls-2" d="M67.181,160.5a.749.749,0,0,0-.805.772.785.785,0,0,0,.788.889.859.859,0,0,0,.872-.855A.838.838,0,0,0,67.181,160.5Z" transform="translate(-55.331 -133.567)"/>
      <path id="Path_1718" data-name="Path 1718" class="cls-2" d="M70,135.487a.7.7,0,0,0-.805.738.683.683,0,0,0,.688.772c.5.05.772-.2.822-.537C70.739,135.805,70.487,135.52,70,135.487Z" transform="translate(-57.681 -112.75)"/>
      <path id="Path_1719" data-name="Path 1719" class="cls-2" d="M93.824,144.6a.64.64,0,0,0-.637.721.62.62,0,0,0,.721.621c.453-.017.621-.285.637-.7A.655.655,0,0,0,93.824,144.6Z" transform="translate(-77.647 -120.332)"/>
      <path id="Path_1720" data-name="Path 1720" class="cls-2" d="M81.471,119.3a.59.59,0,0,0-.671.654.634.634,0,0,0,.654.688.813.813,0,0,0,.738-.688A.7.7,0,0,0,81.471,119.3Z" transform="translate(-67.34 -99.28)"/>
      <path id="Path_1721" data-name="Path 1721" class="cls-2" d="M71.863,148.99c.034.4.252.688.671.654a.7.7,0,0,0,.637-.721c-.05-.419-.252-.671-.7-.637A.572.572,0,0,0,71.863,148.99Z" transform="translate(-59.895 -123.401)"/>
      <path id="Path_1722" data-name="Path 1722" class="cls-2" d="M90.067,170.8a.679.679,0,0,0-.671.7.651.651,0,0,0,.721.637c.453-.017.637-.252.637-.738A.632.632,0,0,0,90.067,170.8Z" transform="translate(-74.494 -142.138)"/>
      <path id="Path_1723" data-name="Path 1723" class="cls-2" d="M83.483,139.854a.535.535,0,0,0,.57.637c.335,0,.537-.235.553-.6,0-.335-.134-.57-.52-.587A.582.582,0,0,0,83.483,139.854Z" transform="translate(-69.57 -115.926)"/>
      <path id="Path_1724" data-name="Path 1724" class="cls-2" d="M28.371,11.13Q23.163,5.721,18.006.3c-.352-.369-.537-.386-.906,0-2.617,2.617-5.233,5.267-7.917,7.833a24.982,24.982,0,0,0-4.394,5.434c-1.51,2.533-3.12,4.981-4.68,7.481-.134.2-.436.4.034.621,1.627.755,3.237,1.543,4.965,2.382,0-.822.034-1.51-.017-2.2-.05-.621.2-.805.755-.721a1,1,0,0,0,1.291-.805,3.116,3.116,0,0,1,.4-.822,1.388,1.388,0,0,0,.084-1.61c-.319-.5-.1-.788.386-.889.956-.218,1.107-.922,1.107-1.744V13.931c.939.805,1.828,1.291,2.248,2.281a1.685,1.685,0,0,0,.973.973,2.237,2.237,0,0,1,1.56,1.66.84.84,0,0,0,.788.721.988.988,0,0,1,.889.922c.067.335.1.7.553.822a7.628,7.628,0,0,1,1.392.5c.319.151.453.017.637-.168,3.355-3.237,6.709-6.491,10.064-9.728C28.556,11.667,28.723,11.5,28.371,11.13Zm-20.6,3.64a1.155,1.155,0,0,1-.822,1.157c-1.426.537-1.392.587-.822,1.979.117.3.319.587.168.939-.218.57-.47.956-1.241.906-1.275-.084-1.275-.017-1.308,1.275,0,.218.067.436-.084.621a.283.283,0,0,1-.084.034c-1.711-.721-1.694-.721-.738-2.248,1.577-2.5,3.153-5.015,4.73-7.514.084-.134.1-.335.4-.352C7.892,12.657,7.841,13.713,7.774,14.77Zm18.433-2.851c-2.767,2.667-5.552,5.334-8.319,8.017-.57.553-.906.168-1.006-.319a1.435,1.435,0,0,0-1.392-1.325c-.352-.034-.436-.386-.52-.688a1.929,1.929,0,0,0-1.224-1.342,2.477,2.477,0,0,1-1.426-1.308c-.52-1.04-1.61-1.51-2.415-2.264-.553-.5-1.543-.906-1.627-1.459-.084-.587.906-1.073,1.426-1.61,2.432-2.415,4.9-4.814,7.33-7.246.352-.335.537-.486.956-.034,2.7,2.868,5.434,5.7,8.151,8.537.168.184.319.369.5.587A5.85,5.85,0,0,1,26.207,11.919Z" transform="translate(0 0)"/>
      <path id="Path_1725" data-name="Path 1725" class="cls-2" d="M103.16,26.53l-4.126-4.277c-.2-.2-.4-.4-.721-.268a.479.479,0,0,0-.335.52c.034.285.252.419.419.6q2.793,2.944,5.6,5.87c.486.5.99.99,1.476,1.493a.559.559,0,0,0,.6.151.423.423,0,0,0,.319-.453c.034-.3-.185-.486-.386-.688C105.072,28.492,104.116,27.519,103.16,26.53Z" transform="translate(-81.632 -18.251)"/>
    </g>
  </g>
</svg>
