<svg xmlns="http://www.w3.org/2000/svg" viewBox="0 0 50 50">
  <defs>
    <style>
      .cls-1 {
        fill: none;
      }

      .cls-2, .cls-4 {
        fill: #827717;
      }

      .cls-3, .cls-4 {
        stroke: none;
      }
    </style>
  </defs>
  <g id="produto-em-capsulas" transform="translate(-7218 -6995)">
    <g id="Path_1658" data-name="Path 1658" class="cls-1" transform="translate(7218 6995)">
      <path class="cls-3" d="M25,0A25,25,0,1,1,0,25,25,25,0,0,1,25,0Z"/>
      <path class="cls-4" d="M 25 1 C 21.75958061218262 1 18.61661911010742 1.634418487548828 15.65842056274414 2.885631561279297 C 12.80064010620117 4.094371795654297 10.23387908935547 5.825000762939453 8.029441833496094 8.029441833496094 C 5.825000762939453 10.23387908935547 4.094371795654297 12.80064010620117 2.885631561279297 15.65842056274414 C 1.634418487548828 18.61661911010742 1 21.75958061218262 1 25 C 1 28.24041938781738 1.634418487548828 31.38338088989258 2.885631561279297 34.34157943725586 C 4.094371795654297 37.19935989379883 5.825000762939453 39.76612091064453 8.029441833496094 41.97055816650391 C 10.23387908935547 44.17499923706055 12.80064010620117 45.90563201904297 15.65842056274414 47.1143684387207 C 18.61661911010742 48.36558151245117 21.75958061218262 49 25 49 C 28.24041938781738 49 31.38338088989258 48.36558151245117 34.34157943725586 47.1143684387207 C 37.19935989379883 45.90563201904297 39.76612091064453 44.17499923706055 41.97055816650391 41.97055816650391 C 44.17499923706055 39.76612091064453 45.90563201904297 37.19935989379883 47.1143684387207 34.34157943725586 C 48.36558151245117 31.38338088989258 49 28.24041938781738 49 25 C 49 21.75958061218262 48.36558151245117 18.61661911010742 47.1143684387207 15.65842056274414 C 45.90563201904297 12.80064010620117 44.17499923706055 10.23387908935547 41.97055816650391 8.029441833496094 C 39.76612091064453 5.825000762939453 37.19935989379883 4.094371795654297 34.34157943725586 2.885631561279297 C 31.38338088989258 1.634418487548828 28.24041938781738 1 25 1 M 25 0 C 38.80712127685547 0 50 11.19287872314453 50 25 C 50 38.80712127685547 38.80712127685547 50 25 50 C 11.19287872314453 50 0 38.80712127685547 0 25 C 0 11.19287872314453 11.19287872314453 0 25 0 Z"/>
    </g>
    <g id="medicine-capsule" transform="translate(7221.742 7005)">
      <path id="Path_1703" data-name="Path 1703" class="cls-2" d="M30.765,16.14a8.217,8.217,0,0,0-8.685-1.876V6.414a6.411,6.411,0,1,0-12.823,0V23.586A6.421,6.421,0,0,0,15.671,30a6.352,6.352,0,0,0,4.011-1.447,8.274,8.274,0,0,0,11.187-.6A8.362,8.362,0,0,0,30.765,16.14Zm-2.125.774L19.8,25.894a6.371,6.371,0,0,1,8.843-8.98ZM15.671,1.948a4.466,4.466,0,0,1,4.46,4.463v7.325H11.208V6.411A4.47,4.47,0,0,1,15.671,1.948ZM11.208,23.582V15.687h8.408c-.219.183-.453.342-.658.548a8.338,8.338,0,0,0-.637,10.919,4.406,4.406,0,0,1-2.651.894A4.475,4.475,0,0,1,11.208,23.582Zm18.266,2.993a6.566,6.566,0,0,1-8.283.682l8.835-8.977A6.4,6.4,0,0,1,29.473,26.575Z"/>
    </g>
  </g>
</svg>
