<svg xmlns="http://www.w3.org/2000/svg" viewBox="0 0 50 50">
  <defs>
    <style>
      .cls-1 {
        fill: none;
      }

      .cls-2, .cls-4 {
        fill: #00c853;
      }

      .cls-3, .cls-4 {
        stroke: none;
      }
    </style>
  </defs>
  <g id="produto-biodinamico" transform="translate(-6944 -6995)">
    <g id="Path_1654" data-name="Path 1654" class="cls-1" transform="translate(6944 6995)">
      <path class="cls-3" d="M25,0A25,25,0,1,1,0,25,25,25,0,0,1,25,0Z"/>
      <path class="cls-4" d="M 25 1 C 21.75958061218262 1 18.61661911010742 1.634418487548828 15.65842056274414 2.885631561279297 C 12.80064010620117 4.094371795654297 10.23387908935547 5.825000762939453 8.029441833496094 8.029441833496094 C 5.825000762939453 10.23387908935547 4.094371795654297 12.80064010620117 2.885631561279297 15.65842056274414 C 1.634418487548828 18.61661911010742 1 21.75958061218262 1 25 C 1 28.24041938781738 1.634418487548828 31.38338088989258 2.885631561279297 34.34157943725586 C 4.094371795654297 37.19935989379883 5.825000762939453 39.76612091064453 8.029441833496094 41.97055816650391 C 10.23387908935547 44.17499923706055 12.80064010620117 45.90563201904297 15.65842056274414 47.1143684387207 C 18.61661911010742 48.36558151245117 21.75958061218262 49 25 49 C 28.24041938781738 49 31.38338088989258 48.36558151245117 34.34157943725586 47.1143684387207 C 37.19935989379883 45.90563201904297 39.76612091064453 44.17499923706055 41.97055816650391 41.97055816650391 C 44.17499923706055 39.76612091064453 45.90563201904297 37.19935989379883 47.1143684387207 34.34157943725586 C 48.36558151245117 31.38338088989258 49 28.24041938781738 49 25 C 49 21.75958061218262 48.36558151245117 18.61661911010742 47.1143684387207 15.65842056274414 C 45.90563201904297 12.80064010620117 44.17499923706055 10.23387908935547 41.97055816650391 8.029441833496094 C 39.76612091064453 5.825000762939453 37.19935989379883 4.094371795654297 34.34157943725586 2.885631561279297 C 31.38338088989258 1.634418487548828 28.24041938781738 1 25 1 M 25 0 C 38.80712127685547 0 50 11.19287872314453 50 25 C 50 38.80712127685547 38.80712127685547 50 25 50 C 11.19287872314453 50 0 38.80712127685547 0 25 C 0 11.19287872314453 11.19287872314453 0 25 0 Z"/>
    </g>
    <g id="salad" transform="translate(6956.983 7007.999)">
      <g id="Group_3151" data-name="Group 3151" transform="translate(0.017 15.835)">
        <g id="Group_3150" data-name="Group 3150" transform="translate(0)">
          <path id="Path_1684" data-name="Path 1684" class="cls-2" d="M24.6,324.28H.434a.417.417,0,0,0-.417.417,8.759,8.759,0,0,0,8.749,8.749h7.5a8.76,8.76,0,0,0,8.749-8.749A.416.416,0,0,0,24.6,324.28Zm-8.333,8.333h-7.5a7.926,7.926,0,0,1-7.905-7.5h23.31A7.926,7.926,0,0,1,16.266,332.613Z" transform="translate(-0.017 -324.28)"/>
        </g>
      </g>
      <g id="Group_3153" data-name="Group 3153" transform="translate(8.766 0.001)">
        <g id="Group_3152" data-name="Group 3152" transform="translate(0 0)">
          <path id="Path_1685" data-name="Path 1685" class="cls-2" d="M191.7,5.838c0-.03,0-.061,0-.107a1.73,1.73,0,0,0-1.166-1.471l.472-.472A2.231,2.231,0,0,0,191.189.8,2.19,2.19,0,0,0,188.11.5c-.053.044-.1.09-.155.141l-.512.52A1.739,1.739,0,0,0,185.958,0,1.665,1.665,0,0,0,184.2,1.579c0,.03,0,.061,0,.091v.639a1.656,1.656,0,0,0-.832-.224c-.03,0-.061,0-.107,0A1.727,1.727,0,0,0,181.7,3.823V4.39a1.661,1.661,0,0,0-.832-.223c-.03,0-.06,0-.107,0A1.727,1.727,0,0,0,179.2,5.907v6.179a.417.417,0,0,0,.417.417H186.7a1.665,1.665,0,0,0,1.442-2.5h.563a1.724,1.724,0,0,0,1.744-1.578,1.656,1.656,0,0,0-.228-.932,1.666,1.666,0,0,0,1.48-1.654Zm-1.078.588a.829.829,0,0,1-.589.243h-1.251a.417.417,0,0,0,0,.833h.046a.832.832,0,0,1,.789.86.888.888,0,0,1-.906.8H186.7a.417.417,0,1,0,0,.833.833.833,0,0,1,0,1.667h-6.666V5.9a.889.889,0,0,1,.789-.9h.045a.834.834,0,0,1,.832.832v0a.416.416,0,0,0,.416.417h0a.417.417,0,0,0,.417-.416h0V3.816a.889.889,0,0,1,.789-.9h.045a.835.835,0,0,1,.832.833v0a.416.416,0,0,0,.416.417h0a.417.417,0,0,0,.417-.416h0V1.624a.826.826,0,0,1,.86-.789.892.892,0,0,1,.8.907v.346a.416.416,0,0,0,.713.292l1.13-1.147c.031-.03.063-.059.1-.086a1.355,1.355,0,0,1,1.9.178,1.4,1.4,0,0,1-.122,1.872l-1.1,1.1a.417.417,0,0,0,.295.711h.368a.888.888,0,0,1,.882.789v.046A.828.828,0,0,1,190.625,6.427Z" transform="translate(-179.202 -0.001)"/>
        </g>
      </g>
      <g id="Group_3155" data-name="Group 3155" transform="translate(6.389 2.624)">
        <g id="Group_3154" data-name="Group 3154">
          <rect id="Rectangle_933" data-name="Rectangle 933" class="cls-2" width="16.498" height="0.833" transform="translate(0 11.666) rotate(-45)"/>
        </g>
      </g>
      <g id="Group_3157" data-name="Group 3157" transform="translate(15.432 3.338)">
        <g id="Group_3156" data-name="Group 3156">
          <rect id="Rectangle_934" data-name="Rectangle 934" class="cls-2" width="0.833" height="2.083"/>
        </g>
      </g>
      <g id="Group_3159" data-name="Group 3159" transform="translate(12.932 5.422)">
        <g id="Group_3158" data-name="Group 3158">
          <rect id="Rectangle_935" data-name="Rectangle 935" class="cls-2" width="0.833" height="2.5"/>
        </g>
      </g>
      <g id="Group_3161" data-name="Group 3161" transform="translate(10.432 7.501)">
        <g id="Group_3160" data-name="Group 3160">
          <rect id="Rectangle_936" data-name="Rectangle 936" class="cls-2" width="0.833" height="2.916"/>
        </g>
      </g>
      <g id="Group_3163" data-name="Group 3163" transform="translate(15.848 5.005)">
        <g id="Group_3162" data-name="Group 3162">
          <rect id="Rectangle_937" data-name="Rectangle 937" class="cls-2" width="2.083" height="0.833"/>
        </g>
      </g>
      <g id="Group_3165" data-name="Group 3165" transform="translate(13.349 7.501)">
        <g id="Group_3164" data-name="Group 3164">
          <rect id="Rectangle_938" data-name="Rectangle 938" class="cls-2" width="2.5" height="0.833"/>
        </g>
      </g>
      <g id="Group_3167" data-name="Group 3167" transform="translate(10.849 10)">
        <g id="Group_3166" data-name="Group 3166">
          <rect id="Rectangle_939" data-name="Rectangle 939" class="cls-2" width="2.916" height="0.833"/>
        </g>
      </g>
      <g id="Group_3169" data-name="Group 3169" transform="translate(1.526 0.95)">
        <g id="Group_3168" data-name="Group 3168">
          <path id="Path_1686" data-name="Path 1686" class="cls-2" d="M37.184,20.42l0,0a1.922,1.922,0,0,0-2.663-.532c-.027.018-.055.037-.085.06l-.15.114-.144-.1a1.917,1.917,0,1,0-2.284,3.051l.351.274v.213a2.083,2.083,0,1,0,4.166,0V23.28l.369-.288A1.918,1.918,0,0,0,37.184,20.42Zm-.95,1.913-.533.417a.417.417,0,0,0-.16.328v.417a1.25,1.25,0,1,1-2.5,0v-.417a.416.416,0,0,0-.16-.328l-.533-.417a.41.41,0,0,0-.05-.034,1.083,1.083,0,1,1,1.288-1.721.439.439,0,0,0,.045.038l.417.3a.416.416,0,0,0,.5-.006l.439-.33a1.077,1.077,0,0,1,1.252,1.753Z" transform="translate(-30.916 -19.441)"/>
        </g>
      </g>
      <g id="Group_3171" data-name="Group 3171" transform="translate(9.182 0.418)">
        <g id="Group_3170" data-name="Group 3170">
          <rect id="Rectangle_940" data-name="Rectangle 940" class="cls-2" width="0.833" height="0.833"/>
        </g>
      </g>
      <g id="Group_3173" data-name="Group 3173" transform="translate(11.682 13.75)">
        <g id="Group_3172" data-name="Group 3172">
          <rect id="Rectangle_941" data-name="Rectangle 941" class="cls-2" width="0.833" height="0.833"/>
        </g>
      </g>
      <g id="Group_3175" data-name="Group 3175" transform="translate(22.516 2.503)">
        <g id="Group_3174" data-name="Group 3174">
          <path id="Path_1687" data-name="Path 1687" class="cls-2" d="M460.787,51.24v.833a.833.833,0,1,1,0,1.667v.833a1.667,1.667,0,1,0,0-3.333Z" transform="translate(-460.787 -51.24)"/>
        </g>
      </g>
      <g id="Group_3177" data-name="Group 3177" transform="translate(0.849 6.255)">
        <g id="Group_3176" data-name="Group 3176">
          <rect id="Rectangle_942" data-name="Rectangle 942" class="cls-2" width="0.833" height="0.833"/>
        </g>
      </g>
      <g id="Group_3179" data-name="Group 3179" transform="translate(0.017 4.588)">
        <g id="Group_3178" data-name="Group 3178" transform="translate(0)">
          <rect id="Rectangle_943" data-name="Rectangle 943" class="cls-2" width="0.833" height="0.833"/>
        </g>
      </g>
      <g id="Group_3181" data-name="Group 3181" transform="translate(14.599 13.335)">
        <g id="Group_3180" data-name="Group 3180">
          <path id="Path_1688" data-name="Path 1688" class="cls-2" d="M300.331,273.083a1.668,1.668,0,0,0-1.667,1.667h.833a.833.833,0,1,1,1.667,0H302A1.668,1.668,0,0,0,300.331,273.083Z" transform="translate(-298.664 -273.083)"/>
        </g>
      </g>
      <g id="Group_3183" data-name="Group 3183" transform="translate(0.017 8.336)">
        <g id="Group_3182" data-name="Group 3182" transform="translate(0)">
          <path id="Path_1689" data-name="Path 1689" class="cls-2" d="M5.018,171.94H4.965a1.667,1.667,0,0,0-3.228,0H1.685a1.667,1.667,0,1,0,0,3.333H5.018a1.667,1.667,0,1,0,0-3.333Zm0,2.5H1.685a.833.833,0,1,1,0-1.667H2.1a.417.417,0,0,0,.417-.417.833.833,0,0,1,1.667,0,.417.417,0,0,0,.417.417h.417a.833.833,0,1,1,0,1.667Z" transform="translate(-0.018 -170.69)"/>
        </g>
      </g>
      <g id="Group_3185" data-name="Group 3185" transform="translate(2.1 12.085)">
        <g id="Group_3184" data-name="Group 3184">
          <path id="Path_1690" data-name="Path 1690" class="cls-2" d="M44.764,247.485H43.1a.417.417,0,0,0-.417.417v1.667a.417.417,0,0,0,.417.417h1.667a.417.417,0,0,0,.417-.417V247.9A.417.417,0,0,0,44.764,247.485Zm-.417,1.667h-.833v-.833h.833v.833Z" transform="translate(-42.681 -247.485)"/>
        </g>
      </g>
      <g id="Group_3187" data-name="Group 3187" transform="translate(20.849 10.835)">
        <g id="Group_3186" data-name="Group 3186">
          <path id="Path_1691" data-name="Path 1691" class="cls-2" d="M427.906,221.887a1.25,1.25,0,1,0,1.25,1.25A1.251,1.251,0,0,0,427.906,221.887Zm0,1.667a.417.417,0,1,1,.417-.417A.417.417,0,0,1,427.906,223.554Z" transform="translate(-426.656 -221.887)"/>
        </g>
      </g>
      <g id="Group_3189" data-name="Group 3189" transform="translate(19.182 9.169)">
        <g id="Group_3188" data-name="Group 3188">
          <path id="Path_1692" data-name="Path 1692" class="cls-2" d="M395.441,187.756a2.916,2.916,0,1,0,2.916,2.916A2.92,2.92,0,0,0,395.441,187.756Zm0,5a2.083,2.083,0,1,1,2.083-2.083A2.086,2.086,0,0,1,395.441,192.756Z" transform="translate(-392.525 -187.756)"/>
        </g>
      </g>
    </g>
  </g>
</svg>
