<svg xmlns="http://www.w3.org/2000/svg" viewBox="0 0 50 50">
  <defs>
    <style>
      .cls-1 {
        fill: none;
      }

      .cls-2, .cls-4 {
        fill: #039be5;
      }

      .cls-3, .cls-4 {
        stroke: none;
      }
    </style>
  </defs>
  <g id="produto-liquido" transform="translate(-7218 -6892)">
    <g id="Path_1657" data-name="Path 1657" class="cls-1" transform="translate(7218 6892)">
      <path class="cls-3" d="M25,0A25,25,0,1,1,0,25,25,25,0,0,1,25,0Z"/>
      <path class="cls-4" d="M 25 1 C 21.75958061218262 1 18.61661911010742 1.634418487548828 15.65842056274414 2.885631561279297 C 12.80064010620117 4.094371795654297 10.23387908935547 5.825000762939453 8.029441833496094 8.029441833496094 C 5.825000762939453 10.23387908935547 4.094371795654297 12.80064010620117 2.885631561279297 15.65842056274414 C 1.634418487548828 18.61661911010742 1 21.75958061218262 1 25 C 1 28.24041938781738 1.634418487548828 31.38338088989258 2.885631561279297 34.34157943725586 C 4.094371795654297 37.19935989379883 5.825000762939453 39.76612091064453 8.029441833496094 41.97055816650391 C 10.23387908935547 44.17499923706055 12.80064010620117 45.90563201904297 15.65842056274414 47.1143684387207 C 18.61661911010742 48.36558151245117 21.75958061218262 49 25 49 C 28.24041938781738 49 31.38338088989258 48.36558151245117 34.34157943725586 47.1143684387207 C 37.19935989379883 45.90563201904297 39.76612091064453 44.17499923706055 41.97055816650391 41.97055816650391 C 44.17499923706055 39.76612091064453 45.90563201904297 37.19935989379883 47.1143684387207 34.34157943725586 C 48.36558151245117 31.38338088989258 49 28.24041938781738 49 25 C 49 21.75958061218262 48.36558151245117 18.61661911010742 47.1143684387207 15.65842056274414 C 45.90563201904297 12.80064010620117 44.17499923706055 10.23387908935547 41.97055816650391 8.029441833496094 C 39.76612091064453 5.825000762939453 37.19935989379883 4.094371795654297 34.34157943725586 2.885631561279297 C 31.38338088989258 1.634418487548828 28.24041938781738 1 25 1 M 25 0 C 38.80712127685547 0 50 11.19287872314453 50 25 C 50 38.80712127685547 38.80712127685547 50 25 50 C 11.19287872314453 50 0 38.80712127685547 0 25 C 0 11.19287872314453 11.19287872314453 0 25 0 Z"/>
    </g>
    <g id="drops-of-two-different-sizes-stroke-symbol-for-design" transform="translate(7220.937 6905)">
      <g id="Group_3204" data-name="Group 3204" transform="translate(10.063)">
        <path id="Path_1700" data-name="Path 1700" class="cls-2" d="M18.508,20.392a.8.8,0,0,0-.646.329c-.319.438-7.8,10.784-7.8,15.215a8.445,8.445,0,0,0,16.89,0c0-4.432-7.48-14.777-7.8-15.215A.8.8,0,0,0,18.508,20.392Zm0,22.39a6.853,6.853,0,0,1-6.845-6.845c0-2.953,4.467-9.958,6.845-13.365,2.379,3.407,6.846,10.412,6.846,13.365A6.854,6.854,0,0,1,18.508,42.782Z" transform="translate(-10.063 -19.592)"/>
        <path id="Path_1701" data-name="Path 1701" class="cls-2" d="M84.266,395.161a.8.8,0,1,0-1.6,0,5.556,5.556,0,0,0,5.549,5.549.8.8,0,1,0,0-1.6A3.954,3.954,0,0,1,84.266,395.161Z" transform="translate(-79.82 -378.896)"/>
        <path id="Path_1702" data-name="Path 1702" class="cls-2" d="M402.552.329a.8.8,0,0,0-1.294,0c-.627.863-3.756,5.278-3.756,7.42a4.4,4.4,0,0,0,8.807,0C406.308,5.607,403.179,1.193,402.552.329ZM401.9,10.553a2.807,2.807,0,0,1-2.8-2.8c0-1.069,1.526-3.67,2.8-5.556,1.277,1.885,2.8,4.486,2.8,5.556A2.807,2.807,0,0,1,401.9,10.553Z" transform="translate(-382.309)"/>
      </g>
    </g>
  </g>
</svg>
