<svg xmlns="http://www.w3.org/2000/svg" viewBox="0 0 50 50">
  <defs>
    <style>
      .cls-1 {
        fill: none;
      }

      .cls-2, .cls-4 {
        fill: #607d8b;
      }

      .cls-3, .cls-4 {
        stroke: none;
      }
    </style>
  </defs>
  <g id="produto-em-po" transform="translate(-7218 -7095)">
    <g id="Path_1676" data-name="Path 1676" class="cls-1" transform="translate(7218 7095)">
      <path class="cls-3" d="M25,0A25,25,0,1,1,0,25,25,25,0,0,1,25,0Z"/>
      <path class="cls-4" d="M 25 1 C 21.75958061218262 1 18.61661911010742 1.634418487548828 15.65842056274414 2.885631561279297 C 12.80064010620117 4.094371795654297 10.23387908935547 5.825000762939453 8.029441833496094 8.029441833496094 C 5.825000762939453 10.23387908935547 4.094371795654297 12.80064010620117 2.885631561279297 15.65842056274414 C 1.634418487548828 18.61661911010742 1 21.75958061218262 1 25 C 1 28.24041938781738 1.634418487548828 31.38338088989258 2.885631561279297 34.34157943725586 C 4.094371795654297 37.19935989379883 5.825000762939453 39.76612091064453 8.029441833496094 41.97055816650391 C 10.23387908935547 44.17499923706055 12.80064010620117 45.90563201904297 15.65842056274414 47.1143684387207 C 18.61661911010742 48.36558151245117 21.75958061218262 49 25 49 C 28.24041938781738 49 31.38338088989258 48.36558151245117 34.34157943725586 47.1143684387207 C 37.19935989379883 45.90563201904297 39.76612091064453 44.17499923706055 41.97055816650391 41.97055816650391 C 44.17499923706055 39.76612091064453 45.90563201904297 37.19935989379883 47.1143684387207 34.34157943725586 C 48.36558151245117 31.38338088989258 49 28.24041938781738 49 25 C 49 21.75958061218262 48.36558151245117 18.61661911010742 47.1143684387207 15.65842056274414 C 45.90563201904297 12.80064010620117 44.17499923706055 10.23387908935547 41.97055816650391 8.029441833496094 C 39.76612091064453 5.825000762939453 37.19935989379883 4.094371795654297 34.34157943725586 2.885631561279297 C 31.38338088989258 1.634418487548828 28.24041938781738 1 25 1 M 25 0 C 38.80712127685547 0 50 11.19287872314453 50 25 C 50 38.80712127685547 38.80712127685547 50 25 50 C 11.19287872314453 50 0 38.80712127685547 0 25 C 0 11.19287872314453 11.19287872314453 0 25 0 Z"/>
    </g>
    <g id="baby-powder" transform="translate(7202.334 7104)">
      <g id="Group_3206" data-name="Group 3206" transform="translate(26.665 0)">
        <g id="Group_3205" data-name="Group 3205" transform="translate(0 0)">
          <path id="Path_1704" data-name="Path 1704" class="cls-2" d="M57.168,490.755a.667.667,0,1,0,.911.244A.667.667,0,0,0,57.168,490.755Z" transform="translate(-54.949 -459.999)"/>
          <path id="Path_1705" data-name="Path 1705" class="cls-2" d="M79.255,408.327a.667.667,0,1,0,.911.244A.667.667,0,0,0,79.255,408.327Z" transform="translate(-75.656 -382.722)"/>
          <path id="Path_1706" data-name="Path 1706" class="cls-2" d="M109.425,460.589a.667.667,0,1,0,.911.244A.667.667,0,0,0,109.425,460.589Z" transform="translate(-103.94 -431.718)"/>
          <path id="Path_1707" data-name="Path 1707" class="cls-2" d="M27,438.5a.667.667,0,1,0,.911.244A.667.667,0,0,0,27,438.5Z" transform="translate(-26.665 -411.011)"/>
          <path id="Path_1708" data-name="Path 1708" class="cls-2" d="M49.752,357.224a.667.667,0,1,0-.911-.244A.666.666,0,0,0,49.752,357.224Z" transform="translate(-47.372 -333.732)"/>
          <path id="Path_1709" data-name="Path 1709" class="cls-2" d="M131.511,378.155a.667.667,0,1,0,.911.244A.667.667,0,0,0,131.511,378.155Z" transform="translate(-124.645 -354.437)"/>
          <path id="Path_1710" data-name="Path 1710" class="cls-2" d="M124.777,7.129,118.492.843a2.9,2.9,0,0,0-4.086,0l-.778.778h0L103.407,11.843a2.892,2.892,0,0,0-.151,3.922l-1.421,1.421a.666.666,0,0,0,0,.943l5.657,5.657a.667.667,0,0,0,.943,0l1.421-1.421a2.9,2.9,0,0,0,3.922-.151l11-11a2.9,2.9,0,0,0,0-4.086ZM107.964,22.371l-4.714-4.714.943-.943,4.714,4.714Zm15.871-12.1-11,11a1.562,1.562,0,0,1-2.2,0l-.313-.313h0L104.664,15.3h0l-.313-.313a1.557,1.557,0,0,1,0-2.2l9.75-9.75,2.386,2.386a.667.667,0,0,0,.943-.943l-2.386-2.386.307-.307a1.562,1.562,0,0,1,2.2,0l6.285,6.286a1.562,1.562,0,0,1,0,2.2Z" transform="translate(-96.954 0)"/>
          <circle id="Ellipse_86" data-name="Ellipse 86" class="cls-2" cx="0.667" cy="0.667" r="0.667" transform="translate(14.173 11.392)"/>
          <path id="Path_1712" data-name="Path 1712" class="cls-2" d="M281.917,210.76a.667.667,0,1,0,.943,0A.667.667,0,0,0,281.917,210.76Z" transform="translate(-265.781 -197.405)"/>
          <path id="Path_1713" data-name="Path 1713" class="cls-2" d="M358.848,90.411a.667.667,0,1,0-.935.951l.011.011a.667.667,0,0,0,.935-.951Z" transform="translate(-337.023 -84.581)"/>
        </g>
      </g>
    </g>
  </g>
</svg>
