<svg xmlns="http://www.w3.org/2000/svg" viewBox="0 0 50 50">
  <defs>
    <style>
      .cls-1 {
        fill: none;
      }

      .cls-2, .cls-4 {
        fill: #8bc34a;
      }

      .cls-3, .cls-4 {
        stroke: none;
      }
    </style>
  </defs>
  <g id="produto-organico" transform="translate(-6944 -6892)">
    <g id="Path_1637" data-name="Path 1637" class="cls-1" transform="translate(6944 6892)">
      <path class="cls-3" d="M25,0A25,25,0,1,1,0,25,25,25,0,0,1,25,0Z"/>
      <path class="cls-4" d="M 25 1 C 21.75958061218262 1 18.61661911010742 1.634418487548828 15.65842056274414 2.885631561279297 C 12.80064010620117 4.094371795654297 10.23387908935547 5.825000762939453 8.029441833496094 8.029441833496094 C 5.825000762939453 10.23387908935547 4.094371795654297 12.80064010620117 2.885631561279297 15.65842056274414 C 1.634418487548828 18.61661911010742 1 21.75958061218262 1 25 C 1 28.24041938781738 1.634418487548828 31.38338088989258 2.885631561279297 34.34157943725586 C 4.094371795654297 37.19935989379883 5.825000762939453 39.76612091064453 8.029441833496094 41.97055816650391 C 10.23387908935547 44.17499923706055 12.80064010620117 45.90563201904297 15.65842056274414 47.1143684387207 C 18.61661911010742 48.36558151245117 21.75958061218262 49 25 49 C 28.24041938781738 49 31.38338088989258 48.36558151245117 34.34157943725586 47.1143684387207 C 37.19935989379883 45.90563201904297 39.76612091064453 44.17499923706055 41.97055816650391 41.97055816650391 C 44.17499923706055 39.76612091064453 45.90563201904297 37.19935989379883 47.1143684387207 34.34157943725586 C 48.36558151245117 31.38338088989258 49 28.24041938781738 49 25 C 49 21.75958061218262 48.36558151245117 18.61661911010742 47.1143684387207 15.65842056274414 C 45.90563201904297 12.80064010620117 44.17499923706055 10.23387908935547 41.97055816650391 8.029441833496094 C 39.76612091064453 5.825000762939453 37.19935989379883 4.094371795654297 34.34157943725586 2.885631561279297 C 31.38338088989258 1.634418487548828 28.24041938781738 1 25 1 M 25 0 C 38.80712127685547 0 50 11.19287872314453 50 25 C 50 38.80712127685547 38.80712127685547 50 25 50 C 11.19287872314453 50 0 38.80712127685547 0 25 C 0 11.19287872314453 11.19287872314453 0 25 0 Z"/>
    </g>
    <g id="apple" transform="translate(6925.638 6905)">
      <g id="Group_3147" data-name="Group 3147" transform="translate(32.362 0)">
        <g id="Group_3146" data-name="Group 3146" transform="translate(0)">
          <path id="Path_1682" data-name="Path 1682" class="cls-2" d="M53.6,10.73a6.548,6.548,0,0,0-4.185-4.239h0A6.49,6.49,0,0,0,43.8,7.577a6.04,6.04,0,0,0-.715-1.863A4.092,4.092,0,0,0,46.613.583a.63.63,0,0,0-.446-.446,4.092,4.092,0,0,0-5.125,3.478,6.046,6.046,0,0,0-3.2-.912.63.63,0,0,0,0,1.259,4.832,4.832,0,0,1,4.6,3.38,6.392,6.392,0,0,0-5.3-.878A6.548,6.548,0,0,0,32.962,10.7a11.152,11.152,0,0,0-.08,6.99,11.153,11.153,0,0,0,3.909,5.8,6.547,6.547,0,0,0,5.826,1.24,5.7,5.7,0,0,0,.634-.232,5.7,5.7,0,0,0,.692.258A5.77,5.77,0,0,0,45.606,25a7.032,7.032,0,0,0,4.166-1.483,11.152,11.152,0,0,0,3.909-5.8A11.152,11.152,0,0,0,53.6,10.73ZM42.295,4.456A2.836,2.836,0,0,1,45.47,1.281a2.836,2.836,0,0,1-3.175,3.175Zm10.179,12.9A9.89,9.89,0,0,1,49.023,22.5a5.323,5.323,0,0,1-4.717,1.047,4.462,4.462,0,0,1-.762-.308.63.63,0,0,0-.57,0,4.469,4.469,0,0,1-.717.285c-3.195.957-6.859-1.82-8.168-6.191s.225-8.7,3.42-9.662A5.6,5.6,0,0,1,42.871,9.25h0a.628.628,0,0,0,.871-.019A5.582,5.582,0,0,1,49.054,7.7h0C52.249,8.654,53.783,12.989,52.474,17.359Z" transform="translate(-32.362 0)"/>
        </g>
      </g>
      <g id="Group_3149" data-name="Group 3149" transform="translate(34.439 8.425)">
        <g id="Group_3148" data-name="Group 3148" transform="translate(0)">
          <path id="Path_1683" data-name="Path 1683" class="cls-2" d="M78.991,173a.63.63,0,0,0-.784-.422,4.679,4.679,0,0,0-2.941,3.286,9.294,9.294,0,0,0,.067,5.362.63.63,0,1,0,1.206-.361,8.14,8.14,0,0,1-.071-4.626,3.416,3.416,0,0,1,2.1-2.455A.63.63,0,0,0,78.991,173Z" transform="translate(-74.903 -172.552)"/>
        </g>
      </g>
    </g>
  </g>
</svg>
