<svg xmlns="http://www.w3.org/2000/svg" viewBox="0 0 24 26.181">
  <g id="remove-item" transform="translate(-18.269)">
    <g id="Group_2670" data-name="Group 2670" transform="translate(18.269)">
      <path id="Path_1343" data-name="Path 1343" d="M42.116,4.517a.531.531,0,0,0-.392-.153H36.457L35.263,1.517a2.362,2.362,0,0,0-.92-1.074A2.408,2.408,0,0,0,33,0H27.542A2.407,2.407,0,0,0,26.2.443a2.362,2.362,0,0,0-.921,1.074L24.081,4.363H18.814a.525.525,0,0,0-.545.545V6a.525.525,0,0,0,.545.545h1.636V22.772a3.729,3.729,0,0,0,.8,2.412,2.4,2.4,0,0,0,1.926,1H37.36a2.376,2.376,0,0,0,1.926-1.031,3.87,3.87,0,0,0,.8-2.446V6.545h1.637A.525.525,0,0,0,42.269,6V4.909A.532.532,0,0,0,42.116,4.517ZM27.286,2.369a.48.48,0,0,1,.29-.187h5.4a.481.481,0,0,1,.29.187l.818,1.994H26.451ZM37.906,22.7a1.931,1.931,0,0,1-.119.69,1.537,1.537,0,0,1-.247.46c-.085.1-.145.145-.179.145H23.178c-.034,0-.093-.048-.179-.145a1.529,1.529,0,0,1-.247-.46,1.938,1.938,0,0,1-.119-.69V6.545H37.906V22.7Z" transform="translate(-18.269 0)"/>
      <path id="Path_1344" data-name="Path 1344" d="M128.45,175.358h1.091a.525.525,0,0,0,.545-.546v-9.818a.525.525,0,0,0-.545-.545H128.45a.525.525,0,0,0-.545.545v9.818a.525.525,0,0,0,.545.546Z" transform="translate(-121.359 -154.631)"/>
      <path id="Path_1345" data-name="Path 1345" d="M201.539,175.358h1.091a.525.525,0,0,0,.545-.546v-9.818a.525.525,0,0,0-.545-.545h-1.091a.525.525,0,0,0-.545.545v9.818a.525.525,0,0,0,.545.546Z" transform="translate(-190.085 -154.631)"/>
      <path id="Path_1346" data-name="Path 1346" d="M274.628,175.358h1.091a.524.524,0,0,0,.545-.546v-9.818a.524.524,0,0,0-.545-.545h-1.091a.525.525,0,0,0-.546.545v9.818a.525.525,0,0,0,.546.546Z" transform="translate(-258.81 -154.631)"/>
    </g>
  </g>
</svg>
