<svg xmlns="http://www.w3.org/2000/svg" viewBox="0 0 50 50.001">
  <defs>
    <style>
      .cls-1 {
        fill: #7a93be;
      }
    </style>
  </defs>
  <path id="sem-lactose" class="cls-1" d="M37.335,12.333a25,25,0,1,0,25,25A25.028,25.028,0,0,0,37.335,12.333Zm23.672,25a23.579,23.579,0,0,1-6.483,16.251l-8.676-8.676V37.775c0-4.355-.35-5.593-2.5-8.831a10.341,10.341,0,0,1-1.7-5.467,1.225,1.225,0,0,0-.052-.325,1.659,1.659,0,0,0-1.082-2.923H34.147a1.659,1.659,0,0,0-1.082,2.923,1.23,1.23,0,0,0-.052.326,10.335,10.335,0,0,1-1.7,5.466c-.205.309-.388.6-.562.872l-9.668-9.671A23.654,23.654,0,0,1,61.008,37.333ZM31.049,31.986,44.521,45.457v6.084a.656.656,0,0,1-.443.627,21.55,21.55,0,0,1-6.743.943,21.521,21.521,0,0,1-6.739-.943.657.657,0,0,1-.443-.627l0-13.767C30.147,34.91,30.285,33.566,31.049,31.986Zm.669-1.208c.208-.34.441-.7.706-1.1a11.424,11.424,0,0,0,.82-1.48h8.18a11.4,11.4,0,0,0,.821,1.481c2,3.016,2.276,4,2.276,8.1v5.806Zm2.623-7.219h5.985a11.489,11.489,0,0,0,.567,3.309h-7.12A11.487,11.487,0,0,0,34.341,23.56Zm-.532-1.667a.339.339,0,0,1,.339-.338H40.52a.339.339,0,1,1,0,.678H34.148A.34.34,0,0,1,33.809,21.893ZM13.662,37.333a23.581,23.581,0,0,1,6.483-16.251L30.063,31c-1.039,1.955-1.243,3.466-1.243,6.775l0,13.767a1.983,1.983,0,0,0,1.349,1.886,22.884,22.884,0,0,0,7.161,1.012A22.9,22.9,0,0,0,44.5,53.427a1.981,1.981,0,0,0,1.349-1.886V46.784l7.738,7.738A23.654,23.654,0,0,1,13.662,37.333Z" transform="translate(-12.335 -12.333)"/>
</svg>
