<svg xmlns="http://www.w3.org/2000/svg" viewBox="0 0 50 50">
  <defs>
    <style>
      .cls-1 {
        fill: #5795ff;
      }
    </style>
  </defs>
  <path id="sem-acucar" class="cls-1" d="M37.3,12.3a25,25,0,1,0,25,25A25.018,25.018,0,0,0,37.3,12.3Zm23.674,25a23.425,23.425,0,0,1-6.5,16.247l-8.886-8.886,8.355-4.841a.7.7,0,0,0,.332-.6V28.679c0-.066-.066-.133-.066-.2h0c-.066-.066-.066-.133-.133-.2l-.066-.066h-.066l-9.019-5.239a.6.6,0,0,0-.663,0l-9.019,5.239h-.066l-.066.066c-.066.066-.133.133-.133.2h0a.244.244,0,0,0-.066.2v3.515l-4.178-2.387-9.682-9.682A23.641,23.641,0,0,1,60.974,37.3ZM22.247,35.377l7.759-4.443,5.637,5.637L30.006,39.82Zm7.1,5.57V49.9L21.65,45.457V36.5Zm15.252-7.692L36.9,28.812l7.692-4.443,7.692,4.443Zm8.422-3.316v8.886l-7.759,4.509V34.382Zm-9.085,4.443V43l-4.244-4.244V35.244c0-.066-.066-.133-.066-.2h0c-.066-.066-.066-.133-.133-.2l-.066-.066h-.066l-3.117-1.79v-3.05Zm-5.57,3.05-.6-.6.6-.332ZM37.7,35.377l-.862.531-2.454-2.454Zm-7.029,5.57L36.637,37.5l1.79,1.79v6.1L30.669,49.9Zm9.019-.332.531.531-.531-.332ZM13.626,37.3a23.425,23.425,0,0,1,6.5-16.247l8.886,8.886L20.589,34.78h-.066l-.066.066c-.066.066-.133.133-.133.2h0a.244.244,0,0,0-.066.2V45.788a.7.7,0,0,0,.332.6l9.019,5.239h.133c.066,0,.133.066.2.066a.244.244,0,0,0,.2-.066h.133l9.019-5.239a.7.7,0,0,0,.332-.6V42.406L43.8,44.793l9.682,9.682A23.593,23.593,0,0,1,13.626,37.3Z" transform="translate(-12.3 -12.3)"/>
</svg>
