<svg xmlns="http://www.w3.org/2000/svg" viewBox="0 0 50 50.001">
  <defs>
    <style>
      .cls-1 {
        fill: #100f0f;
      }
    </style>
  </defs>
  <path id="sem-aromatizantes" class="cls-1" d="M-7041,274a25.029,25.029,0,0,1,25-25,25.029,25.029,0,0,1,25,25,25.028,25.028,0,0,1-25,25A25.028,25.028,0,0,1-7041,274Zm1.327,0A23.7,23.7,0,0,0-7016,297.672a23.581,23.581,0,0,0,16.252-6.483l-9.9-9.9a9.344,9.344,0,0,1-1.367,2.47.185.185,0,0,1-.014.019.153.153,0,0,0-.012.018.081.081,0,0,1-.012.012.4.4,0,0,1-.053.055.182.182,0,0,1-.021.018.39.39,0,0,1-.064.044l-.019.011a.345.345,0,0,1-.074.032l-.018.007a.593.593,0,0,1-.081.018.073.073,0,0,1-.02,0,.5.5,0,0,1-.051.005h-13.138a.6.6,0,0,1-.111-.012.154.154,0,0,1-.026-.009.588.588,0,0,1-.078-.027c-.012-.005-.023-.012-.036-.019a.437.437,0,0,1-.06-.037l-.033-.026a.431.431,0,0,1-.051-.053c-.005-.007-.013-.011-.018-.018s-.013-.019-.02-.028a0,0,0,0,1,0,0A9.514,9.514,0,0,1-7027,277.96a9.311,9.311,0,0,1,5.47-8.551l-11.66-11.659A23.585,23.585,0,0,0-7039.673,274Zm40.863,16.252A23.586,23.586,0,0,0-6992.328,274,23.7,23.7,0,0,0-7016,250.327a23.582,23.582,0,0,0-16.251,6.485c3.379,3.225,6.113,5.91,9.024,8.824a.521.521,0,0,1,.232-.054h2.548v-1.057a.525.525,0,0,1,.525-.525h3.8a.525.525,0,0,1,.525.525v1.066c4.921.157,8.755,2.52,9.1,5.58a2.656,2.656,0,0,1,1.61,2.661c0,1.537-.926,2.741-2.108,2.741s-2.106-1.2-2.106-2.741a2.683,2.683,0,0,1,1.548-2.642c-.362-2.449-3.791-4.4-8.043-4.548v2.373a9.26,9.26,0,0,1,6.552,8.943,9.576,9.576,0,0,1-.177,1.829C-7006.293,282.749-7002.886,286.176-6998.81,290.252Zm-27.138-12.292a8.47,8.47,0,0,0,1.625,4.988h12.6a8.407,8.407,0,0,0,1.248-2.49l-10.247-10.246A8.244,8.244,0,0,0-7025.948,277.96Zm15.8.9a8.418,8.418,0,0,0,.048-.9,8.094,8.094,0,0,0-7.923-8.24,7.657,7.657,0,0,0-1.073.075C-7016.578,272.346-7013.723,275.246-7010.149,278.856Zm2.094-5.022c0,.915.482,1.688,1.055,1.688s1.057-.772,1.057-1.688-.484-1.689-1.057-1.689S-7008.055,272.919-7008.055,273.834Zm-8.6-5.057v-3.725h-2.744v3.725a8.771,8.771,0,0,1,1.371-.108A8.815,8.815,0,0,1-7016.652,268.777Zm-3.8-.345v-1.8h-1.786C-7021.65,267.219-7021.058,267.816-7020.448,268.432Z" transform="translate(7041 -249)"/>
</svg>
