<svg xmlns="http://www.w3.org/2000/svg" viewBox="0 0 50 50.001">
  <defs>
    <style>
      .cls-1 {
        fill: #de481e;
      }
    </style>
  </defs>
  <path id="sem-corante" class="cls-1" d="M-7041,274a25.029,25.029,0,0,1,25-25,25.029,25.029,0,0,1,25,25,25.028,25.028,0,0,1-25,25A25.028,25.028,0,0,1-7041,274Zm1.327,0A23.7,23.7,0,0,0-7016,297.672a23.581,23.581,0,0,0,16.252-6.483l-14.547-14.546-5.325,5.329a2.891,2.891,0,0,1-3.614.38l-1.675,1.675a.6.6,0,0,1-.85,0,.6.6,0,0,1,0-.85l1.675-1.675a2.9,2.9,0,0,1,.376-3.615l5.33-5.325-14.812-14.811A23.585,23.585,0,0,0-7039.673,274Zm40.863,16.252A23.586,23.586,0,0,0-6992.328,274,23.7,23.7,0,0,0-7016,250.327a23.582,23.582,0,0,0-16.251,6.485c5.49,5.239,9.274,9.052,14.886,14.738l1.251-1.25-1.735-1.737a.609.609,0,0,1-.01-.852.59.59,0,0,1,.415-.184.6.6,0,0,1,.424.166,2.494,2.494,0,0,0,3.486.019l3.868-3.866a2.887,2.887,0,0,1,4.085,0,2.888,2.888,0,0,1,0,4.085l-3.879,3.866a2.457,2.457,0,0,0,0,3.467.6.6,0,0,1,.143.659.6.6,0,0,1-.563.375.585.585,0,0,1-.407-.166l-.014-.014v0l-1.733-1.735-1.277,1.278C-7009.547,279.47-7004.931,284.131-6998.81,290.252Zm-24.048-11.516a1.689,1.689,0,0,0,.026,2.361,1.687,1.687,0,0,0,2.361.027l5.328-5.328-2.387-2.387Zm8.705-3.93,1.273-1.274-2.387-2.387-1.258,1.258Zm5.336-10.109-3.868,3.866a3.613,3.613,0,0,1-2.444,1.023l.287.286,3.237,3.235.256.258a3.626,3.626,0,0,1,1.052-2.416l3.872-3.866a1.69,1.69,0,0,0,0-2.389,1.684,1.684,0,0,0-1.193-.493A1.686,1.686,0,0,0-7008.817,264.7Z" transform="translate(7041 -249)"/>
</svg>
