<svg xmlns="http://www.w3.org/2000/svg" viewBox="0 0 50 50">
  <defs>
    <style>
      .cls-1 {
        fill: #fe264a;
      }
    </style>
  </defs>
  <g id="sem-gluten" transform="translate(-660.3 -3449)">
    <path id="Path_1150" data-name="Path 1150" class="cls-1" d="M37.3,12.3a25,25,0,1,0,25,25A25.018,25.018,0,0,0,37.3,12.3Zm23.674,25a23.425,23.425,0,0,1-6.5,16.247L42.34,41.411a7.883,7.883,0,0,0,1.525-1.989,1.128,1.128,0,0,0,.066-.464,8.8,8.8,0,0,0,4.045-3.647L51.69,31.6a.656.656,0,1,0-.928-.928l-3.448,3.448a9.174,9.174,0,0,0-1.989-.729,7.288,7.288,0,0,0,1.194-.928,8.024,8.024,0,0,0,2.122-5.5L50.7,24.9a.656.656,0,0,0-.928-.928l-2.056,2.056a8.014,8.014,0,0,0-5.438,2.122,6.306,6.306,0,0,0-.995,1.326,7.292,7.292,0,0,0-.8-2.188l3.448-3.448A.656.656,0,1,0,43,22.91l-3.714,3.714a9.082,9.082,0,0,0-3.647,4.111c-.133,0-.2,0-.265.066a15.09,15.09,0,0,0-1.989,1.525l-12.334-12.2A23.641,23.641,0,0,1,60.974,37.3ZM32.592,35.907a4.492,4.492,0,0,1,.8-1.592l2.52,2.52a6.918,6.918,0,0,1-2.719,3.581A7.207,7.207,0,0,1,32.592,35.907Zm9.416-1.26a6.966,6.966,0,0,1,4.443.531A6.918,6.918,0,0,1,42.87,37.9a.4.4,0,0,1-.265.066h0a8.773,8.773,0,0,0-3.316-.729,3.229,3.229,0,0,0-.8.066A6.394,6.394,0,0,1,42.008,34.647Zm-.531-1.459A6.736,6.736,0,0,1,43.2,29.077a7.158,7.158,0,0,1,4.111-1.724,6.5,6.5,0,0,1-1.724,4.111A6.634,6.634,0,0,1,41.478,33.189Zm-1.592-.663A6.6,6.6,0,0,1,37.3,35.974a8.883,8.883,0,0,0-.8-4.111.5.5,0,0,1,.066-.265,7.21,7.21,0,0,1,2.719-3.581A6.4,6.4,0,0,1,39.886,32.525Zm-5.7.729a6.349,6.349,0,0,1,1.127-.928,7.955,7.955,0,0,1,.729,2.785Zm.995,7.162h0l.066-.066a6.343,6.343,0,0,1,2.586-1.592l2.52,2.52a5.961,5.961,0,0,1-1.592.8,4.276,4.276,0,0,1-1.326.2,7.427,7.427,0,0,1-3.117-.729A5.676,5.676,0,0,1,35.178,40.417Zm4.377-1.79a8.394,8.394,0,0,1,2.785.729,6.349,6.349,0,0,1-.928,1.127ZM13.626,37.3a23.425,23.425,0,0,1,6.5-16.247L32.393,33.321a6.7,6.7,0,0,0-1.061,2.188,8.234,8.234,0,0,0,.928,5.9l-9.35,9.416a.641.641,0,0,0,0,.928.641.641,0,0,0,.928,0l9.35-9.35a9.784,9.784,0,0,0,4.244,1.127,6.208,6.208,0,0,0,3.846-1.26l12.2,12.2A23.593,23.593,0,0,1,13.626,37.3Z" transform="translate(648 3436.7)"/>
  </g>
</svg>
