<svg xmlns="http://www.w3.org/2000/svg" viewBox="0 0 50 50.001">
  <defs>
    <style>
      .cls-1 {
        fill: #daf204;
      }
    </style>
  </defs>
  <path id="sem-conservantes" class="cls-1" d="M-7041,274a25.029,25.029,0,0,1,25-25,25.029,25.029,0,0,1,25,25,25.028,25.028,0,0,1-25,25A25.028,25.028,0,0,1-7041,274Zm1.327,0A23.7,23.7,0,0,0-7016,297.672a23.581,23.581,0,0,0,16.252-6.483l-8.562-8.561a8.994,8.994,0,0,1-3.018,3.055v.928a.391.391,0,0,1-.391.391h-8.6a.39.39,0,0,1-.39-.391v-.928a9.016,9.016,0,0,1-4.3-7.667,8.975,8.975,0,0,1,4.366-7.71l-12.557-12.555A23.585,23.585,0,0,0-7039.673,274Zm40.863,16.252A23.586,23.586,0,0,0-6992.328,274,23.7,23.7,0,0,0-7016,250.327a23.582,23.582,0,0,0-16.251,6.485c4.85,4.629,8.37,8.145,12.995,12.823l.115-.044v-2.513h-.391a.391.391,0,0,1-.391-.391v-1.564a.392.392,0,0,1,.391-.391h1.481l-.3-2.292a.388.388,0,0,1,.092-.309.4.4,0,0,1,.3-.133h3.905a.39.39,0,0,1,.293.133.389.389,0,0,1,.1.309l-.306,2.292h1.48a.392.392,0,0,1,.391.391v1.564a.391.391,0,0,1-.391.391h-.39v2.513a8.97,8.97,0,0,1,5.857,8.424,8.962,8.962,0,0,1-.645,3.336C-7005.106,283.941-7002.188,286.874-6998.81,290.252Zm-25.237-10.576a8.24,8.24,0,0,0,3.93,5.448.389.389,0,0,1,.194.337v.758h7.814v-.758a.389.389,0,0,1,.194-.337,8.21,8.21,0,0,0,3.033-3.067l-2.1-2.1a5.315,5.315,0,0,0-1.116-.089,5.047,5.047,0,0,0-2.216.618,5.268,5.268,0,0,1-2.748.659,5.763,5.763,0,0,1-2.652-.788,6.006,6.006,0,0,0-2.416-.779q-.3-.028-.6-.028A6.989,6.989,0,0,0-7024.047,279.676Zm1.99-.876a6.827,6.827,0,0,1,2.7.861,4.973,4.973,0,0,0,2.327.7,4.509,4.509,0,0,0,2.384-.583,5.734,5.734,0,0,1,2.527-.694c.089,0,.178,0,.267,0l-8.208-8.207a8.192,8.192,0,0,0-4.156,7.138,8.265,8.265,0,0,0,.047.889,7.85,7.85,0,0,1,1.44-.136Q-7022.391,278.768-7022.057,278.8Zm13.928,1.468a8.21,8.21,0,0,0,.316-2.253,8.191,8.191,0,0,0-5.593-7.777.393.393,0,0,1-.267-.371v-2.788h-.622l-.163,1.223a.389.389,0,0,1-.385.339h-2.345a.389.389,0,0,1-.387-.339l-.163-1.223h-.624v2.788a.392.392,0,0,1-.265.371l-.026.009c2.588,2.62,5.542,5.62,9.258,9.372A9.134,9.134,0,0,1-7008.129,280.268Zm-8.715-12.408h1.66l.1-.781h-1.866Zm-2.3-1.562h6.252v-.783h-6.252Zm1.878-1.564h2.5l.26-1.953h-3.015Zm.461,19.337a1.369,1.369,0,0,1,1.366-1.368,1.369,1.369,0,0,1,1.368,1.368,1.37,1.37,0,0,1-1.368,1.368A1.37,1.37,0,0,1-7016.8,284.07Zm.781,0a.586.586,0,0,0,.585.587.587.587,0,0,0,.586-.587.586.586,0,0,0-.586-.585A.584.584,0,0,0-7016.021,284.07Zm-4.683-.977a1.565,1.565,0,0,1,1.562-1.562,1.565,1.565,0,0,1,1.564,1.562,1.566,1.566,0,0,1-1.564,1.564A1.565,1.565,0,0,1-7020.7,283.093Zm.781,0a.784.784,0,0,0,.781.783.783.783,0,0,0,.781-.783.782.782,0,0,0-.781-.781A.784.784,0,0,0-7019.923,283.093Zm6.25-.781a1.564,1.564,0,0,1,1.564-1.562,1.563,1.563,0,0,1,1.562,1.562,1.565,1.565,0,0,1-1.562,1.564A1.566,1.566,0,0,1-7013.673,282.312Zm.783,0a.781.781,0,0,0,.781.781.782.782,0,0,0,.781-.781.782.782,0,0,0-.781-.781A.781.781,0,0,0-7012.89,282.312Z" transform="translate(7041 -249)"/>
</svg>
