<svg xmlns="http://www.w3.org/2000/svg" viewBox="0 0 151.506 141.616">
  <defs>
    <style>
      .cls-1, .cls-3 {
        fill: #6b6c6c;
      }

      .cls-2 {
        fill: #d38947;
      }

      .cls-3 {
        fill-rule: evenodd;
      }

      .cls-4 {
        fill: #fff;
      }

      .cls-5 {
        fill: none;
      }
    </style>
  </defs>
  <g id="Group_41" data-name="Group 41" transform="translate(-621.898 -150.384)">
    <path id="Path_156" data-name="Path 156" class="cls-1" d="M711.774,268.3c-2.743-.847-3.293-3.2-3.123-5.809h3.959c0,1.8.069,3.308,2.246,3.308a1.881,1.881,0,0,0,1.979-2.14c0-3.388-7.945-3.6-7.945-9.211,0-2.945,1.414-5.3,6.22-5.3,3.843,0,5.765,1.722,5.5,5.663h-3.845c0-1.412-.239-2.839-1.838-2.839a1.835,1.835,0,0,0-2.036,2.005c0,3.578,7.958,3.269,7.958,9.186,0,3.267-1.612,4.612-3.575,5.137"/>
    <path id="Path_157" data-name="Path 157" class="cls-1" d="M730.457,255.25c.029-1.749-.267-3.283-2.359-3.283-2.46,0-2.46,3.31-2.46,6.969,0,5.89.581,6.938,2.827,6.938a5.978,5.978,0,0,0,1.964-.363V261.33H728.28v-2.894h6.107v9.551c-.424.094-1.09.2-1.837.308h-6.755c-3.66-.915-4.156-3.819-4.156-9.576,0-4.747.242-9.576,6.7-9.576,3.873,0,6.277,2.166,6.05,6.107"/>
    <path id="Path_158" data-name="Path 158" class="cls-1" d="M741.849,249.143c3.449-.012,5.328,1.346,5.595,4.372v1.291H743.6c0-1.371-.339-2.839-1.939-2.839a1.839,1.839,0,0,0-2.048,2.005c0,3.308,6.8,3.295,7.829,7.948v2.73a4.384,4.384,0,0,1-3.434,3.645H738.5c-2.727-.847-3.28-3.2-3.11-5.809h3.942c0,1.8.085,3.308,2.247,3.308a1.886,1.886,0,0,0,1.995-2.14c0-3.388-7.958-3.6-7.958-9.211,0-2.945,1.413-5.286,6.233-5.3"/>
    <path id="Path_159" data-name="Path 159" class="cls-2" d="M697.881,268.282H755.2v.767H697.881v-.767"/>
    <rect id="Rectangle_8" data-name="Rectangle 8" class="cls-2" width="0.763" height="27.26" transform="translate(747.416 245.675)"/>
    <path id="Path_160" data-name="Path 160" class="cls-2" d="M683.9,218.561v-14l9.328,9.319,21.143-21.142a.508.508,0,0,1-.056-.04c0-.013,0-.013-.016-.013a29.93,29.93,0,1,0,5.922,8.217L693.232,227.9"/>
    <path id="Path_161" data-name="Path 161" class="cls-2" d="M645.9,222.34l4.254-.632.327,2.166-10.628,1.586-.324-2.18,4.735-.7-.368-2.5-4.734.713-.327-2.179,10.616-1.588.323,2.179-4.254.633"/>
    <path id="Path_162" data-name="Path 162" class="cls-2" d="M641.068,229.885l2.444-.214.99,2.824-2.049,1.345.764,2.192,9.2-6.241-.961-2.743-11.093.793m5.554,3.671-.691-1.976,4.706-.578.013.027Z"/>
    <path id="Path_163" data-name="Path 163" class="cls-2" d="M648.868,235.32c2.473-1.4,4.836-2.73,6.629.429,1.1,1.951.437,3.363-1.611,4.425l-1.059-1.882c1.244-.7,1.6-1.185,1.272-1.75-.609-1.074-1.724-.631-4.128.727-2.387,1.345-3.349,2.071-2.742,3.147.508.9,1.655.2,2.4-.189l1.074,1.884c-2.5,1.412-3.858.887-4.875-.9-1.782-3.159.593-4.505,3.037-5.889"/>
    <path id="Path_164" data-name="Path 164" class="cls-2" d="M653.138,242.527c2.2-1.8,4.295-3.509,6.585-.7,1.426,1.748,1.018,3.24-.82,4.64l-1.37-1.682c1.1-.9,1.37-1.425.946-1.936-.776-.967-1.81-.336-3.927,1.413-2.137,1.734-2.956,2.609-2.177,3.564.65.793,1.652-.082,2.331-.592l1.369,1.68c-2.218,1.816-3.644,1.519-4.944-.067-2.291-2.81-.17-4.546,2.007-6.321"/>
    <path id="Path_165" data-name="Path 165" class="cls-2" d="M655.1,253.031l1.653,1.439,2.884-3.282,1.228,1.062c1.939,1.709,3.478.472,4.282-.443,1.289-1.479,1.515-2.931,0-4.263l-2.981-2.609m.566,2.7.835.726c.748.646.437,1.359-.141,2.017a1.328,1.328,0,0,1-1.781.364l-.921-.807Z"/>
    <path id="Path_166" data-name="Path 166" class="cls-3" d="M748.252,241.371V214a54.738,54.738,0,0,0-54.737-54.749c-30.245,0-54.637,23.468-54.637,53.7,0,.041,10.839.041,10.839,0,0-24.181,19.6-42.753,43.8-42.753a43.8,43.8,0,0,1,43.8,43.8v27.369"/>
    <path id="Path_167" data-name="Path 167" class="cls-4" d="M655.017,188.6c-.946,1.4-1.936,1.117-2.84.431l.763-1.143c.522.349.974.619,1.386,0a.665.665,0,0,0-.227-.995c-.977-.646-2.573,1.6-4.184.511-.849-.565-1.257-1.426-.324-2.811a1.628,1.628,0,0,1,2.683-.484l-.735,1.1c-.408-.269-.861-.485-1.172-.027a.635.635,0,0,0,.182.981c1.034.686,2.476-1.654,4.172-.51,1.411.941.874,2.084.3,2.944"/>
    <path id="Path_168" data-name="Path 168" class="cls-4" d="M656.006,183.286l-4.354-1.466.977-1.13,2.727,1.036-1.426-2.569.9-1.063,2.061,4.156,1.725,1.466-.889,1.035"/>
    <path id="Path_169" data-name="Path 169" class="cls-4" d="M661.8,180.569c-1.229,1.157-2.146.645-2.869-.229l1-.927c.424.443.808.82,1.358.295a.652.652,0,0,0,0-1.009c-.8-.86-2.869.969-4.2-.443-.691-.753-.889-1.682.327-2.811.974-.914,1.866-.929,2.727.134l-.974.9c-.327-.35-.735-.658-1.131-.282a.624.624,0,0,0-.044.982c.848.914,2.784-1.05,4.185.457,1.159,1.224.38,2.219-.383,2.932"/>
    <path id="Path_170" data-name="Path 170" class="cls-4" d="M663.568,170.6l.65.861-1.216.914,3.249,4.357-1.087.82L661.9,173.2l-1.216.915-.65-.874"/>
    <path id="Path_171" data-name="Path 171" class="cls-4" d="M668.23,175.337l-3.349-5.595,3.066-1.829.509.861-1.879,1.129.82,1.372,1.737-1.035.522.86-1.737,1.036.977,1.641,1.948-1.17.509.861"/>
    <path id="Path_172" data-name="Path 172" class="cls-4" d="M672.274,172.9l-2.56-6,2.023-.861,2.683,3.672h.016l-.735-4.506,1.951-.833,2.557,6-1.216.524-1.979-4.639-.013.013.82,5.124-1.2.511-3.079-4.156h-.016l1.979,4.626"/>
    <path id="Path_173" data-name="Path 173" class="cls-4" d="M681.02,166.205c-.367-1.694-.707-3.295,1.5-3.778,1.357-.283,2.064.349,2.3,1.734l-1.3.269c-.185-.847-.411-1.129-.807-1.049-.748.162-.692.888-.352,2.529s.606,2.326,1.357,2.164c.619-.134.421-.927.336-1.438l1.317-.282c.367,1.708-.2,2.407-1.458,2.676-2.2.471-2.542-1.157-2.9-2.825"/>
    <path id="Path_174" data-name="Path 174" class="cls-4" d="M686.942,168.357l-.663-6.482,3.547-.364.113,1-2.19.215.154,1.6,2.02-.2.1,1-2.02.215.2,1.9,2.259-.242.1,1.008"/>
    <path id="Path_175" data-name="Path 175" class="cls-4" d="M693.119,165.238h.352c1.046.013.977.672.961,1.452a2.983,2.983,0,0,0,.141,1.263l1.345.015a8.96,8.96,0,0,1-.142-1.924,1.16,1.16,0,0,0-1.174-1.291v-.013a1.408,1.408,0,0,0,1.215-1.6c.016-1.1-.578-1.708-1.511-1.708l-2.529-.026-.044,6.522,1.373.013m.028-5.513h.607c.436,0,.707.241.691.86,0,.417-.154.955-.707.955h-.591Z"/>
    <path id="Path_176" data-name="Path 176" class="cls-4" d="M701.67,162.023l-.129,1.076-1.511-.175-.622,5.407-1.357-.162.622-5.393-1.511-.174.126-1.076"/>
    <path id="Path_177" data-name="Path 177" class="cls-4" d="M701.84,168.707l1.285-6.388,1.341.269-1.285,6.389"/>
    <path id="Path_178" data-name="Path 178" class="cls-4" d="M704.579,169.286l1.781-6.268,3.264.915-.267.968-1.951-.551-.452,1.613,1.866.525-.283.969-1.866-.538-.776,2.743"/>
    <path id="Path_179" data-name="Path 179" class="cls-4" d="M708.748,170.563l2.262-6.119,1.288.471-2.262,6.119"/>
    <path id="Path_180" data-name="Path 180" class="cls-4" d="M712.735,168.572c.735-1.559,1.442-3.052,3.478-2.084,1.257.6,1.439,1.533.792,2.771l-1.216-.566c.38-.78.38-1.142.012-1.318-.707-.336-1.1.283-1.809,1.79s-.946,2.205-.239,2.541c.566.269.889-.484,1.131-.942l1.216.579c-.751,1.574-1.612,1.789-2.771,1.237-2.036-.968-1.329-2.461-.594-4.008"/>
    <path id="Path_181" data-name="Path 181" class="cls-4" d="M720.749,170.549l-.015-.013-2.036,2.058,1.1.685m-4.1.323,5.017-4.558,1.527.967-1.979,6.456-1.216-.766.465-1.412-1.583-1-1.087,1.022Z"/>
    <path id="Path_182" data-name="Path 182" class="cls-4" d="M727.63,174.006l-.663.848-1.2-.942-3.365,4.277-1.075-.833,3.365-4.291-1.2-.928.678-.861"/>
    <path id="Path_183" data-name="Path 183" class="cls-4" d="M724.281,179.789,728.72,175l.99.942-4.439,4.774"/>
    <path id="Path_184" data-name="Path 184" class="cls-4" d="M727.715,183.407c1.5,1.681,2.742.564,4.015-.579s2.516-2.246,1.017-3.927-2.742-.579-4.027.578c-1.273,1.13-2.5,2.247-1,3.928m.735-.66c-.522-.564-.041-1.129,1.2-2.246s1.85-1.519,2.359-.941.041,1.13-1.2,2.246S728.959,183.326,728.45,182.747Z"/>
    <path id="Path_185" data-name="Path 185" class="cls-4" d="M730.118,186.042l5.385-3.685,1.046,1.52-2.743,3.981v.013l3.732-2.542.719,1.048-5.385,3.685-1.015-1.479,2.938-4.17-.013-.013-3.943,2.69"/>
    <rect id="Rectangle_9" data-name="Rectangle 9" class="cls-5" width="151.506" height="141.616" transform="translate(621.898 150.384)"/>
  </g>
</svg>
