<svg id="shopping-cart" xmlns="http://www.w3.org/2000/svg" viewBox="0 0 23.801 22.401">
  <defs>
    <style>
      .cls-1 {
        fill: #fff;
      }
    </style>
  </defs>
  <path id="Path_1146" data-name="Path 1146" class="cls-1" d="M23.654,17.4a.764.764,0,0,0-.617-.314H5.855a.741.741,0,0,0-.1.006l-.707-2.038a.764.764,0,0,0-.442-.461l-3.564-1.4a.764.764,0,0,0-.559,1.422l3.237,1.272,3.962,11.42a.633.633,0,0,0-.391.383L6.147,30.872a.636.636,0,0,0,.6.852h.588a2.291,2.291,0,1,0,3.406,0h4.995a2.291,2.291,0,1,0,3.405,0h.716a.636.636,0,0,0,0-1.273H7.651l.709-1.971a.756.756,0,0,0,.294.061h11.2a.763.763,0,0,0,.727-.53l3.182-9.928A.763.763,0,0,0,23.654,17.4ZM9.037,34.269a1.018,1.018,0,1,1,1.018-1.018A1.019,1.019,0,0,1,9.037,34.269Zm8.4,0a1.018,1.018,0,1,1,1.018-1.018A1.019,1.019,0,0,1,17.437,34.269Zm4-13.937h-3.9V18.614h4.448Zm-1.122,3.5H17.543V21.86H20.95Zm-7.824,0V21.86h3.521v1.973Zm3.521,1.527v1.655H12.494V25.36ZM7.41,21.86h3.557v1.973H8.094Zm5.084-1.527V18.614h3.521v1.718Zm-1.527-1.718v1.718H6.88l-.6-1.718ZM8.624,25.36h2.343v1.655H9.2Zm8.919,1.655V25.36h2.286l-.53,1.655Z" transform="translate(0 -13.141)"/>
</svg>
