<?xml version="1.0" encoding="utf-8"?>
<!-- Generator: Adobe Illustrator 23.0.2, SVG Export Plug-In . SVG Version: 6.00 Build 0)  -->
<svg version="1.1" id="Capa_1" xmlns="http://www.w3.org/2000/svg" xmlns:xlink="http://www.w3.org/1999/xlink" x="0px" y="0px"
	 viewBox="0 0 508.5 508.5" style="enable-background:new 0 0 508.5 508.5;" xml:space="preserve">
<style type="text/css">
	.st0{fill:#FFFFFF;}
</style>
<g>
	<g>
		<g>
			<path class="st0" d="M254.3,0C113.8,0,0,113.8,0,254.3s113.8,254.3,254.3,254.3s254.3-113.8,254.3-254.3S394.7,0,254.3,0z
				 M371.7,403.3c-3.2,5.8-9.1,9.1-15.3,9.1c-2.9,0-5.7-0.7-8.4-2.1c-40.7-22.4-87-34.3-133.7-34.3c-28,0-55.7,4.2-82.1,12.4
				c-9.2,2.9-19-2.3-21.8-11.5c-2.9-9.2,2.3-28.7,11.5-31.6c29.8-9.2,61-13.9,92.5-13.9c52.6,0,104.7,13.3,150.5,38.6
				C373.3,374.5,376.4,394.9,371.7,403.3z M404,307.5c-3.6,7-10.7,18.3-18.1,18.3c-3.2,0-6.4-0.7-9.4-2.3
				c-50.5-26.2-105-39.5-162.2-39.5c-31.5,0-62.8,4.1-93,12.5c-10.9,3-22.1-3.4-25-14.3c-2.9-10.9,3.5-29.4,14.3-32.4
				c33.7-9.2,68.6-13.9,103.7-13.9c62.9,0,125.4,15.3,180.9,44.1C405.3,285.2,409.2,297.5,404,307.5z M417.5,230.8
				c-3.5,0-7-0.8-10.4-2.4c-60.2-30-125.1-45.2-192.8-45.2c-35.3,0-70.4,4.3-104.5,12.7c-12.5,3.1-25.1-4.5-28.2-17
				c-3.1-12.5,4.5-27.6,17-30.6c37.7-9.4,76.7-14.1,115.7-14.1c75,0,146.9,16.9,213.6,50.1c11.5,5.8,16.2,19.7,10.5,31.2
				C434.3,223.7,426.1,230.8,417.5,230.8z"/>
		</g>
	</g>
</g>
</svg>
