<svg xmlns="http://www.w3.org/2000/svg" viewBox="0 0 40 40">
  <defs>
    <style>
      .cls-1 {
        fill: #010101;
      }

      .cls-2 {
        fill: #fff;
      }
    </style>
  </defs>
  <g id="upload-image" transform="translate(-691 -356)">
    <path id="Rectangle_862" data-name="Rectangle 862" class="cls-1" d="M0,0H20A20,20,0,0,1,40,20v0A20,20,0,0,1,20,40h0A20,20,0,0,1,0,20V0A0,0,0,0,1,0,0Z" transform="translate(691 356)"/>
    <g id="Group" transform="translate(695.601 354.7)">
      <path id="Union_9" data-name="Union 9" class="cls-2" d="M3513.292,12062.019a2.478,2.478,0,0,1-2.479-2.477v-6.566a2.478,2.478,0,0,1,2.479-2.476h.887l1.135-1.962a2.481,2.481,0,0,1,2.146-1.238h4.707a2.481,2.481,0,0,1,2.146,1.238l1.135,1.962h.887a2.478,2.478,0,0,1,2.479,2.476v6.566a2.478,2.478,0,0,1-2.479,2.477Zm-.826-9.043v6.566a.825.825,0,0,0,.826.823h13.044a.825.825,0,0,0,.826-.823l.021-6.566a.825.825,0,0,0-.826-.823H3525a.841.841,0,0,1-.724-.414l-1.383-2.374a.826.826,0,0,0-.72-.414h-4.686a.831.831,0,0,0-.724.414l-1.383,2.374a.832.832,0,0,1-.72.414h-1.362A.825.825,0,0,0,3512.466,12052.976Zm2.909,2.313a4.439,4.439,0,1,1,4.438,4.438A4.439,4.439,0,0,1,3515.375,12055.289Zm1.653,0a2.786,2.786,0,1,0,2.785-2.788A2.783,2.783,0,0,0,3517.028,12055.289Z" transform="translate(-3504.414 -12033)"/>
    </g>
  </g>
</svg>
