<svg xmlns="http://www.w3.org/2000/svg" viewBox="0 0 157 157">
  <defs>
    <style>
      .cls-1 {
        fill: #fff;
      }

      .cls-2 {
        fill: #007847;
      }

      .cls-3 {
        fill: #6b1a02;
      }

      .cls-4 {
        fill: #33a65e;
      }
    </style>
  </defs>
  <g id="Group_14" data-name="Group 14" transform="translate(-489.768 -265)">
    <circle id="Ellipse_2" data-name="Ellipse 2" class="cls-1" cx="78.5" cy="78.5" r="78.5" transform="translate(489.768 265)"/>
    <path id="Path_42" data-name="Path 42" class="cls-2" d="M635.99,343.5a67.722,67.722,0,0,1-135.444,0Z"/>
    <path id="Path_43" data-name="Path 43" class="cls-3" d="M646.768,343.5a78.5,78.5,0,1,1-78.5-78.5A78.5,78.5,0,0,1,646.768,343.5Zm-78.5-72.391a72.391,72.391,0,1,0,72.39,72.391A72.391,72.391,0,0,0,568.268,271.109Z"/>
    <path id="Path_44" data-name="Path 44" class="cls-4" d="M505.524,369.032,635.99,343.5,504.368,365.985Q504.911,367.527,505.524,369.032Z"/>
    <path id="Path_45" data-name="Path 45" class="cls-4" d="M520.278,391.282,635.99,343.5,518.028,388.912Q519.124,390.124,520.278,391.282Z"/>
    <path id="Path_46" data-name="Path 46" class="cls-4" d="M545.954,407.458,635.99,343.5l-93.677,62.568Q544.107,406.814,545.954,407.458Z"/>
    <path id="Path_47" data-name="Path 47" class="cls-4" d="M582.475,409.728,635.99,343.5l-58.242,67.064Q580.139,410.228,582.475,409.728Z"/>
    <g id="Group_12" data-name="Group 12">
      <path id="Path_48" data-name="Path 48" class="cls-2" d="M535.318,306.044v21.768c0,2.916.795,3.677,2.12,3.677s2.12-.761,2.12-3.677V306.044H546.6v19.781c0,8.454-3.256,10.99-9.162,10.99s-9.163-2.536-9.163-10.99V306.044Z"/>
      <path id="Path_49" data-name="Path 49" class="cls-2" d="M559.4,314.751v-.718c0-1.775-.643-3.255-2.006-3.255-1.515,0-2.2,1.31-2.2,2.663,0,5.96,11.51,3.043,11.51,14.075,0,6.425-3.37,9.3-9.579,9.3-5.831,0-9.087-2.24-9.087-8.5v-1.056h6.815v.718c0,2.578.947,3.508,2.31,3.508,1.438,0,2.271-1.268,2.271-2.916,0-5.96-11.055-3-11.055-13.7,0-6.086,2.915-9.425,8.859-9.425,6.134,0,8.746,2.831,8.746,9.3Z"/>
      <path id="Path_50" data-name="Path 50" class="cls-2" d="M569.96,306.044h10.223c8.14,0,8.556,7.186,8.556,15.09s-.416,15.089-8.556,15.089H569.96ZM577,330.559h1.4c2.726,0,3.067-1.268,3.067-9.425s-.341-9.426-3.067-9.426H577Z"/>
      <path id="Path_51" data-name="Path 51" class="cls-2" d="M595.447,306.044h8.859l6.588,30.179h-7.5l-.719-5.283h-5.6l-.72,5.283h-7.5Zm4.467,6.171h-.075l-1.931,12.807h3.937Z"/>
    </g>
    <g id="Group_13" data-name="Group 13">
      <path id="Path_52" data-name="Path 52" class="cls-1" d="M523.821,351.736c5.5,0,7.381,3.35,7.381,11.949s-1.881,11.949-7.381,11.949-7.38-3.35-7.38-11.949S518.322,351.736,523.821,351.736Zm0,19.839c1.65,0,1.824-1.674,1.824-7.89s-.174-7.891-1.824-7.891S522,357.469,522,363.685,522.172,371.575,523.821,371.575Z"/>
      <path id="Path_53" data-name="Path 53" class="cls-1" d="M533.141,352.187h8.423c4.11,0,5.673,2.577,5.673,6.119,0,3.06-1.071,5.057-3.531,5.475v.065c2.6.258,3.386,2.093,3.386,5.153v1.965a10.4,10.4,0,0,0,.261,3.188,1.506,1.506,0,0,0,.607.708v.323h-5.73a13.373,13.373,0,0,1-.521-4.38v-1.546c0-2.609-.463-3.286-1.766-3.286h-1.418v9.212h-5.384Zm5.384,9.726H539.6c1.534,0,2.257-1.1,2.257-2.737,0-1.868-.665-2.673-2.286-2.673h-1.042Z"/>
      <path id="Path_54" data-name="Path 54" class="cls-1" d="M556.7,362.687h6.947v12.5H560l-.116-2.029h-.058c-.724,1.964-2.634,2.48-4.457,2.48-5.47,0-5.963-4.348-5.963-11.949,0-7.7,1.332-11.949,7.7-11.949,3.82,0,6.541,2.158,6.541,7.73h-5.21a9.125,9.125,0,0,0-.289-2.673,1.241,1.241,0,0,0-1.245-1c-1.766,0-1.939,1.675-1.939,7.891s.173,7.89,1.823,7.89c1.129,0,1.795-.805,1.824-4.831H556.7Z"/>
      <path id="Path_55" data-name="Path 55" class="cls-1" d="M569.234,352.187h6.773l5.036,23h-5.731l-.55-4.026h-4.283l-.55,4.026H564.2Zm3.415,4.7h-.058l-1.476,9.759h3.01Z"/>
      <path id="Path_56" data-name="Path 56" class="cls-1" d="M581.94,352.187h6.02l3.473,14.171h.058V352.187h5.037v23h-5.905l-3.589-14.2h-.057v14.2H581.94Z"/>
      <path id="Path_57" data-name="Path 57" class="cls-1" d="M598.872,352.187h5.384v23h-5.384Z"/>
      <path id="Path_58" data-name="Path 58" class="cls-1" d="M614.849,359.176c0-2.609-.434-3.382-1.476-3.382-1.65,0-1.824,1.675-1.824,7.891s.174,7.89,1.824,7.89c1.331,0,1.621-1.288,1.621-5.636H620.2v1.707c0,6.442-3.386,7.988-6.83,7.988-6.05,0-7.381-3.382-7.381-11.949,0-8.792,1.794-11.949,7.381-11.949,4.862,0,6.686,2.834,6.686,7.279v1.449h-5.21Z"/>
    </g>
  </g>
</svg>
