<?xml version="1.0" encoding="utf-8"?>
<!-- Generator: Adobe Illustrator 23.0.2, SVG Export Plug-In . SVG Version: 6.00 Build 0)  -->
<svg version="1.1" id="Layer_1" xmlns="http://www.w3.org/2000/svg" xmlns:xlink="http://www.w3.org/1999/xlink" x="0px" y="0px"
	 viewBox="0 0 28.3 28.3" style="enable-background:new 0 0 28.3 28.3;" xml:space="preserve">
<g>
	<path d="M14.2,17c-4.2,0-7.6-3.4-7.6-7.6s3.4-7.6,7.6-7.6c4.2,0,7.6,3.4,7.6,7.6S18.3,17,14.2,17z M14.2,3.9c-3,0-5.4,2.4-5.4,5.4
		s2.4,5.4,5.4,5.4s5.4-2.4,5.4-5.4S17.2,3.9,14.2,3.9z"/>
</g>
<g>
	<path d="M28,27.9H0.3v-3.2c0-0.3,0-1.8,1.4-3.3c2.1-2.3,6.3-3.5,12.5-3.5c13.7,0,13.9,6.4,13.9,6.7V27.9z M2.5,25.8h23.4v-1.1
		c0,0-0.4-4.6-11.7-4.6c-6.7,0-9.6,1.5-10.8,2.7c-0.9,0.9-0.9,1.7-0.9,1.8l0,0l0,0V25.8z"/>
</g>
</svg>
