<?xml version="1.0" encoding="utf-8"?>
<!-- Generator: Adobe Illustrator 23.0.3, SVG Export Plug-In . SVG Version: 6.00 Build 0)  -->
<svg version="1.1" id="Layer_1" xmlns="http://www.w3.org/2000/svg" xmlns:xlink="http://www.w3.org/1999/xlink" x="0px" y="0px"
	 viewBox="0 0 479.6 167.2" style="enable-background:new 0 0 479.6 167.2;" xml:space="preserve">
<g>
	<g>
		<path d="M19.4,43.1h-5.7L2.8,5.5H8l8.6,33h0.1l8.8-33h4.9L19.4,43.1z"/>
	</g>
	<g>
		<path d="M35.3,43.1V5.5h19.4v4.2H40.1v12.1h13.5v4.2H40.1v13h14.9v4.2H35.3z"/>
	</g>
	<g>
		<path d="M63.6,31.4c0.1,3.4-0.3,8.4,4.6,8.4c5.1,0,5.4-4.4,5.4-8.9V5.5h4.8v28.3c0,2-0.1,10.1-10.4,10.1c-2.1,0-6.1-0.7-7.9-3.7
			c-1.5-2.5-1.5-5.7-1.5-8.7H63.6z"/>
	</g>
	<g>
		<path d="M95.8,5.5h6.1l12.2,37.6h-5.4l-2.7-8.9H91.5l-2.8,8.9h-4.8L95.8,5.5z M98.7,9.9h-0.1l-5.9,20h12L98.7,9.9z"/>
	</g>
</g>
<g>
	<g>
		<path d="M40.3,164.6H27.6V82.9H3.4V71.7h61.1v11.2H40.3V164.6z M28.6,163.6h10.7V81.9h24.2v-9.2H4.4v9.2h24.2V163.6z"/>
	</g>
	<g>
		<path d="M132.9,164.6h-14.2l-6.6-21.9H77.3l-6.9,21.9H57.6L87,71.7h15.6L132.9,164.6z M119.5,163.6h12l-29.6-90.9H87.8l-28.8,90.9
			h10.8l6.9-21.9h36.2L119.5,163.6z M110,132.5H79.2l14.7-50h1L110,132.5z M80.6,131.5h28.1L94.4,84.3L80.6,131.5z"/>
	</g>
	<g>
		<path d="M230.2,164.6h-12.7V84.8l-25.1,79.8h-11.8L156,84.9v79.7H144V71.7h19.8l22.9,76.3L210,71.7h20.2V164.6z M218.5,163.6h10.7
			V72.7h-18.5l-23.4,77.1h-1l-23.2-77.1H145v90.9h9.9V81.9h1.1l25.2,81.7h10.3l25.7-81.7h1.1V163.6z"/>
	</g>
	<g>
		<path d="M281.1,164.6h-30V71.7h30.4c13.3,0,17.6,4.8,20.9,9.6c3.7,5.7,3.8,11.8,3.8,12.5c0,12.5-4.7,19.3-15.3,22
			c12.1,1.8,18.3,9.3,18.3,22.4C309.2,155.7,299.8,164.6,281.1,164.6z M252.1,163.6h29c18.2,0,27.1-8.3,27.1-25.3
			c0-13-6-20.1-18.4-21.5l-0.4-0.1v-1.5l0.4-0.1c10.6-2.4,15.4-9,15.4-21.3c0-2.3-0.8-7.5-3.6-11.9c-3.1-4.6-7.3-9.2-20.1-9.2h-29.4
			V163.6z M279.8,154.4h-17v-33.8h13c7.2,0,11.9,1,15.3,3.2c4.2,2.8,6.2,7.5,6.2,14.5c0,3.9-1.4,7.8-3.9,10.7
			C290.2,152.5,285.6,154.4,279.8,154.4z M263.8,153.4h16c13,0,16.4-9.5,16.4-15.2c0-13.8-8.2-16.7-20.5-16.7h-12V153.4z
			 M263.3,111.4h-0.5V81.9h17c9.2,0,14.6,5.4,14.6,14.4c0,9.6-5,15-14.1,15.1H263.3z M263.8,110.4h16.6c8.5-0.1,13.1-5.1,13.1-14.1
			c0-8.4-5.1-13.4-13.6-13.4h-16V110.4z"/>
	</g>
	<g>
		<path d="M376.8,164.6h-49.1V71.7H376v11.2h-35.6v28.5h33.1v11.2h-33.1v30.8h36.4V164.6z M328.7,163.6h47.1v-9.2h-36.4v-32.8h33.1
			v-9.2h-33.1V81.9H375v-9.2h-46.3V163.6z M348.4,63h-9.7l12-18.9H366L348.4,63z M340.5,62h7.4l15.7-16.9h-12.4L340.5,62z"/>
	</g>
	<g>
		<path d="M477.6,164.6h-12.7V84.8l-25.1,79.8H428l-24.6-79.7v79.7h-11.9V71.7h19.8l22.9,76.3l23.2-76.3h20.2V164.6z M465.9,163.6
			h10.7V72.7h-18.5l-23.4,77.1h-1l-23.2-77.1h-18.1v90.9h9.9V81.9h1.1l25.2,81.7h10.3l25.7-81.7h1.1V163.6z"/>
	</g>
</g>
</svg>
