<?xml version="1.0" encoding="utf-8"?>
<!-- Generator: Adobe Illustrator 23.0.2, SVG Export Plug-In . SVG Version: 6.00 Build 0)  -->
<svg version="1.1" id="Layer_1" xmlns="http://www.w3.org/2000/svg" xmlns:xlink="http://www.w3.org/1999/xlink" x="0px" y="0px"
	 viewBox="0 0 353.7 114.8" style="enable-background:new 0 0 353.7 114.8;" xml:space="preserve">
<style type="text/css">
	.st0{fill:#7C7C7C;}
</style>
<g>
	<path class="st0" d="M101.9,2.7L75.6,81c0,0-2.2-10.8-4.1-20.8c0.2,0.6,0.5,1.3,0.7,1.9l-9.6-47.5c0,0-4.4-10.3-15.7-10.3
		s-44.4,0-44.4,0S16.9,8.6,33,18.2l24.3,94.4v0h31.6l43.7-110H101.9z"/>
	<polygon class="st0" points="126.9,112.7 155.6,112.7 173,2.7 143.9,2.7 	"/>
	<path class="st0" d="M330.1,2.7h-30.2l-47.1,110h28.5l5.9-15.7h35.9l3,15.7h26.1L330.1,2.7z M295.1,75.9l15.6-41.6l8.2,41.6H295.1z
		"/>
	<path class="st0" d="M213.7,34.7c0-6.1,5-10.6,19.3-10.6c9.3,0,19.9,6.8,19.9,6.8l4.7-23.1c0,0-13.6-5.2-26.9-5.2
		c-30.2,0-45.8,14.4-45.8,32.7c0,33.1,39.8,28.6,39.8,45.5c0,2.9-2.3,9.6-18.9,9.6s-27.6-6.1-27.6-6.1l-5,22.2
		c0,0,10.7,6.1,31.2,6.1c20.6,0,49.2-15.4,49.2-37.5C253.6,48.5,213.7,46.6,213.7,34.7z"/>
</g>
</svg>
