<svg xmlns="http://www.w3.org/2000/svg" viewBox="0 0 71.763 25.94">
  <defs>
    <style>
      .cls-1 {
        fill: #717171;
        fill-rule: evenodd;
      }
    </style>
  </defs>
  <path id="Shape_13" data-name="Shape 13" class="cls-1" d="M1717.528,600.62a.8.8,0,0,0,.015,1c.962,1.488,1.908,3,2.839,4.5a6.984,6.984,0,0,1,.366.714c-.977,0-1.832.021-2.687-.02a.865.865,0,0,1-.442-.429c-.641-.992-1.267-1.995-1.939-3.077-.137.189-.244.313-.336.458-.519.885-.992,1.789-1.557,2.65a1.077,1.077,0,0,1-.732.417c-.672.058-1.358.02-2.167.02.152-.305.244-.495.351-.67.916-1.542,1.816-3.089,2.763-4.62a.762.762,0,0,0-.015-.951c-.931-1.438-1.847-2.893-2.763-4.343-.107-.162-.183-.334-.351-.63.977,0,1.847-.021,2.717.02a.916.916,0,0,1,.443.427c.488.763.961,1.535,1.45,2.3.092.162.214.316.4.585.641-1.027,1.206-1.94,1.755-2.874a.846.846,0,0,1,.855-.492c.656.025,1.313,0,2.122,0-.168.305-.259.515-.366.7C1719.344,597.754,1718.458,599.2,1717.528,600.62Zm-12.593,3.416a.763.763,0,0,0,.855.763c.992,0,1.969.015,2.946,0a.513.513,0,0,1,.626.621c-.046,1.423.229,1.436-1.252,1.472a26.637,26.637,0,0,1-3.526-.064,2.389,2.389,0,0,1-2.122-2.39c-.045-1.068,0-2.137,0-3.205h-.015c0-1.027-.046-2.058,0-3.083a2.529,2.529,0,0,1,2.534-2.6c1.3-.053,2.625.063,3.923.095a.4.4,0,0,1,.442.488c-.03,1.766.2,1.438-1.343,1.462-.7.011-1.419,0-2.122.009a.876.876,0,0,0-.961.884c-.214,1.565-.153,1.646,1.374,1.646.809,0,1.618.011,2.427,0a.441.441,0,0,1,.519.526c-.031,1.734.183,1.418-1.374,1.44-.824.011-1.648.014-2.472,0a.4.4,0,0,0-.5.458C1704.92,603.05,1704.9,603.545,1704.935,604.037Zm-5.2-6.345h-1.48v.763c0,2.551-.015,5.1.015,7.652,0,.565-.153.814-.732.75a9.252,9.252,0,0,0-1.008,0c-.778,0-.793,0-.793-.774V597.7c-.809,0-1.542-.017-2.259,0a.564.564,0,0,1-.672-.672c.015-1.679-.106-1.4,1.358-1.41,2.091-.015,4.167,0,6.243-.017a.577.577,0,0,1,.717.705C1701.073,597.893,1701.287,597.676,1699.73,597.691Zm-10.807,7.382a2.451,2.451,0,0,1-3.3,1.784,2.177,2.177,0,0,1-1.4-1.549c-.885-3.01-1.725-6.026-2.594-9.036-.122-.458-.031-.675.488-.635a4.138,4.138,0,0,1,1.816.134,3.331,3.331,0,0,1,.595,1.679c.565,2.072,1.1,4.151,1.679,6.22a1.82,1.82,0,0,0,.351.531,2.667,2.667,0,0,0,.305-.528c.671-2.491,1.358-4.982,2-7.479a.6.6,0,0,1,.718-.554c.61.032,1.206,0,1.892,0-.061.305-.076.519-.122.72Q1690.129,600.72,1688.923,605.073Zm-18.546,2.29c-.9,1.708-1.816,3.411-2.7,5.13a2.3,2.3,0,0,1-4.289-.015c-.642-1.285-1.328-2.554-2-3.827-.107-.188-.214-.366-.382-.65-.153.258-.26.43-.351.611-.519.994-1.053,1.984-1.572,2.986a1.5,1.5,0,0,1-1.389.94,1.546,1.546,0,0,1-1.373-.951c-2.335-4.494-4.7-8.977-7.052-13.469a1.484,1.484,0,0,1,1.4-2.34h3.893c-.138-.29-.214-.465-.306-.635-.626-1.209-1.267-2.409-1.877-3.624a2.289,2.289,0,0,1,2.076-3.485c6.319-.017,12.638,0,18.973-.009,1.1,0,2.2.081,3.3-.015a2.264,2.264,0,0,1,2.061,3.453c-2.824,5.283-5.6,10.6-8.411,15.9Zm-4.64-11.656h-4.656c-1.6,0-3.221-.017-4.823,0a1,1,0,0,0-.946,1.607q2.335,4.427,4.671,8.853a1.117,1.117,0,0,0,1.022.763,1.16,1.16,0,0,0,1.023-.763q2.336-4.427,4.671-8.845c.534-1,.152-1.612-.962-1.617Z" transform="translate(-1648.985 -588.005)"/>
</svg>
