<svg xmlns="http://www.w3.org/2000/svg" width="69.333" height="22.505" viewBox="0 0 69.333 22.505">
  <path id="american" d="M61.552,22.5v-.4a4.088,4.088,0,0,1-1.846.4H46.948s0-2.578,0-2.68c-.059,0-.7,0-.7,0V22.5h-3.9v-2.99a4.383,4.383,0,0,1-2.247.527h-.76V22.5h-4.7l-1.395-1.781L31.806,22.5H24v-10h7.91l1.395,1.764L34.746,12.5H40.2a4.256,4.256,0,0,1,2.159.5v-.5H47.1a4.494,4.494,0,0,1,2.342.467V12.5h7.5v.525a2.814,2.814,0,0,1,1.783-.525h4.269v.432a3.512,3.512,0,0,1,1.761-.432H68.8v4.229a3.839,3.839,0,0,1,.532,2.129,3.33,3.33,0,0,1-3.6,3.647Zm1.17-1.328h3.011c1.561,0,2.43-.739,2.43-2.32A2.208,2.208,0,0,0,67.7,17.3a2.3,2.3,0,0,0-1.766-.591l-.83-.026a1.531,1.531,0,0,1-.6-.084.56.56,0,0,1-.337-.547.59.59,0,0,1,.232-.527.937.937,0,0,1,.62-.133h2.835V13.83h-3.1a2.044,2.044,0,0,0-2.21,2.187c0,2.324,1.81,2.218,3.256,2.274a.751.751,0,0,1,.549.16.676.676,0,0,1,.191.488.7.7,0,0,1-.183.479.836.836,0,0,1-.633.18h-3Zm-6.028,0h3.011c1.558,0,2.428-.739,2.428-2.32a2.22,2.22,0,0,0-.462-1.555,2.3,2.3,0,0,0-1.766-.591l-.833-.026a1.518,1.518,0,0,1-.6-.084.558.558,0,0,1-.339-.547.59.59,0,0,1,.232-.527.941.941,0,0,1,.62-.133h2.835V13.83h-3.1a2.045,2.045,0,0,0-2.21,2.187c0,2.324,1.812,2.218,3.256,2.274a.754.754,0,0,1,.552.16.723.723,0,0,1,0,.967.826.826,0,0,1-.63.18h-3Zm-6.086,0h5.16V19.652l-3.622-.009V18.181h3.531v-1.5H52.147V15.35h3.622V13.83h-5.16Zm-3.876-2.685c.564,0,.909.064,1.136.327a2.427,2.427,0,0,1,.249,1.438v.921h1.551v-1.46a2.345,2.345,0,0,0-.256-1.339,1.7,1.7,0,0,0-.757-.617,2.066,2.066,0,0,0,1.1-1.953,1.782,1.782,0,0,0-.794-1.632A3.444,3.444,0,0,0,47.1,13.83H43.528v7.347h1.553V18.492ZM35.176,21.177h3V18.712h1.929c1.351,0,2.691-.421,2.691-2.46s-1.377-2.421-2.6-2.421H35.256L33.29,16.24l-1.9-2.41H25.17v7.347h6.123l1.978-2.435Zm-.908-3.663,2.374-2.895v5.89Zm-7.556,2.129V18.181H30.1v-1.5H26.711V15.35h3.876l1.69,2.142-1.766,2.152ZM38.18,17.22V15.35H40.2a.828.828,0,0,1,.945.9.88.88,0,0,1-.965.969Zm6.9-.222V15.35h1.9a1.351,1.351,0,0,1,.738.132.726.726,0,0,1,.32.662.828.828,0,0,1-.32.7,1.318,1.318,0,0,1-.764.149Zm6.255-7L50.205,7.932V10H44.967l-.618-1.639H42.661L42.061,10H39.391a4.59,4.59,0,0,1-2.726-.808V10H30.054s-.012-2.573-.015-2.666c-.056-.005-.708-.005-.708-.005V10H16.121V9.189l-.007.02L15.8,10h-2.96l-.315-.791-.007-.017V10H7.275L6.665,8.361h-1.7L4.35,10H0L3.873,0H7.818l.706,1.817V0h4.565l1.263,3.024L15.511,0H30.194a4.481,4.481,0,0,1,2.447.484V0h4.025V.854A4.361,4.361,0,0,1,39.508,0h6.023l.694,1.792V0h4.3l.911,1.668V0h4.032V10Zm.679-1.33h2.249V1.33H52.636V6.442L49.844,1.33H47.426V8.273L44.737,1.33H42.359L40.119,7.1h-.713a1.439,1.439,0,0,1-1.106-.38A2.731,2.731,0,0,1,37.862,5a2.591,2.591,0,0,1,.457-1.662A1.444,1.444,0,0,1,39.54,2.9h1.507V1.327H39.508a3.032,3.032,0,0,0-2.411.857,4.181,4.181,0,0,0-.857,2.872,3.94,3.94,0,0,0,.847,2.8,3.136,3.136,0,0,0,2.3.811H41.25l.6-1.636h3.3l.618,1.636H49V3.159Zm-18.17,0h1.619V1.327H33.842ZM29.835,6c.571,0,.926.053,1.158.313a2.4,2.4,0,0,1,.249,1.429l.007.926h1.6V7.228a2.289,2.289,0,0,0-.264-1.347,1.842,1.842,0,0,0-.786-.618,2.076,2.076,0,0,0,1.121-1.958,1.759,1.759,0,0,0-.806-1.626,3.432,3.432,0,0,0-1.922-.352H26.54V8.67h1.59V6ZM20.153,8.67h5.288V7.152H21.724V5.686h3.627v-1.5H21.724V2.858h3.717V1.327H20.153Zm-2.831,0h1.609V1.327H16.307L14.4,6.309,12.319,1.327H9.727V8.282l-2.7-6.955H4.667L1.822,8.67H3.546l.618-1.636H7.471L8.081,8.67H11.31V2.914L13.62,8.67h1.395l2.3-5.751ZM39.188,4.259l0,0A1.748,1.748,0,0,0,39.064,5a2.242,2.242,0,0,0,.093.755,1.6,1.6,0,0,0,.171.017l.6-1.538H39.54A1.389,1.389,0,0,0,39.188,4.259ZM42.415,5.5l1.094-2.928,1.1,2.928ZM4.728,5.5,5.81,2.576,6.9,5.5Zm23.4-1.014V2.858h1.954a1.5,1.5,0,0,1,.755.133.685.685,0,0,1,.332.648.771.771,0,0,1-.327.7,1.352,1.352,0,0,1-.784.152Z" transform="translate(0)" fill="#2478bc"/>
</svg>
