<svg id="arrow-check" xmlns="http://www.w3.org/2000/svg" width="56" height="56" viewBox="0 0 56 56">
  <g id="Agrupar_2874" data-name="Agrupar 2874">
    <path id="Caminho_1430" data-name="Caminho 1430" d="M56,28A28,28,0,1,0,28,56,28.032,28.032,0,0,0,56,28ZM3.964,28A24.036,24.036,0,1,1,28,52.036,24.062,24.062,0,0,1,3.964,28Z" fill="#fff"/>
    <path id="Caminho_1431" data-name="Caminho 1431" d="M178.575,180.156a1.988,1.988,0,0,0-2.808,0l-9.141,9.141-3.062-3.062a1.986,1.986,0,1,0-2.808,2.808l4.461,4.461a1.981,1.981,0,0,0,2.8,0l10.539-10.539A1.967,1.967,0,0,0,178.575,180.156Z" transform="translate(-141.665 -158.823)" fill="#fff"/>
  </g>
</svg>
