<svg xmlns="http://www.w3.org/2000/svg" width="44.479" height="27.013" viewBox="0 0 44.479 27.013">
  <path id="boleto" d="M0,0H.672V26.983C.42,26.993.21,27,0,27.013ZM40.436,26.966V0h.674q0,13.121-.01,26.243c0,.279.2.753-.37.753A1.709,1.709,0,0,1,40.436,26.966Zm-1.686,0V0h.674q0,13.121-.01,26.243c0,.279.2.753-.37.753A1.708,1.708,0,0,1,38.751,26.966Zm-1.686,0V0h.674q0,13.121-.01,26.243c0,.279.2.753-.37.753A1.715,1.715,0,0,1,37.065,26.966Zm-10.109,0V0h.674q0,13.121-.01,26.243c0,.279.2.753-.37.753A1.715,1.715,0,0,1,26.956,26.966Zm-3.369,0V0h.674q0,13.121-.01,26.243c0,.279.2.753-.37.753A1.707,1.707,0,0,1,23.587,26.966Zm-13.478,0V0h.672q0,13.121-.007,26.243c0,.279.2.753-.37.753A1.707,1.707,0,0,1,10.109,26.966Zm8.423-.006V0h.674q0,13.121-.01,26.243c0,.273.212.751-.353.751A1.7,1.7,0,0,1,18.532,26.96Zm-10.109,0V0H9.1q0,13.121-.01,26.243c0,.273.212.751-.354.751A1.7,1.7,0,0,1,8.423,26.96Zm-1.686,0V0h.674q0,13.121-.01,26.243c0,.273.212.751-.353.751A1.7,1.7,0,0,1,6.738,26.96Zm35.382,0V0h2.36V26.96Zm-10.109,0V0h2.36V26.96Zm-3.369,0V0H31V26.96Zm-8.423,0V0h2.357V26.96Zm-5.055,0V0h2.358V26.96Zm-3.371,0V0h2.36V26.96Zm-10.109,0V0h2.36V26.96Z" transform="translate(0)" fill="#37474f"/>
</svg>
