<svg xmlns="http://www.w3.org/2000/svg" width="43.172" height="21.522" viewBox="0 0 43.172 21.522">
  <path id="elo" d="M31.812,21.046q.564-1.694,1.129-3.391a5.254,5.254,0,0,0,6.742-3.883l3.488.713A8.731,8.731,0,0,1,34.6,21.522,8.426,8.426,0,0,1,31.812,21.046Zm-8.521.224c-.782-.324-1.573-.633-2.348-.98a3.178,3.178,0,0,1-1.918-2.626,8.24,8.24,0,0,1-.059-1.124q0-8.093,0-16.185V0h3.364V.393q0,8.1-.007,16.211a.434.434,0,0,0,.322.483c.877.345,1.744.716,2.633,1.085-.464,1.118-.923,2.221-1.39,3.346C23.677,21.429,23.484,21.351,23.291,21.27ZM4.117,20.143c.628-1,1.256-2,1.893-3.017a5.221,5.221,0,0,0,6.4-.686Q13.659,17.718,14.9,19a8.53,8.53,0,0,1-6.137,2.514A8.285,8.285,0,0,1,4.117,20.143ZM28.781,6.162c.784.887,1.568,1.772,2.37,2.673a5.242,5.242,0,0,0,0,7.781q-1.184,1.337-2.365,2.675A8.725,8.725,0,0,1,28.781,6.162ZM1.01,8.6a8.785,8.785,0,0,1,16.319,2.127Q9.388,14.116,1.444,17.512A8.75,8.75,0,0,1,1.01,8.6Zm5.653-.594a5.09,5.09,0,0,0-3,5.251C6.684,11.972,9.689,10.687,12.7,9.4A5.039,5.039,0,0,0,8.771,7.55,5.112,5.112,0,0,0,6.662,8.007ZM32.948,7.8,31.793,4.36c.542-.122,1.05-.272,1.568-.338a8.806,8.806,0,0,1,9.786,6.661c.061.247,0,.307-.237.352-.985.185-1.962.4-2.944.6-.09.02-.186.027-.3.043A5.24,5.24,0,0,0,32.948,7.8Z" transform="translate(0)" fill="#424242"/>
</svg>
