<svg xmlns="http://www.w3.org/2000/svg" width="54.944" height="23.583" viewBox="0 0 54.944 23.583">
  <path id="hipercard" d="M0,27.011c.012-.086.016-.161.031-.233q.595-2.9,1.2-5.8.524-2.531,1.053-5.062Q3.006,12.4,3.731,8.9c.152-.744.31-1.485.494-2.222A3.82,3.82,0,0,1,6.249,4.2,6.727,6.727,0,0,1,8.63,3.5a6.94,6.94,0,0,1,.884-.048q6.565-.005,13.129,0l13.806-.01,18.3-.01h.192c-.023.165-.043.312-.074.456q-.507,2.428-1.018,4.86-.614,2.948-1.222,5.9c-.3,1.434-.6,2.86-.9,4.294-.334,1.6-.659,3.207-1.01,4.808a3.676,3.676,0,0,1-1.049,1.838,4.749,4.749,0,0,1-2.263,1.166A8.165,8.165,0,0,1,45.472,27Q31.983,27,18.5,27q-6.876,0-13.754,0-2.291,0-4.584.007ZM15.631,13.076c-.165,1.053-.33,2.109-.519,3.159-.295,1.6-.609,3.2-.912,4.791,0,.041,0,.079-.008.124h1.19c.161-1.039.322-2.068.491-3.142.047.075.07.106.091.141a1,1,0,0,0,.616.518,3.421,3.421,0,0,0,.853.1,2.718,2.718,0,0,0,1.98-.892A3.955,3.955,0,0,0,20.2,16.42a4,4,0,0,0,.181-2.435,1.445,1.445,0,0,0-.7-.919,2.678,2.678,0,0,0-2.467-.017,6.132,6.132,0,0,0-.605.36c.028-.172.056-.326.091-.514-.307,0-.577.01-.849,0h-.034C15.7,12.893,15.652,12.947,15.631,13.076Zm31.192-.271a2.813,2.813,0,0,0-2.208,1.423,4.714,4.714,0,0,0-.656,3.042,1.462,1.462,0,0,0,1.014,1.324,3.115,3.115,0,0,0,1.96,0,1.487,1.487,0,0,0,.755-.549c.063-.086.13-.168.216-.281-.039.3-.074.562-.11.837h1.081c.247-2.757.856-5.439,1.359-8.169-.39,0-.763,0-1.136.007-.023,0-.066.069-.074.11-.044.267-.079.542-.118.813-.087.532-.177,1.067-.268,1.609-.047-.01-.074-.01-.1-.017a4,4,0,0,0-1.183-.177A4.343,4.343,0,0,0,46.823,12.805Zm-14.74.106a2.466,2.466,0,0,0-1.395.96,4.324,4.324,0,0,0-.762,1.873,3.349,3.349,0,0,0,.09,1.924,1.5,1.5,0,0,0,1.006.94,4.981,4.981,0,0,0,2.734-.13c.039-.014.095-.045.1-.079.063-.268.117-.538.173-.809-.04-.007-.048-.01-.052-.01l-.082.031a3.549,3.549,0,0,1-1.823.312,1.336,1.336,0,0,1-.562-.226,1.136,1.136,0,0,1-.444-.964,4.493,4.493,0,0,1,.44-2.209,1.572,1.572,0,0,1,1.214-.936,3.6,3.6,0,0,1,1.355.062c.2.038.389.1.608.154.048-.281.091-.542.138-.806.02-.1-.027-.134-.122-.141-.117-.007-.239-.017-.361-.031-.334-.033-.668-.057-1-.057A5.1,5.1,0,0,0,32.083,12.912Zm-8.8-.045A2.616,2.616,0,0,0,21.4,14.235a5.153,5.153,0,0,0-.6,2.781,1.715,1.715,0,0,0,.53,1.176,2.351,2.351,0,0,0,1.567.545,8.351,8.351,0,0,0,2.1-.2c.326-.069.326-.069.381-.384.036-.2.079-.4.118-.607-.047,0-.062-.01-.07,0a4.658,4.658,0,0,1-2.13.388,1.229,1.229,0,0,1-1.3-1.283c0-.312.043-.624.059-.936.008-.117.055-.171.185-.171.338,0,.68-.024,1.021-.024q1.285,0,2.573.021c.13,0,.2-.027.22-.168.044-.391.118-.779.134-1.173a1.285,1.285,0,0,0-1-1.293,3.922,3.922,0,0,0-1.011-.132A4.279,4.279,0,0,0,23.287,12.867Zm12.929,2.226a2.137,2.137,0,0,0-1.276,1.039,2.417,2.417,0,0,0-.232,1.444,1.189,1.189,0,0,0,1.014,1.084,5.377,5.377,0,0,0,.967.069,2.058,2.058,0,0,0,1.517-.683c.082-.093.165-.182.271-.295-.023.264-.047.49-.059.717,0,.048.051.134.078.134.311.01.621.007.932.007a.4.4,0,0,0,.02-.086,22.269,22.269,0,0,1,.437-3.183,7.444,7.444,0,0,0,.2-1.523.846.846,0,0,0-.46-.751,3.122,3.122,0,0,0-1.654-.292c-.542.014-1.08.086-1.622.12-.287.017-.287.007-.354.274-.051.216-.1.429-.157.665.322-.069.605-.134.892-.182a3.865,3.865,0,0,1,1.635-.041c.322.076.628.261.573.683-.016.151-.039.305-.055.456-.012.12-.067.161-.192.158-.177,0-.354,0-.526,0-.275,0-.555.01-.825,0l-.1,0A3.2,3.2,0,0,0,36.216,15.093ZM27.443,12.9a.144.144,0,0,0-.09.093c-.043.247-.075.494-.118.741q-.306,1.77-.625,3.539c-.078.436-.173.871-.267,1.338.4,0,.754.007,1.111,0,.04,0,.1-.1.106-.151a24.854,24.854,0,0,1,.6-3.385,2.051,2.051,0,0,1,.771-1.166.931.931,0,0,1,.668-.237c.247.024.5.041.754.058.043-.213.083-.436.138-.659.023-.113-.016-.158-.122-.2a1.578,1.578,0,0,0-1.74.484c-.118.134-.228.278-.373.46.059-.333.11-.614.165-.916h-.5C27.759,12.894,27.6,12.895,27.443,12.9ZM6.32,10.6c-.036,0-.087.069-.095.113-.074.4-.146.809-.212,1.211-.165,1.012-.314,2.023-.5,3.025-.208,1.135-.444,2.264-.664,3.4-.016.082-.02.165-.035.264.439,0,.856.007,1.269,0,.039,0,.1-.069.11-.117.039-.192.063-.384.1-.573.181-1.039.362-2.082.539-3.121.023-.134.078-.172.22-.172,1.1,0,2.2,0,3.3,0,.059,0,.114,0,.2.01-.247,1.327-.5,2.641-.742,3.972.459,0,.876.007,1.288-.007.044,0,.106-.089.118-.144.173-.995.33-1.993.507-2.987.287-1.578.585-3.155.88-4.733.008-.041.012-.082.02-.148-.439,0-.864,0-1.284.007-.036,0-.095.086-.1.137q-.259,1.476-.507,2.953c-.02.106-.062.144-.169.141-1.135,0-2.267,0-3.4-.007-.043,0-.086-.014-.145-.021.2-1.07.393-2.13.593-3.207h-.52C6.824,10.593,6.572,10.594,6.32,10.6Zm35.093,2.463c-.055.415-.109.833-.185,1.252q-.33,1.816-.676,3.635c-.039.209-.082.422-.129.659.393,0,.77,0,1.143,0,.027,0,.075-.075.079-.117.016-.117,0-.24.02-.36.13-.8.259-1.609.408-2.411a2.931,2.931,0,0,1,.672-1.584,1.193,1.193,0,0,1,.872-.463c.268,0,.534.031.821.048.039-.226.091-.477.13-.727,0-.031-.048-.086-.083-.1a1.513,1.513,0,0,0-1.634.316c-.173.168-.33.353-.507.549.051-.288.1-.556.149-.857-.318,0-.6.007-.884,0H41.6C41.474,12.891,41.429,12.94,41.413,13.063Zm-27.939-.144c-.035,0-.09.079-.1.127-.04.219-.063.439-.1.659-.185,1.063-.365,2.126-.558,3.186-.1.566-.225,1.128-.342,1.718.385,0,.758,0,1.135-.007.032,0,.079-.082.087-.134.059-.36.1-.72.169-1.08.192-1.094.389-2.192.589-3.286.075-.394.157-.789.236-1.19H14.14C13.915,12.911,13.7,12.912,13.474,12.919Zm.185-1.269c.083.295.417.305.719.254a.839.839,0,0,0,.6-.847,1.6,1.6,0,0,0-.059-.312c-.095-.23-.3-.24-.523-.243h-.014C13.719,10.5,13.529,11.2,13.658,11.65Zm2.942,6.2a.911.911,0,0,1-.479-.9c.055-.628.188-1.252.29-1.873.047-.278.095-.552.157-.827a.514.514,0,0,1,.146-.237,1.764,1.764,0,0,1,1.921-.326,1.08,1.08,0,0,1,.605,1c.012.134,0,.271,0,.408a4.2,4.2,0,0,1-.637,2.178,1.623,1.623,0,0,1-1.373.709A1.4,1.4,0,0,1,16.6,17.847Zm19.98.1a.772.772,0,0,1-.734-.854,1.425,1.425,0,0,1,1.124-1.444,4.822,4.822,0,0,1,1.064-.058c.185,0,.373.01.558,0,.031,0,.1.082.095.113a4.362,4.362,0,0,1-.476,1.492,1.553,1.553,0,0,1-1.183.748,1.459,1.459,0,0,1-.233.019A1.158,1.158,0,0,1,36.581,17.943Zm8.9-.271a1.184,1.184,0,0,1-.314-.792c-.008-.1,0-.2,0-.292a4.015,4.015,0,0,1,.648-2.27,1.5,1.5,0,0,1,1.041-.731,2.814,2.814,0,0,1,1.567.151.143.143,0,0,1,.055.13c-.185.94-.365,1.883-.573,2.819a1.571,1.571,0,0,1-.793,1.073,1.734,1.734,0,0,1-.809.2A1.166,1.166,0,0,1,45.479,17.672Zm-23.2-2.812A1.511,1.511,0,0,1,23.7,13.532a2.052,2.052,0,0,1,.888.076.724.724,0,0,1,.5.741,4.539,4.539,0,0,1-.056.511Z" transform="translate(0 -3.429)" fill="#f44336"/>
</svg>
