<svg xmlns="http://www.w3.org/2000/svg" width="40.001" height="40" viewBox="0 0 40.001 40">
  <g id="paper-plane" transform="translate(0 0)">
    <path id="Caminho_1046" data-name="Caminho 1046" d="M89.387.1A.781.781,0,0,0,88.6.108L74.285,8.574a.781.781,0,1,0,.8,1.345L85.352,3.845,66.219,23.7,56.7,20.786l12.419-7.344a.781.781,0,0,0-.8-1.345L54.383,20.343a.781.781,0,0,0,.169,1.42l11.365,3.477,5.014,9.126a.184.184,0,0,0,.016.025.779.779,0,0,0,1.215.158l5.765-5.634,10.844,3.318a.781.781,0,0,0,1.01-.747V.781A.781.781,0,0,0,89.387.1ZM82.561,8.993,70.973,25.721a.782.782,0,0,0-.139.445v4.779l-3.424-6.232ZM72.4,32.133V27.222l3.827,1.171Zm.47-6.4L88.218,3.57V30.428Z" transform="translate(-49.781 0)" fill="#313131"/>
    <path id="Caminho_1047" data-name="Caminho 1047" d="M62.626,344.877a.781.781,0,0,0-1.1,0l-7.293,7.293a.781.781,0,0,0,1.1,1.1l7.293-7.293A.781.781,0,0,0,62.626,344.877Z" transform="translate(-49.78 -317.723)" fill="#313131"/>
    <path id="Caminho_1048" data-name="Caminho 1048" d="M2.026,469.23l-1.8,1.8a.781.781,0,1,0,1.1,1.1l1.8-1.8a.781.781,0,1,0-1.1-1.1Z" transform="translate(0 -432.36)" fill="#313131"/>
    <path id="Caminho_1049" data-name="Caminho 1049" d="M126.361,491.41a.782.782,0,1,0,.552.229A.786.786,0,0,0,126.361,491.41Z" transform="translate(-115.769 -453.019)" fill="#313131"/>
    <path id="Caminho_1050" data-name="Caminho 1050" d="M154.626,417.235l-3.863,3.863a.781.781,0,1,0,1.1,1.1l3.863-3.863a.781.781,0,1,0-1.1-1.1Z" transform="translate(-138.774 -384.428)" fill="#313131"/>
    <path id="Caminho_1051" data-name="Caminho 1051" d="M325.155,413.44l-3.873,3.873a.781.781,0,1,0,1.1,1.1l3.873-3.873a.781.781,0,0,0-1.1-1.1Z" transform="translate(-295.971 -380.929)" fill="#313131"/>
    <path id="Caminho_1052" data-name="Caminho 1052" d="M267.211,134.943a.782.782,0,1,0-.552-.229A.784.784,0,0,0,267.211,134.943Z" transform="translate(-245.615 -122.96)" fill="#313131"/>
  </g>
</svg>
