<svg id="selo-pci" xmlns="http://www.w3.org/2000/svg" width="62.617" height="38.283" viewBox="0 0 62.617 38.283">
  <path id="Caminho_825" data-name="Caminho 825" d="M186.86,59.905c1.75-2.119,3.371-4.173,5.088-6.148a86.351,86.351,0,0,1,14.3-13.291,5.239,5.239,0,0,1,3.949-.8c-9.551,9.422-16.549,20.546-23.323,31.862C183.184,66.246,179.524,61,175.8,55.668c.578-.594,2.006-2.006,2.006-2.006s5.73,3.949,8.3,5.779C186.362,59.6,186.6,59.745,186.86,59.905Z" transform="translate(-147.581 -33.244)" fill="#21b34b"/>
  <g id="Agrupar_1932" data-name="Agrupar 1932">
    <path id="Caminho_826" data-name="Caminho 826" d="M79.12,80.889a1.326,1.326,0,0,0-.016-1.637,2.621,2.621,0,0,0-2.5-.706v3.082C77.6,81.691,78.51,81.755,79.12,80.889Z" transform="translate(-64.304 -65.913)" fill="#026a72"/>
    <path id="Caminho_827" data-name="Caminho 827" d="M38.748,0S.3,2.327,0,2.392C2.344,8.764,4.655,15.04,6.966,21.316V9.663h5.3v.016c.337,0,.658.016,1,.016a10.069,10.069,0,0,1,4.43.915,3.837,3.837,0,0,1,2.039,4.7,4.518,4.518,0,0,1-3.692,3.066,36.165,36.165,0,0,1-3.724.482l-.048,3.8H7.448c1.124,3.05,2.2,5.955,3.307,8.989,6.308-1.974,12.552-3.949,18.909-5.939-.738-1.011-1.99-3.05-1.99-3.05a10.408,10.408,0,0,1-4.141-1.316,6.169,6.169,0,0,1-1.284-9.358c2.6-2.809,7.817-2.841,10.369-2.006.161.048.385.273.385.417.032,1.059.016,2.119.016,3.275a5.119,5.119,0,0,0-.851-.337,16.37,16.37,0,0,0-3.114-.514,3.047,3.047,0,0,0-3.178,3.05,3.115,3.115,0,0,0,2.52,3.4,7.908,7.908,0,0,0,2.536.1,17.257,17.257,0,0,0,2.408-.546L33.291,21.7l2.729,1.926s2.3-.626,3.275-.947v-.016H35.217v-13h4.976V21.445c.016.289.032.61.048,1.043.915-.4,2.5-1.14,2.5-1.14l3.949-4.8ZM37.657,8.6a2.79,2.79,0,0,1-3.066-2.777,2.864,2.864,0,0,1,3.05-2.905,2.843,2.843,0,0,1,3.05,2.889A2.749,2.749,0,0,1,37.657,8.6Z" fill="#026a72"/>
  </g>
</svg>
