<svg xmlns="http://www.w3.org/2000/svg" width="43.068" height="40.5" viewBox="0 0 43.068 40.5">
  <g id="telephone" transform="translate(0.249 -14.563)">
    <g id="Agrupar_2069" data-name="Agrupar 2069" transform="translate(0 14.813)">
      <path id="Caminho_1053" data-name="Caminho 1053" d="M22.687,155.893c.147.009.295.017.434.017a5.213,5.213,0,0,0,4-1.726l.035-.035a15.182,15.182,0,0,1,1.171-1.206c.295-.278.59-.573.876-.876a3.3,3.3,0,0,0-.017-4.867l-3.7-3.7a3.279,3.279,0,0,0-2.394-1.093,3.383,3.383,0,0,0-2.412,1.084l-2.047,2.047c-.139-.078-.286-.147-.425-.217-.234-.121-.46-.234-.651-.356a22.827,22.827,0,0,1-5.509-5.023,13.6,13.6,0,0,1-1.761-2.741c.52-.486,1.015-.98,1.492-1.466l.573-.573a3.231,3.231,0,0,0,0-4.875l-1.839-1.839c-.208-.208-.416-.425-.625-.633-.408-.425-.841-.859-1.258-1.249a3.341,3.341,0,0,0-2.377-1.05,3.458,3.458,0,0,0-2.412,1.05L1.529,128.87a5.082,5.082,0,0,0-1.5,3.227A12.006,12.006,0,0,0,.9,137.172a29.285,29.285,0,0,0,5.179,8.649A31.91,31.91,0,0,0,16.7,154.132,16.519,16.519,0,0,0,22.687,155.893ZM7.705,144.45a27.155,27.155,0,0,1-4.823-8.024,9.449,9.449,0,0,1-.746-4.155,2.961,2.961,0,0,1,.911-1.926l2.273-2.273a1.408,1.408,0,0,1,.928-.442,1.334,1.334,0,0,1,.9.451c.408.382.8.781,1.214,1.206.208.217.425.434.642.651l1.839,1.839a1.434,1.434,0,0,1,.486.937,1.474,1.474,0,0,1-.486.937c-.2.2-.39.39-.581.59-.564.573-1.1,1.119-1.683,1.64l-.043.043a1.508,1.508,0,0,0-.382,1.683c.009.026.017.043.026.069a14.754,14.754,0,0,0,2.212,3.6,24.947,24.947,0,0,0,6.02,5.483,8.056,8.056,0,0,0,.841.46c.234.121.46.234.651.356.035.017.061.035.1.052a1.516,1.516,0,0,0,1.865-.33l2.308-2.308a1.381,1.381,0,0,1,.911-.46,1.282,1.282,0,0,1,.876.46l3.722,3.722a1.193,1.193,0,0,1-.026,1.9c-.252.269-.529.529-.815.807-.434.425-.894.859-1.31,1.353a3.1,3.1,0,0,1-2.42,1.015c-.1,0-.2,0-.3-.009a14.579,14.579,0,0,1-5.2-1.561A29.857,29.857,0,0,1,7.705,144.45Z" transform="translate(0 -115.91)" fill="#313131" stroke="#fff" stroke-width="0.5"/>
      <path id="Caminho_1054" data-name="Caminho 1054" d="M192.32,38.079a14.93,14.93,0,0,0,3.574.434c7.374,0,13.368-5.318,13.368-11.85s-5.994-11.85-13.368-11.85-13.368,5.309-13.368,11.85a11,11,0,0,0,2.55,6.966,3.731,3.731,0,0,1-1.284,1.431,1.4,1.4,0,0,0,.573,2.559,8.35,8.35,0,0,0,5.4-1,1.062,1.062,0,1,0-1.093-1.822,5.621,5.621,0,0,1-2.3.746,6.323,6.323,0,0,0,.954-1.735,1.075,1.075,0,0,0-.217-1.093,8.853,8.853,0,0,1-2.455-6.064c0-5.361,5.04-9.725,11.243-9.725s11.243,4.363,11.243,9.725-5.04,9.725-11.243,9.725a12.988,12.988,0,0,1-3.071-.364,1.063,1.063,0,0,0-.5,2.065Z" transform="translate(-166.692 -14.813)" fill="#313131" stroke="#fff" stroke-width="0.5"/>
      <circle id="Elipse_18" data-name="Elipse 18" cx="1.128" cy="1.128" r="1.128" transform="translate(28.074 10.722)" fill="#313131" stroke="#fff" stroke-width="0.5"/>
      <circle id="Elipse_19" data-name="Elipse 19" cx="1.128" cy="1.128" r="1.128" transform="translate(32.091 10.722)" fill="#313131" stroke="#fff" stroke-width="0.5"/>
      <circle id="Elipse_20" data-name="Elipse 20" cx="1.128" cy="1.128" r="1.128" transform="translate(24.058 10.722)" fill="#313131" stroke="#fff" stroke-width="0.5"/>
    </g>
  </g>
</svg>
