<svg xmlns="http://www.w3.org/2000/svg" width="28.372" height="26.729" viewBox="0 0 28.372 26.729">
  <g id="transferencia" transform="translate(0 -14.2)">
    <g id="Agrupar_2783" data-name="Agrupar 2783" transform="translate(0 14.2)">
      <path id="Caminho_1403" data-name="Caminho 1403" d="M22.34,14.2H6.038A2.96,2.96,0,0,0,3.08,17.158V30.653l-1.87-1.87a.708.708,0,0,0-1,1L3.294,32.87a.713.713,0,0,0,1.007,0l3.086-3.086a.708.708,0,1,0-1-1L4.51,30.658v-13.5a1.539,1.539,0,0,1,1.54-1.54h16.3a1.539,1.539,0,0,1,1.54,1.54v1.968a.712.712,0,0,0,1.424,0V17.158A2.989,2.989,0,0,0,22.34,14.2Z" transform="translate(0 -14.2)" fill="#37474f"/>
      <path id="Caminho_1404" data-name="Caminho 1404" d="M74.109,150.25l-3.086,3.086a.71.71,0,0,0,1.007,1l1.876-1.876v13.494a1.539,1.539,0,0,1-1.54,1.54h-16.3a1.539,1.539,0,0,1-1.54-1.54v-1.968a.712.712,0,0,0-1.424,0v1.968a2.96,2.96,0,0,0,2.958,2.958h16.3a2.96,2.96,0,0,0,2.958-2.958V152.461l1.876,1.876a.708.708,0,0,0,1-1L75.1,150.25A.72.72,0,0,0,74.109,150.25Z" transform="translate(-50.026 -142.185)" fill="#37474f"/>
      <path id="Caminho_1405" data-name="Caminho 1405" d="M191.965,136.7a.712.712,0,0,0-.712.712V138.5h-.093a2.591,2.591,0,0,0,0,5.175h1.6a1.177,1.177,0,0,1,0,2.339h-2.871a.712.712,0,1,0,0,1.424h1.366v1.106a.712.712,0,0,0,1.424,0v-1.112h.122a2.592,2.592,0,0,0-.035-5.175h-1.6a1.177,1.177,0,0,1,0-2.339h2.819a.712.712,0,1,0,0-1.424h-1.308v-1.088A.714.714,0,0,0,191.965,136.7Z" transform="translate(-177.776 -129.608)" fill="#37474f"/>
    </g>
  </g>
</svg>
